TelexDeva HT-Bold.ufo
<glyph name="quotedbl" format="1">
  <advance width="442"/>
  <unicode hex="0022"/>
  <outline>
    <contour>
      <point x="184" y="729" type="line"/>
      <point x="64" y="729" type="line"/>
      <point x="74" y="445" type="line"/>
      <point x="174" y="445" type="line"/>
    </contour>
    <contour>
      <point x="378" y="729" type="line"/>
      <point x="259" y="729" type="line"/>
      <point x="269" y="445" type="line"/>
      <point x="368" y="445" type="line"/>
    </contour>
  </outline>
</glyph>
<glyph name="dollar" format="1">
  <advance width="512"/>
  <unicode hex="0024"/>
  <outline>
    <contour>
      <point x="481" y="445"/>
      <point x="188" y="367"/>
      <point x="188" y="486" type="curve" smooth="yes"/>
      <point x="188" y="527"/>
      <point x="225" y="552"/>
      <point x="287" y="552" type="curve" smooth="yes"/>
      <point x="323" y="552"/>
      <point x="369" y="542"/>
      <point x="436" y="519" type="curve"/>
      <point x="467" y="624" type="line"/>
      <point x="415" y="643"/>
      <point x="367" y="657"/>
      <point x="307" y="661" type="curve"/>
      <point x="307" y="774" type="line"/>
      <point x="224" y="774" type="line"/>
      <point x="224" y="659" type="line"/>
      <point x="119" y="645"/>
      <point x="40" y="585"/>
      <point x="40" y="475" type="curve" smooth="yes"/>
      <point x="40" y="253"/>
      <point x="332" y="329"/>
      <point x="332" y="209" type="curve" smooth="yes"/>
      <point x="332" y="162"/>
      <point x="295" y="133"/>
      <point x="233" y="133" type="curve" smooth="yes"/>
      <point x="192" y="133"/>
      <point x="154" y="142"/>
      <point x="62" y="177" type="curve"/>
      <point x="27" y="72" type="line"/>
      <point x="90" y="45"/>
      <point x="150" y="28"/>
      <point x="224" y="24" type="curve"/>
      <point x="224" y="-78" type="line"/>
      <point x="307" y="-78" type="line"/>
      <point x="307" y="27" type="line"/>
      <point x="415" y="43"/>
      <point x="481" y="111"/>
      <point x="481" y="213" type="curve" smooth="yes"/>
    </contour>
  </outline>
</glyph>
<glyph name="parenright" format="1">
  <advance width="293"/>
  <unicode hex="0029"/>
  <outline>
    <contour>
      <point x="8" y="747" type="line"/>
      <point x="105" y="578"/>
      <point x="143" y="450"/>
      <point x="143" y="285" type="curve" smooth="yes"/>
      <point x="143" y="124"/>
      <point x="105" y="-4"/>
      <point x="8" y="-177" type="curve"/>
      <point x="94" y="-227" type="line"/>
      <point x="215" y="-41"/>
      <point x="261" y="105"/>
      <point x="261" y="283" type="curve" smooth="yes"/>
      <point x="261" y="458"/>
      <point x="216" y="606"/>
      <point x="94" y="797" type="curve"/>
    </contour>
  </outline>
</glyph>
<glyph name="plus" format="1">
  <advance width="558"/>
  <unicode hex="002B"/>
  <outline>
    <contour>
      <point x="33" y="256" type="line"/>
      <point x="223" y="256" type="line"/>
      <point x="223" y="59" type="line"/>
      <point x="332" y="59" type="line"/>
      <point x="332" y="256" type="line"/>
      <point x="524" y="256" type="line"/>
      <point x="524" y="357" type="line"/>
      <point x="332" y="357" type="line"/>
      <point x="332" y="553" type="line"/>
      <point x="223" y="553" type="line"/>
      <point x="223" y="357" type="line"/>
      <point x="33" y="357" type="line"/>
    </contour>
  </outline>
</glyph>
<glyph name="period" format="1">
  <advance width="287"/>
  <unicode hex="002E"/>
  <outline>
    <contour>
      <point x="221" y="0" type="line"/>
      <point x="221" y="149" type="line"/>
      <point x="67" y="149" type="line"/>
      <point x="67" y="0" type="line"/>
    </contour>
  </outline>
</glyph>
<glyph name="slash" format="1">
  <advance width="371"/>
  <unicode hex="002F"/>
  <outline>
    <contour>
      <point x="375" y="752" type="line"/>
      <point x="258" y="752" type="line"/>
      <point x="-5" y="-71" type="line"/>
      <point x="112" y="-71" type="line"/>
    </contour>
  </outline>
</glyph>
<glyph name="one" format="1">
  <advance width="427"/>
  <unicode hex="0031"/>
  <outline>
    <contour>
      <point x="30" y="536" type="line"/>
      <point x="194" y="579" type="line"/>
      <point x="194" y="0" type="line"/>
      <point x="342" y="0" type="line"/>
      <point x="342" y="700" type="line"/>
      <point x="248" y="714" type="line"/>
      <point x="6" y="618" type="line"/>
    </contour>
  </outline>
</glyph>
<glyph name="five" format="1">
  <advance width="558"/>
  <unicode hex="0035"/>
  <outline>
    <contour>
      <point x="272" y="439"/>
      <point x="231" y="432"/>
      <point x="191" y="419" type="curve"/>
      <point x="209" y="600" type="line"/>
      <point x="491" y="600" type="line"/>
      <point x="491" y="709" type="line"/>
      <point x="96" y="709" type="line"/>
      <point x="63" y="354" type="line"/>
      <point x="134" y="304" type="line"/>
      <point x="171" y="323"/>
      <point x="218" y="335"/>
      <point x="258" y="335" type="curve" smooth="yes"/>
      <point x="331" y="335"/>
      <point x="371" y="298"/>
      <point x="371" y="232" type="curve" smooth="yes"/>
      <point x="371" y="151"/>
      <point x="323" y="108"/>
      <point x="231" y="108" type="curve" smooth="yes"/>
      <point x="183" y="108"/>
      <point x="118" y="122"/>
      <point x="60" y="144" type="curve"/>
      <point x="34" y="37" type="line"/>
      <point x="102" y="10"/>
      <point x="181" y="-5"/>
      <point x="253" y="-5" type="curve" smooth="yes"/>
      <point x="419" y="-5"/>
      <point x="520" y="86"/>
      <point x="520" y="235" type="curve" smooth="yes"/>
      <point x="520" y="357"/>
      <point x="436" y="439"/>
      <point x="311" y="439" type="curve" smooth="yes"/>
    </contour>
  </outline>
</glyph>
<glyph name="eight" format="1">
  <advance width="617"/>
  <unicode hex="0038"/>
  <outline>
    <contour>
      <point x="513" y="413"/>
      <point x="554" y="469"/>
      <point x="554" y="532" type="curve" smooth="yes"/>
      <point x="554" y="646"/>
      <point x="459" y="720"/>
      <point x="309" y="720" type="curve" smooth="yes"/>
      <point x="160" y="720"/>
      <point x="65" y="647"/>
      <point x="65" y="533" type="curve" smooth="yes"/>
      <point x="65" y="447"/>
      <point x="108" y="400"/>
      <point x="166" y="369" type="curve"/>
      <point x="84" y="329"/>
      <point x="39" y="269"/>
      <point x="39" y="193" type="curve" smooth="yes"/>
      <point x="39" y="67"/>
      <point x="143" y="-10"/>
      <point x="312" y="-10" type="curve" smooth="yes"/>
      <point x="474" y="-10"/>
      <point x="581" y="71"/>
      <point x="581" y="195" type="curve" smooth="yes"/>
      <point x="581" y="295"/>
      <point x="515" y="342"/>
      <point x="438" y="373" type="curve"/>
    </contour>
    <contour>
      <point x="376" y="612"/>
      <point x="419" y="579"/>
      <point x="419" y="526" type="curve" smooth="yes"/>
      <point x="419" y="481"/>
      <point x="393" y="439"/>
      <point x="343" y="407" type="curve"/>
      <point x="266" y="433"/>
      <point x="200" y="460"/>
      <point x="200" y="526" type="curve" smooth="yes"/>
      <point x="200" y="578"/>
      <point x="242" y="612"/>
      <point x="309" y="612" type="curve" smooth="yes"/>
    </contour>
    <contour>
      <point x="231" y="98"/>
      <point x="177" y="138"/>
      <point x="177" y="199" type="curve" smooth="yes"/>
      <point x="177" y="249"/>
      <point x="200" y="286"/>
      <point x="264" y="330" type="curve"/>
      <point x="355" y="301"/>
      <point x="443" y="280"/>
      <point x="443" y="200" type="curve" smooth="yes"/>
      <point x="443" y="140"/>
      <point x="388" y="98"/>
      <point x="312" y="98" type="curve" smooth="yes"/>
    </contour>
  </outline>
</glyph>
<glyph name="nine" format="1">
  <advance width="596"/>
  <unicode hex="0039"/>
  <outline>
    <contour>
      <point x="134" y="719"/>
      <point x="29" y="628"/>
      <point x="29" y="489" type="curve" smooth="yes"/>
      <point x="29" y="364"/>
      <point x="118" y="274"/>
      <point x="242" y="274" type="curve" smooth="yes"/>
      <point x="302" y="274"/>
      <point x="360" y="296"/>
      <point x="406" y="336" type="curve"/>
      <point x="376" y="196"/>
      <point x="273" y="120"/>
      <point x="88" y="108" type="curve"/>
      <point x="103" y="-4" type="line"/>
      <point x="385" y="12"/>
      <point x="559" y="177"/>
      <point x="559" y="430" type="curve" smooth="yes"/>
      <point x="559" y="612"/>
      <point x="458" y="719"/>
      <point x="292" y="719" type="curve" smooth="yes"/>
    </contour>
    <contour>
      <point x="215" y="372"/>
      <point x="173" y="414"/>
      <point x="173" y="488" type="curve" smooth="yes"/>
      <point x="173" y="559"/>
      <point x="223" y="610"/>
      <point x="292" y="610" type="curve" smooth="yes"/>
      <point x="371" y="610"/>
      <point x="415" y="549"/>
      <point x="415" y="429" type="curve" smooth="yes"/>
      <point x="415" y="422" type="line"/>
      <point x="376" y="390"/>
      <point x="331" y="372"/>
      <point x="288" y="372" type="curve" smooth="yes"/>
    </contour>
  </outline>
</glyph>
<glyph name="semicolon" format="1">
  <advance width="254"/>
  <unicode hex="003B"/>
  <outline>
    <contour>
      <point x="233" y="461" type="line"/>
      <point x="79" y="461" type="line"/>
      <point x="79" y="312" type="line"/>
      <point x="233" y="312" type="line"/>
    </contour>
    <contour>
      <point x="227" y="135" type="line"/>
      <point x="80" y="135" type="line"/>
      <point x="19" y="-134" type="line"/>
      <point x="117" y="-134" type="line"/>
    </contour>
  </outline>
</glyph>
<glyph name="equal" format="1">
  <advance width="645"/>
  <unicode hex="003D"/>
  <outline>
    <contour>
      <point x="549" y="445" type="line"/>
      <point x="91" y="445" type="line"/>
      <point x="91" y="345" type="line"/>
      <point x="549" y="345" type="line"/>
    </contour>
    <contour>
      <point x="549" y="231" type="line"/>
      <point x="91" y="231" type="line"/>
      <point x="91" y="131" type="line"/>
      <point x="549" y="131" type="line"/>
    </contour>
  </outline>
</glyph>
<glyph name="question" format="1">
  <advance width="438"/>
  <unicode hex="003F"/>
  <outline>
    <contour>
      <point x="280" y="404"/>
      <point x="94" y="464"/>
      <point x="94" y="190" type="curve"/>
      <point x="235" y="190" type="line"/>
      <point x="235" y="416"/>
      <point x="432" y="343"/>
      <point x="432" y="551" type="curve" smooth="yes"/>
      <point x="432" y="669"/>
      <point x="338" y="742"/>
      <point x="196" y="742" type="curve" smooth="yes"/>
      <point x="127" y="742"/>
      <point x="52" y="723"/>
      <point x="-9" y="689" type="curve"/>
      <point x="33" y="585" type="line"/>
      <point x="89" y="610"/>
      <point x="135" y="623"/>
      <point x="176" y="623" type="curve" smooth="yes"/>
      <point x="238" y="623"/>
      <point x="280" y="593"/>
      <point x="280" y="540" type="curve" smooth="yes"/>
    </contour>
    <contour>
      <point x="242" y="134" type="line"/>
      <point x="88" y="134" type="line"/>
      <point x="88" y="-4" type="line"/>
      <point x="242" y="-4" type="line"/>
    </contour>
  </outline>
</glyph>
<glyph name="A" format="1">
  <advance width="681"/>
  <unicode hex="0041"/>
  <outline>
    <contour>
      <point x="675" y="0" type="line"/>
      <point x="439" y="709" type="line"/>
      <point x="237" y="709" type="line"/>
      <point x="7" y="0" type="line"/>
      <point x="157" y="0" type="line"/>
      <point x="215" y="182" type="line"/>
      <point x="467" y="182" type="line"/>
      <point x="527" y="0" type="line"/>
    </contour>
    <contour>
      <point x="249" y="295" type="line"/>
      <point x="336" y="578" type="line"/>
      <point x="343" y="578" type="line"/>
      <point x="432" y="295" type="line"/>
    </contour>
  </outline>
</glyph>
<glyph name="F" format="1">
  <advance width="553"/>
  <unicode hex="0046"/>
  <outline>
    <contour>
      <point x="537" y="709" type="line"/>
      <point x="81" y="709" type="line"/>
      <point x="81" y="0" type="line"/>
      <point x="234" y="0" type="line"/>
      <point x="234" y="301" type="line"/>
      <point x="496" y="301" type="line"/>
      <point x="496" y="416" type="line"/>
      <point x="234" y="416" type="line"/>
      <point x="234" y="594" type="line"/>
      <point x="537" y="594" type="line"/>
    </contour>
  </outline>
</glyph>
<glyph name="J" format="1">
  <advance width="373"/>
  <unicode hex="004A"/>
  <outline>
    <contour>
      <point x="40" y="-155" type="line"/>
      <point x="202" y="-94"/>
      <point x="296" y="17"/>
      <point x="296" y="141" type="curve" smooth="yes"/>
      <point x="296" y="709" type="line"/>
      <point x="9" y="709" type="line"/>
      <point x="9" y="596" type="line"/>
      <point x="145" y="596" type="line"/>
      <point x="145" y="143" type="line" smooth="yes"/>
      <point x="145" y="57"/>
      <point x="92" y="-11"/>
      <point x="-10" y="-64" type="curve"/>
    </contour>
  </outline>
</glyph>
<glyph name="K" format="1">
  <advance width="683"/>
  <unicode hex="004B"/>
  <outline>
    <contour>
      <point x="234" y="709" type="line"/>
      <point x="81" y="709" type="line"/>
      <point x="81" y="0" type="line"/>
      <point x="234" y="0" type="line"/>
    </contour>
    <contour>
      <point x="485" y="709" type="line"/>
      <point x="248" y="379" type="line"/>
      <point x="507" y="0" type="line"/>
      <point x="681" y="0" type="line"/>
      <point x="414" y="381" type="line"/>
      <point x="657" y="709" type="line"/>
    </contour>
  </outline>
</glyph>
<glyph name="Q" format="1">
  <advance width="753"/>
  <unicode hex="0051"/>
  <outline>
    <contour>
      <point x="465" y="-105"/>
      <point x="428" y="-76"/>
      <point x="416" y="-8" type="curve"/>
      <point x="613" y="7"/>
      <point x="717" y="135"/>
      <point x="717" y="358" type="curve" smooth="yes"/>
      <point x="717" y="589"/>
      <point x="597" y="719"/>
      <point x="377" y="719" type="curve" smooth="yes"/>
      <point x="156" y="719"/>
      <point x="37" y="590"/>
      <point x="37" y="358" type="curve" smooth="yes"/>
      <point x="37" y="146"/>
      <point x="130" y="20"/>
      <point x="309" y="-5" type="curve"/>
      <point x="322" y="-139"/>
      <point x="403" y="-217"/>
      <point x="532" y="-217" type="curve" smooth="yes"/>
      <point x="571" y="-217"/>
      <point x="613" y="-210"/>
      <point x="655" y="-196" type="curve"/>
      <point x="621" y="-89" type="line"/>
      <point x="592" y="-99"/>
      <point x="564" y="-105"/>
      <point x="538" y="-105" type="curve" smooth="yes"/>
    </contour>
    <contour>
      <point x="195" y="515"/>
      <point x="255" y="599"/>
      <point x="377" y="599" type="curve" smooth="yes"/>
      <point x="498" y="599"/>
      <point x="559" y="514"/>
      <point x="559" y="358" type="curve" smooth="yes"/>
      <point x="559" y="198"/>
      <point x="498" y="111"/>
      <point x="377" y="111" type="curve" smooth="yes"/>
      <point x="256" y="111"/>
      <point x="195" y="197"/>
      <point x="195" y="358" type="curve" smooth="yes"/>
    </contour>
  </outline>
</glyph>
<glyph name="T" format="1">
  <advance width="558"/>
  <unicode hex="0054"/>
  <outline>
    <contour>
      <point x="7" y="593" type="line"/>
      <point x="206" y="593" type="line"/>
      <point x="206" y="0" type="line"/>
      <point x="359" y="0" type="line"/>
      <point x="359" y="593" type="line"/>
      <point x="551" y="593" type="line"/>
      <point x="551" y="709" type="line"/>
      <point x="7" y="709" type="line"/>
    </contour>
  </outline>
</glyph>
<glyph name="X" format="1">
  <advance width="665"/>
  <unicode hex="0058"/>
  <outline>
    <contour>
      <point x="485" y="0" type="line"/>
      <point x="659" y="0" type="line"/>
      <point x="440" y="367" type="line"/>
      <point x="639" y="709" type="line"/>
      <point x="472" y="709" type="line"/>
      <point x="332" y="454" type="line"/>
      <point x="192" y="709" type="line"/>
      <point x="25" y="709" type="line"/>
      <point x="225" y="367" type="line"/>
      <point x="5" y="0" type="line"/>
      <point x="179" y="0" type="line"/>
      <point x="332" y="279" type="line"/>
    </contour>
  </outline>
</glyph>
<glyph name="Z" format="1">
  <advance width="567"/>
  <unicode hex="005A"/>
  <outline>
    <contour>
      <point x="364" y="595" type="line"/>
      <point x="27" y="100" type="line"/>
      <point x="27" y="0" type="line"/>
      <point x="535" y="0" type="line"/>
      <point x="535" y="115" type="line"/>
      <point x="200" y="115" type="line"/>
      <point x="538" y="612" type="line"/>
      <point x="538" y="711" type="line"/>
      <point x="38" y="711" type="line"/>
      <point x="38" y="595" type="line"/>
    </contour>
  </outline>
</glyph>
<glyph name="underscore" format="1">
  <advance width="663"/>
  <unicode hex="005F"/>
  <outline>
    <contour>
      <point x="598" y="-38" type="line"/>
      <point x="65" y="-38" type="line"/>
      <point x="65" y="-145" type="line"/>
      <point x="598" y="-145" type="line"/>
    </contour>
  </outline>
</glyph>
<glyph name="a" format="1">
  <advance width="562"/>
  <unicode hex="0061"/>
  <outline>
    <contour>
      <point x="207" y="534"/>
      <point x="128" y="518"/>
      <point x="58" y="490" type="curve"/>
      <point x="90" y="389" type="line"/>
      <point x="138" y="410"/>
      <point x="205" y="425"/>
      <point x="250" y="425" type="curve" smooth="yes"/>
      <point x="316" y="425"/>
      <point x="351" y="395"/>
      <point x="353" y="334" type="curve" smooth="yes"/>
      <point x="353" y="321" type="line"/>
      <point x="289" y="321" type="line" smooth="yes"/>
      <point x="123" y="321"/>
      <point x="27" y="256"/>
      <point x="27" y="147" type="curve" smooth="yes"/>
      <point x="27" y="52"/>
      <point x="95" y="-8"/>
      <point x="203" y="-8" type="curve" smooth="yes"/>
      <point x="264" y="-8"/>
      <point x="320" y="17"/>
      <point x="362" y="62" type="curve"/>
      <point x="379" y="0" type="line"/>
      <point x="503" y="0" type="line"/>
      <point x="503" y="321" type="line" smooth="yes"/>
      <point x="503" y="460"/>
      <point x="422" y="534"/>
      <point x="274" y="534" type="curve" smooth="yes"/>
    </contour>
    <contour>
      <point x="353" y="239" type="line"/>
      <point x="353" y="142" type="line"/>
      <point x="327" y="111"/>
      <point x="285" y="90"/>
      <point x="242" y="90" type="curve" smooth="yes"/>
      <point x="194" y="90"/>
      <point x="167" y="113"/>
      <point x="167" y="156" type="curve" smooth="yes"/>
      <point x="167" y="208"/>
      <point x="217" y="239"/>
      <point x="302" y="239" type="curve" smooth="yes"/>
    </contour>
  </outline>
</glyph>
<glyph name="k" format="1">
  <advance width="585"/>
  <unicode hex="006B"/>
  <outline>
    <contour>
      <point x="222" y="755" type="line"/>
      <point x="72" y="755" type="line"/>
      <point x="72" y="0" type="line"/>
      <point x="222" y="0" type="line"/>
    </contour>
    <contour>
      <point x="398" y="524" type="line"/>
      <point x="232" y="291" type="line"/>
      <point x="421" y="0" type="line"/>
      <point x="588" y="0" type="line"/>
      <point x="388" y="296" type="line"/>
      <point x="557" y="524" type="line"/>
    </contour>
  </outline>
</glyph>
<glyph name="m" format="1">
  <advance width="965"/>
  <unicode hex="006D"/>
  <outline>
    <contour>
      <point x="198" y="524" type="line"/>
      <point x="73" y="524" type="line"/>
      <point x="73" y="0" type="line"/>
      <point x="223" y="0" type="line"/>
      <point x="223" y="366" type="line"/>
      <point x="247" y="404"/>
      <point x="290" y="427"/>
      <point x="337" y="427" type="curve" smooth="yes"/>
      <point x="390" y="427"/>
      <point x="413" y="401"/>
      <point x="413" y="340" type="curve" smooth="yes"/>
      <point x="413" y="0" type="line"/>
      <point x="563" y="0" type="line"/>
      <point x="563" y="341" type="line" smooth="yes"/>
      <point x="563" y="354"/>
      <point x="561" y="366"/>
      <point x="561" y="366" type="curve"/>
      <point x="587" y="404"/>
      <point x="629" y="427"/>
      <point x="677" y="427" type="curve" smooth="yes"/>
      <point x="730" y="427"/>
      <point x="753" y="401"/>
      <point x="753" y="340" type="curve" smooth="yes"/>
      <point x="753" y="0" type="line"/>
      <point x="903" y="0" type="line"/>
      <point x="903" y="348" type="line" smooth="yes"/>
      <point x="903" y="466"/>
      <point x="840" y="532"/>
      <point x="728" y="532" type="curve" smooth="yes"/>
      <point x="653" y="532"/>
      <point x="594" y="503"/>
      <point x="545" y="442" type="curve"/>
      <point x="518" y="501"/>
      <point x="463" y="532"/>
      <point x="388" y="532" type="curve" smooth="yes"/>
      <point x="317" y="532"/>
      <point x="257" y="505"/>
      <point x="214" y="451" type="curve"/>
    </contour>
  </outline>
</glyph>
<glyph name="y" format="1">
  <advance width="541"/>
  <unicode hex="0079"/>
  <outline>
    <contour>
      <point x="540" y="524" type="line"/>
      <point x="396" y="524" type="line"/>
      <point x="339" y="365" type="line" smooth="yes"/>
      <point x="312" y="287"/>
      <point x="293" y="201"/>
      <point x="273" y="124" type="curve"/>
      <point x="252" y="201"/>
      <point x="230" y="290"/>
      <point x="204" y="363" type="curve" smooth="yes"/>
      <point x="145" y="524" type="line"/>
      <point x="2" y="524" type="line"/>
      <point x="200" y="3" type="line"/>
      <point x="116" y="-229" type="line"/>
      <point x="253" y="-229" type="line"/>
    </contour>
  </outline>
</glyph>
<glyph name="exclamdown" format="1">
  <advance width="273"/>
  <unicode hex="00A1"/>
  <outline>
    <contour>
      <point x="72" y="428" type="line"/>
      <point x="71" y="401" type="line"/>
      <point x="69" y="401" type="line"/>
      <point x="68" y="330" type="line"/>
      <point x="62" y="201" type="line"/>
      <point x="65" y="201" type="line"/>
      <point x="61" y="-30" type="line"/>
      <point x="212" y="-30" type="line"/>
      <point x="207" y="201" type="line"/>
      <point x="212" y="201" type="line"/>
      <point x="202" y="428" type="line"/>
    </contour>
  </outline>
</glyph>
<glyph name="brokenbar" format="1">
  <advance width="235"/>
  <unicode hex="00A6"/>
  <outline>
    <contour>
      <point x="175" y="774" type="line"/>
      <point x="60" y="774" type="line"/>
      <point x="60" y="390" type="line"/>
      <point x="175" y="390" type="line"/>
    </contour>
    <contour>
      <point x="175" y="207" type="line"/>
      <point x="60" y="207" type="line"/>
      <point x="60" y="-193" type="line"/>
      <point x="175" y="-193" type="line"/>
    </contour>
  </outline>
</glyph>
<glyph name="dieresis" format="1">
  <advance width="401"/>
  <unicode hex="00A8"/>
  <outline>
    <contour>
      <point x="158" y="717" type="line"/>
      <point x="36" y="717" type="line"/>
      <point x="36" y="599" type="line"/>
      <point x="158" y="599" type="line"/>
    </contour>
    <contour>
      <point x="364" y="717" type="line"/>
      <point x="243" y="717" type="line"/>
      <point x="243" y="599" type="line"/>
      <point x="364" y="599" type="line"/>
    </contour>
  </outline>
</glyph>
<glyph name="copyright" format="1">
  <advance width="589"/>
  <unicode hex="00A9"/>
  <outline>
    <contour>
      <point x="24" y="185"/>
      <point x="143" y="66"/>
      <point x="295" y="66" type="curve" smooth="yes"/>
      <point x="444" y="66"/>
      <point x="565" y="187"/>
      <point x="565" y="338" type="curve" smooth="yes"/>
      <point x="565" y="488"/>
      <point x="446" y="605"/>
      <point x="295" y="605" type="curve" smooth="yes"/>
      <point x="144" y="605"/>
      <point x="24" y="485"/>
      <point x="24" y="336" type="curve" smooth="yes"/>
    </contour>
    <contour>
      <point x="502" y="220"/>
      <point x="410" y="126"/>
      <point x="295" y="126" type="curve" smooth="yes"/>
      <point x="181" y="126"/>
      <point x="88" y="221"/>
      <point x="88" y="338" type="curve" smooth="yes"/>
      <point x="88" y="454"/>
      <point x="181" y="547"/>
      <point x="295" y="547" type="curve" smooth="yes"/>
      <point x="409" y="547"/>
      <point x="502" y="452"/>
      <point x="502" y="336" type="curve" smooth="yes"/>
    </contour>
    <contour>
      <point x="166" y="252"/>
      <point x="218" y="201"/>
      <point x="303" y="201" type="curve" smooth="yes"/>
      <point x="334" y="201"/>
      <point x="366" y="210"/>
      <point x="389" y="224" type="curve"/>
      <point x="373" y="271" type="line"/>
      <point x="348" y="258"/>
      <point x="326" y="252"/>
      <point x="305" y="252" type="curve" smooth="yes"/>
      <point x="256" y="252"/>
      <point x="230" y="282"/>
      <point x="230" y="337" type="curve" smooth="yes"/>
      <point x="230" y="390"/>
      <point x="256" y="421"/>
      <point x="300" y="421" type="curve" smooth="yes"/>
      <point x="325" y="421"/>
      <point x="343" y="412"/>
      <point x="360" y="391" type="curve"/>
      <point x="396" y="427" type="line"/>
      <point x="373" y="456"/>
      <point x="339" y="472"/>
      <point x="300" y="472" type="curve" smooth="yes"/>
      <point x="218" y="472"/>
      <point x="166" y="420"/>
      <point x="166" y="337" type="curve" smooth="yes"/>
    </contour>
  </outline>
</glyph>
<glyph name="ordfeminine" format="1">
  <advance width="359"/>
  <unicode hex="00AA"/>
  <outline>
    <contour>
      <point x="12" y="393"/>
      <point x="58" y="353"/>
      <point x="131" y="353" type="curve" smooth="yes"/>
      <point x="169" y="353"/>
      <point x="205" y="368"/>
      <point x="232" y="396" type="curve"/>
      <point x="243" y="360" type="line"/>
      <point x="331" y="360" type="line"/>
      <point x="331" y="578" type="line" smooth="yes"/>
      <point x="331" y="666"/>
      <point x="277" y="714"/>
      <point x="177" y="714" type="curve" smooth="yes"/>
      <point x="134" y="714"/>
      <point x="80" y="703"/>
      <point x="32" y="684" type="curve"/>
      <point x="54" y="614" type="line"/>
      <point x="88" y="629"/>
      <point x="133" y="639"/>
      <point x="161" y="639" type="curve" smooth="yes"/>
      <point x="202" y="639"/>
      <point x="223" y="620"/>
      <point x="224" y="582" type="curve" smooth="yes"/>
      <point x="224" y="575" type="line"/>
      <point x="187" y="575" type="line" smooth="yes"/>
      <point x="76" y="575"/>
      <point x="12" y="532"/>
      <point x="12" y="458" type="curve" smooth="yes"/>
    </contour>
    <contour>
      <point x="224" y="456" type="line"/>
      <point x="208" y="435"/>
      <point x="182" y="423"/>
      <point x="157" y="423" type="curve" smooth="yes"/>
      <point x="128" y="423"/>
      <point x="112" y="437"/>
      <point x="112" y="463" type="curve" smooth="yes"/>
      <point x="112" y="500"/>
      <point x="140" y="518"/>
      <point x="193" y="518" type="curve" smooth="yes"/>
      <point x="224" y="518" type="line"/>
    </contour>
  </outline>
</glyph>
<glyph name="guillemotleft" format="1">
  <advance width="540"/>
  <unicode hex="00AB"/>
  <outline>
    <contour>
      <point x="178" y="510" type="line"/>
      <point x="2" y="265" type="line"/>
      <point x="177" y="20" type="line"/>
      <point x="264" y="89" type="line"/>
      <point x="138" y="265" type="line"/>
      <point x="265" y="442" type="line"/>
    </contour>
    <contour>
      <point x="439" y="510" type="line"/>
      <point x="263" y="265" type="line"/>
      <point x="438" y="20" type="line"/>
      <point x="524" y="89" type="line"/>
      <point x="398" y="265" type="line"/>
      <point x="525" y="442" type="line"/>
    </contour>
  </outline>
</glyph>
<glyph name="softhyphen" format="1">
  <advance width="425"/>
  <unicode hex="00AD"/>
  <outline>
    <contour>
      <point x="359" y="374" type="line"/>
      <point x="65" y="374" type="line"/>
      <point x="65" y="268" type="line"/>
      <point x="359" y="268" type="line"/>
    </contour>
  </outline>
</glyph>
<glyph name="registered" format="1">
  <advance width="589"/>
  <unicode hex="00AE"/>
  <outline>
    <contour>
      <point x="144" y="717"/>
      <point x="24" y="597"/>
      <point x="24" y="448" type="curve" smooth="yes"/>
      <point x="24" y="297"/>
      <point x="143" y="178"/>
      <point x="295" y="178" type="curve" smooth="yes"/>
      <point x="444" y="178"/>
      <point x="565" y="299"/>
      <point x="565" y="450" type="curve" smooth="yes"/>
      <point x="565" y="600"/>
      <point x="446" y="717"/>
      <point x="295" y="717" type="curve" smooth="yes"/>
    </contour>
    <contour>
      <point x="409" y="659"/>
      <point x="502" y="564"/>
      <point x="502" y="448" type="curve" smooth="yes"/>
      <point x="502" y="332"/>
      <point x="410" y="238"/>
      <point x="295" y="238" type="curve" smooth="yes"/>
      <point x="181" y="238"/>
      <point x="88" y="333"/>
      <point x="88" y="450" type="curve" smooth="yes"/>
      <point x="88" y="566"/>
      <point x="181" y="659"/>
      <point x="295" y="659" type="curve" smooth="yes"/>
    </contour>
    <contour>
      <point x="206" y="594" type="line"/>
      <point x="206" y="315" type="line"/>
      <point x="257" y="315" type="line"/>
      <point x="257" y="423" type="line"/>
      <point x="296" y="423" type="line"/>
      <point x="364" y="309" type="line"/>
      <point x="408" y="333" type="line"/>
      <point x="348" y="431" type="line"/>
      <point x="381" y="443"/>
      <point x="399" y="470"/>
      <point x="399" y="509" type="curve" smooth="yes"/>
      <point x="399" y="564"/>
      <point x="364" y="594"/>
      <point x="299" y="594" type="curve" smooth="yes"/>
    </contour>
    <contour>
      <point x="257" y="549" type="line"/>
      <point x="299" y="549" type="line" smooth="yes"/>
      <point x="329" y="549"/>
      <point x="346" y="535"/>
      <point x="346" y="509" type="curve" smooth="yes"/>
      <point x="346" y="482"/>
      <point x="329" y="468"/>
      <point x="299" y="468" type="curve" smooth="yes"/>
      <point x="257" y="468" type="line"/>
    </contour>
  </outline>
</glyph>
<glyph name="degree" format="1">
  <advance width="407"/>
  <unicode hex="00B0"/>
  <outline>
    <contour>
      <point x="31" y="448"/>
      <point x="108" y="371"/>
      <point x="204" y="371" type="curve" smooth="yes"/>
      <point x="299" y="371"/>
      <point x="375" y="447"/>
      <point x="375" y="544" type="curve" smooth="yes"/>
      <point x="375" y="640"/>
      <point x="300" y="715"/>
      <point x="204" y="715" type="curve" smooth="yes"/>
      <point x="107" y="715"/>
      <point x="31" y="639"/>
      <point x="31" y="544" type="curve" smooth="yes"/>
    </contour>
    <contour>
      <point x="280" y="499"/>
      <point x="246" y="462"/>
      <point x="205" y="462" type="curve" smooth="yes"/>
      <point x="164" y="462"/>
      <point x="130" y="499"/>
      <point x="130" y="544" type="curve" smooth="yes"/>
      <point x="130" y="589"/>
      <point x="163" y="624"/>
      <point x="205" y="624" type="curve" smooth="yes"/>
      <point x="247" y="624"/>
      <point x="280" y="589"/>
      <point x="280" y="544" type="curve" smooth="yes"/>
    </contour>
  </outline>
</glyph>
<glyph name="twosuperior" format="1">
  <advance width="339"/>
  <unicode hex="00B2"/>
  <outline>
    <contour>
      <point x="107" y="868"/>
      <point x="59" y="858"/>
      <point x="14" y="841" type="curve"/>
      <point x="30" y="763" type="line"/>
      <point x="60" y="776"/>
      <point x="93" y="784"/>
      <point x="120" y="784" type="curve" smooth="yes"/>
      <point x="168" y="784"/>
      <point x="195" y="761"/>
      <point x="195" y="719" type="curve" smooth="yes"/>
      <point x="195" y="666"/>
      <point x="168" y="621"/>
      <point x="87" y="556" type="curve"/>
      <point x="15" y="492" type="line"/>
      <point x="21" y="421" type="line"/>
      <point x="319" y="421" type="line"/>
      <point x="319" y="513" type="line"/>
      <point x="271" y="506"/>
      <point x="204" y="499"/>
      <point x="148" y="498" type="curve"/>
      <point x="204" y="546" type="line" smooth="yes"/>
      <point x="285" y="616"/>
      <point x="310" y="663"/>
      <point x="310" y="727" type="curve" smooth="yes"/>
      <point x="310" y="813"/>
      <point x="247" y="868"/>
      <point x="151" y="868" type="curve" smooth="yes"/>
    </contour>
  </outline>
</glyph>
<glyph name="threesuperior" format="1">
  <advance width="343"/>
  <unicode hex="00B3"/>
  <outline>
    <contour>
      <point x="14" y="434" type="line"/>
      <point x="49" y="421"/>
      <point x="96" y="414"/>
      <point x="137" y="414" type="curve" smooth="yes"/>
      <point x="256" y="414"/>
      <point x="322" y="460"/>
      <point x="322" y="540" type="curve" smooth="yes"/>
      <point x="322" y="597"/>
      <point x="286" y="635"/>
      <point x="222" y="648" type="curve"/>
      <point x="280" y="661"/>
      <point x="312" y="696"/>
      <point x="312" y="749" type="curve" smooth="yes"/>
      <point x="312" y="822"/>
      <point x="246" y="866"/>
      <point x="151" y="866" type="curve" smooth="yes"/>
      <point x="105" y="866"/>
      <point x="58" y="858"/>
      <point x="14" y="843" type="curve"/>
      <point x="30" y="767" type="line"/>
      <point x="65" y="780"/>
      <point x="102" y="787"/>
      <point x="129" y="787" type="curve" smooth="yes"/>
      <point x="172" y="787"/>
      <point x="198" y="771"/>
      <point x="198" y="739" type="curve" smooth="yes"/>
      <point x="198" y="702"/>
      <point x="168" y="681"/>
      <point x="114" y="681" type="curve" smooth="yes"/>
      <point x="81" y="681" type="line"/>
      <point x="81" y="606" type="line"/>
      <point x="119" y="606" type="line" smooth="yes"/>
      <point x="178" y="606"/>
      <point x="209" y="587"/>
      <point x="209" y="547" type="curve" smooth="yes"/>
      <point x="209" y="512"/>
      <point x="179" y="492"/>
      <point x="124" y="492" type="curve" smooth="yes"/>
      <point x="98" y="492"/>
      <point x="60" y="498"/>
      <point x="27" y="508" type="curve"/>
    </contour>
  </outline>
</glyph>
<glyph name="acute" format="1">
  <advance width="293"/>
  <unicode hex="00B4"/>
  <outline>
    <contour>
      <point x="192" y="781" type="line"/>
      <point x="36" y="620" type="line"/>
      <point x="77" y="570" type="line"/>
      <point x="257" y="695" type="line"/>
    </contour>
  </outline>
</glyph>
<glyph name="paragraph" format="1">
  <advance width="540"/>
  <unicode hex="00B6"/>
  <outline>
    <contour>
      <point x="210" y="-186" type="line"/>
      <point x="308" y="-186" type="line"/>
      <point x="308" y="622" type="line"/>
      <point x="370" y="622" type="line"/>
      <point x="370" y="-186" type="line"/>
      <point x="468" y="-186" type="line"/>
      <point x="468" y="714" type="line"/>
      <point x="210" y="714" type="line" smooth="yes"/>
      <point x="79" y="714"/>
      <point x="2" y="641"/>
      <point x="2" y="519" type="curve" smooth="yes"/>
      <point x="2" y="402"/>
      <point x="85" y="324"/>
      <point x="210" y="324" type="curve"/>
    </contour>
  </outline>
</glyph>
<glyph name="guillemotright" format="1">
  <advance width="627"/>
  <unicode hex="00BB"/>
  <outline>
    <contour>
      <point x="181" y="265" type="line"/>
      <point x="56" y="89" type="line"/>
      <point x="141" y="20" type="line"/>
      <point x="316" y="265" type="line"/>
      <point x="141" y="510" type="line"/>
      <point x="55" y="442" type="line"/>
    </contour>
    <contour>
      <point x="441" y="265" type="line"/>
      <point x="315" y="89" type="line"/>
      <point x="402" y="20" type="line"/>
      <point x="577" y="265" type="line"/>
      <point x="401" y="510" type="line"/>
      <point x="314" y="442" type="line"/>
    </contour>
  </outline>
</glyph>
<glyph name="Aring" format="1">
  <advance width="681"/>
  <unicode hex="00C5"/>
  <outline>
    <contour>
      <point x="263" y="1022"/>
      <point x="200" y="961"/>
      <point x="200" y="889" type="curve" smooth="yes"/>
      <point x="200" y="817"/>
      <point x="263" y="756"/>
      <point x="339" y="756" type="curve" smooth="yes"/>
      <point x="414" y="756"/>
      <point x="477" y="817"/>
      <point x="477" y="889" type="curve" smooth="yes"/>
      <point x="477" y="961"/>
      <point x="414" y="1022"/>
      <point x="339" y="1022" type="curve" smooth="yes"/>
    </contour>
    <contour>
      <point x="373" y="946"/>
      <point x="396" y="921"/>
      <point x="396" y="889" type="curve" smooth="yes"/>
      <point x="396" y="857"/>
      <point x="372" y="830"/>
      <point x="339" y="830" type="curve" smooth="yes"/>
      <point x="305" y="830"/>
      <point x="280" y="857"/>
      <point x="280" y="889" type="curve" smooth="yes"/>
      <point x="280" y="921"/>
      <point x="304" y="946"/>
      <point x="339" y="946" type="curve" smooth="yes"/>
    </contour>
    <contour>
      <point x="675" y="0" type="line"/>
      <point x="439" y="709" type="line"/>
      <point x="237" y="709" type="line"/>
      <point x="7" y="0" type="line"/>
      <point x="157" y="0" type="line"/>
      <point x="215" y="182" type="line"/>
      <point x="467" y="182" type="line"/>
      <point x="527" y="0" type="line"/>
    </contour>
    <contour>
      <point x="249" y="295" type="line"/>
      <point x="336" y="578" type="line"/>
      <point x="343" y="578" type="line"/>
      <point x="432" y="295" type="line"/>
    </contour>
  </outline>
</glyph>
<glyph name="Ccedilla" format="1">
  <advance width="615"/>
  <unicode hex="00C7"/>
  <outline>
    <contour>
      <point x="376" y="-8" type="line"/>
      <point x="380" y="-8" type="line" smooth="yes"/>
      <point x="455" y="-8"/>
      <point x="526" y="8"/>
      <point x="600" y="41" type="curve"/>
      <point x="563" y="153" type="line"/>
      <point x="504" y="128"/>
      <point x="452" y="117"/>
      <point x="400" y="117" type="curve" smooth="yes"/>
      <point x="265" y="117"/>
      <point x="194" y="200"/>
      <point x="194" y="357" type="curve" smooth="yes"/>
      <point x="194" y="512"/>
      <point x="266" y="595"/>
      <point x="400" y="595" type="curve" smooth="yes"/>
      <point x="448" y="595"/>
      <point x="493" y="584"/>
      <point x="549" y="557" type="curve"/>
      <point x="594" y="663" type="line"/>
      <point x="535" y="698"/>
      <point x="457" y="718"/>
      <point x="382" y="718" type="curve" smooth="yes"/>
      <point x="165" y="718"/>
      <point x="37" y="582"/>
      <point x="37" y="354" type="curve" smooth="yes"/>
      <point x="37" y="140"/>
      <point x="140" y="14"/>
      <point x="327" y="-5" type="curve"/>
      <point x="289" y="-56" type="line"/>
      <point x="299" y="-82" type="line"/>
      <point x="339" y="-91"/>
      <point x="356" y="-104"/>
      <point x="356" y="-124" type="curve" smooth="yes"/>
      <point x="356" y="-144"/>
      <point x="342" y="-154"/>
      <point x="321" y="-154" type="curve" smooth="yes"/>
      <point x="303" y="-154"/>
      <point x="283" y="-148"/>
      <point x="272" y="-142" type="curve"/>
      <point x="250" y="-189" type="line"/>
      <point x="274" y="-203"/>
      <point x="309" y="-216"/>
      <point x="345" y="-216" type="curve" smooth="yes"/>
      <point x="395" y="-216"/>
      <point x="438" y="-187"/>
      <point x="438" y="-128" type="curve" smooth="yes"/>
      <point x="438" y="-94"/>
      <point x="406" y="-58"/>
      <point x="364" y="-45" type="curve"/>
    </contour>
  </outline>
</glyph>
<glyph name="Egrave" format="1">
  <advance width="587"/>
  <unicode hex="00C8"/>
  <outline>
    <contour>
      <point x="362" y="804" type="line"/>
      <point x="206" y="965" type="line"/>
      <point x="141" y="879" type="line"/>
      <point x="321" y="754" type="line"/>
    </contour>
    <contour>
      <point x="543" y="709" type="line"/>
      <point x="81" y="709" type="line"/>
      <point x="81" y="0" type="line"/>
      <point x="553" y="0" type="line"/>
      <point x="553" y="113" type="line"/>
      <point x="234" y="113" type="line"/>
      <point x="234" y="310" type="line"/>
      <point x="513" y="310" type="line"/>
      <point x="513" y="421" type="line"/>
      <point x="234" y="421" type="line"/>
      <point x="234" y="596" type="line"/>
      <point x="543" y="596" type="line"/>
    </contour>
  </outline>
</glyph>
<glyph name="Edieresis" format="1">
  <advance width="587"/>
  <unicode hex="00CB"/>
  <outline>
    <contour>
      <point x="275" y="901" type="line"/>
      <point x="153" y="901" type="line"/>
      <point x="153" y="783" type="line"/>
      <point x="275" y="783" type="line"/>
    </contour>
    <contour>
      <point x="481" y="901" type="line"/>
      <point x="360" y="901" type="line"/>
      <point x="360" y="783" type="line"/>
      <point x="481" y="783" type="line"/>
    </contour>
    <contour>
      <point x="543" y="709" type="line"/>
      <point x="81" y="709" type="line"/>
      <point x="81" y="0" type="line"/>
      <point x="553" y="0" type="line"/>
      <point x="553" y="113" type="line"/>
      <point x="234" y="113" type="line"/>
      <point x="234" y="310" type="line"/>
      <point x="513" y="310" type="line"/>
      <point x="513" y="421" type="line"/>
      <point x="234" y="421" type="line"/>
      <point x="234" y="596" type="line"/>
      <point x="543" y="596" type="line"/>
    </contour>
  </outline>
</glyph>
<glyph name="Eth" format="1">
  <advance width="724"/>
  <unicode hex="00D0"/>
  <outline>
    <contour>
      <point x="82" y="709" type="line"/>
      <point x="82" y="405" type="line"/>
      <point x="6" y="405" type="line"/>
      <point x="6" y="302" type="line"/>
      <point x="82" y="302" type="line"/>
      <point x="82" y="0" type="line"/>
      <point x="321" y="0" type="line" smooth="yes"/>
      <point x="560" y="0"/>
      <point x="689" y="123"/>
      <point x="689" y="358" type="curve" smooth="yes"/>
      <point x="689" y="591"/>
      <point x="562" y="709"/>
      <point x="321" y="709" type="curve" smooth="yes"/>
    </contour>
    <contour>
      <point x="234" y="113" type="line"/>
      <point x="234" y="302" type="line"/>
      <point x="360" y="302" type="line"/>
      <point x="360" y="405" type="line"/>
      <point x="234" y="405" type="line"/>
      <point x="234" y="596" type="line"/>
      <point x="337" y="596" type="line" smooth="yes"/>
      <point x="465" y="596"/>
      <point x="532" y="518"/>
      <point x="532" y="356" type="curve" smooth="yes"/>
      <point x="532" y="193"/>
      <point x="464" y="113"/>
      <point x="337" y="113" type="curve" smooth="yes"/>
    </contour>
  </outline>
</glyph>
<glyph name="Otilde" format="1">
  <advance width="753"/>
  <unicode hex="00D5"/>
  <outline>
    <contour>
      <point x="223" y="927"/>
      <point x="174" y="873"/>
      <point x="174" y="785" type="curve"/>
      <point x="259" y="785" type="line"/>
      <point x="259" y="821"/>
      <point x="277" y="842"/>
      <point x="305" y="842" type="curve" smooth="yes"/>
      <point x="351" y="842"/>
      <point x="371" y="774"/>
      <point x="448" y="774" type="curve" smooth="yes"/>
      <point x="523" y="774"/>
      <point x="572" y="830"/>
      <point x="572" y="916" type="curve"/>
      <point x="488" y="916" type="line"/>
      <point x="488" y="882"/>
      <point x="472" y="860"/>
      <point x="447" y="860" type="curve" smooth="yes"/>
      <point x="391" y="860"/>
      <point x="383" y="927"/>
      <point x="301" y="927" type="curve" smooth="yes"/>
    </contour>
    <contour>
      <point x="156" y="719"/>
      <point x="37" y="590"/>
      <point x="37" y="358" type="curve" smooth="yes"/>
      <point x="37" y="120"/>
      <point x="154" y="-9"/>
      <point x="377" y="-9" type="curve" smooth="yes"/>
      <point x="599" y="-9"/>
      <point x="717" y="121"/>
      <point x="717" y="358" type="curve" smooth="yes"/>
      <point x="717" y="589"/>
      <point x="597" y="719"/>
      <point x="377" y="719" type="curve" smooth="yes"/>
    </contour>
    <contour>
      <point x="498" y="599"/>
      <point x="559" y="514"/>
      <point x="559" y="358" type="curve" smooth="yes"/>
      <point x="559" y="198"/>
      <point x="498" y="111"/>
      <point x="377" y="111" type="curve" smooth="yes"/>
      <point x="256" y="111"/>
      <point x="195" y="197"/>
      <point x="195" y="358" type="curve" smooth="yes"/>
      <point x="195" y="515"/>
      <point x="255" y="599"/>
      <point x="377" y="599" type="curve" smooth="yes"/>
    </contour>
  </outline>
</glyph>
<glyph name="idieresis" format="1">
  <advance width="295"/>
  <unicode hex="00EF"/>
  <outline>
    <contour>
      <point x="106" y="717" type="line"/>
      <point x="-16" y="717" type="line"/>
      <point x="-16" y="599" type="line"/>
      <point x="106" y="599" type="line"/>
    </contour>
    <contour>
      <point x="312" y="717" type="line"/>
      <point x="191" y="717" type="line"/>
      <point x="191" y="599" type="line"/>
      <point x="312" y="599" type="line"/>
    </contour>
    <contour>
      <point x="222" y="517" type="line"/>
      <point x="73" y="517" type="line"/>
      <point x="73" y="0" type="line"/>
      <point x="222" y="0" type="line"/>
    </contour>
  </outline>
</glyph>
<glyph name="ograve" format="1">
  <advance width="598"/>
  <unicode hex="00F2"/>
  <outline>
    <contour>
      <point x="343" y="620" type="line"/>
      <point x="187" y="781" type="line"/>
      <point x="122" y="695" type="line"/>
      <point x="302" y="570" type="line"/>
    </contour>
    <contour>
      <point x="127" y="536"/>
      <point x="32" y="439"/>
      <point x="32" y="263" type="curve" smooth="yes"/>
      <point x="32" y="87"/>
      <point x="128" y="-11"/>
      <point x="299" y="-11" type="curve" smooth="yes"/>
      <point x="470" y="-11"/>
      <point x="566" y="86"/>
      <point x="566" y="263" type="curve" smooth="yes"/>
      <point x="566" y="439"/>
      <point x="471" y="536"/>
      <point x="299" y="536" type="curve" smooth="yes"/>
    </contour>
    <contour>
      <point x="376" y="424"/>
      <point x="415" y="370"/>
      <point x="415" y="263" type="curve" smooth="yes"/>
      <point x="415" y="155"/>
      <point x="376" y="102"/>
      <point x="299" y="102" type="curve" smooth="yes"/>
      <point x="222" y="102"/>
      <point x="183" y="155"/>
      <point x="183" y="263" type="curve" smooth="yes"/>
      <point x="183" y="370"/>
      <point x="222" y="424"/>
      <point x="299" y="424" type="curve" smooth="yes"/>
    </contour>
  </outline>
</glyph>
<glyph name="divide" format="1">
  <advance width="572"/>
  <unicode hex="00F7"/>
  <outline>
    <contour>
      <point x="409" y="375" type="line"/>
      <point x="409" y="484" type="line"/>
      <point x="160" y="484" type="line"/>
      <point x="160" y="375" type="line"/>
    </contour>
    <contour>
      <point x="468" y="283" type="line"/>
      <point x="340" y="283" type="line"/>
      <point x="340" y="314" type="line"/>
      <point x="228" y="314" type="line"/>
      <point x="228" y="283" type="line"/>
      <point x="102" y="283" type="line"/>
      <point x="102" y="182" type="line"/>
      <point x="468" y="182" type="line"/>
    </contour>
  </outline>
</glyph>
<glyph name="yacute" format="1">
  <advance width="541"/>
  <unicode hex="00FD"/>
  <outline>
    <contour>
      <point x="254" y="570" type="line"/>
      <point x="434" y="695" type="line"/>
      <point x="369" y="781" type="line"/>
      <point x="213" y="620" type="line"/>
    </contour>
    <contour>
      <point x="540" y="524" type="line"/>
      <point x="396" y="524" type="line"/>
      <point x="339" y="365" type="line" smooth="yes"/>
      <point x="312" y="287"/>
      <point x="293" y="201"/>
      <point x="273" y="124" type="curve"/>
      <point x="252" y="201"/>
      <point x="230" y="290"/>
      <point x="204" y="363" type="curve" smooth="yes"/>
      <point x="145" y="524" type="line"/>
      <point x="2" y="524" type="line"/>
      <point x="200" y="3" type="line"/>
      <point x="116" y="-229" type="line"/>
      <point x="253" y="-229" type="line"/>
    </contour>
  </outline>
</glyph>
<glyph name="thorn" format="1">
  <advance width="627"/>
  <unicode hex="00FE"/>
  <outline>
    <contour>
      <point x="309" y="531"/>
      <point x="265" y="514"/>
      <point x="224" y="474" type="curve"/>
      <point x="224" y="752" type="line"/>
      <point x="74" y="752" type="line"/>
      <point x="74" y="-229" type="line"/>
      <point x="224" y="-229" type="line"/>
      <point x="224" y="3" type="line"/>
      <point x="258" y="-5"/>
      <point x="282" y="-8"/>
      <point x="312" y="-8" type="curve" smooth="yes"/>
      <point x="486" y="-8"/>
      <point x="595" y="97"/>
      <point x="595" y="272" type="curve" smooth="yes"/>
      <point x="595" y="438"/>
      <point x="509" y="531"/>
      <point x="365" y="531" type="curve" smooth="yes"/>
    </contour>
    <contour>
      <point x="276" y="94"/>
      <point x="264" y="95"/>
      <point x="224" y="105" type="curve"/>
      <point x="224" y="343" type="line"/>
      <point x="241" y="395"/>
      <point x="280" y="425"/>
      <point x="334" y="425" type="curve" smooth="yes"/>
      <point x="403" y="425"/>
      <point x="444" y="377"/>
      <point x="444" y="267" type="curve" smooth="yes"/>
      <point x="444" y="152"/>
      <point x="393" y="94"/>
      <point x="303" y="94" type="curve" smooth="yes"/>
    </contour>
  </outline>
</glyph>
<glyph name="aogonek" format="1">
  <advance width="558"/>
  <unicode hex="0105"/>
  <outline>
    <contour>
      <point x="275" y="-195"/>
      <point x="323" y="-225"/>
      <point x="378" y="-225" type="curve" smooth="yes"/>
      <point x="424" y="-225"/>
      <point x="457" y="-214"/>
      <point x="499" y="-192" type="curve"/>
      <point x="481" y="-141" type="line"/>
      <point x="466" y="-148"/>
      <point x="448" y="-152"/>
      <point x="433" y="-152" type="curve" smooth="yes"/>
      <point x="410" y="-152"/>
      <point x="392" y="-138"/>
      <point x="392" y="-109" type="curve" smooth="yes"/>
      <point x="392" y="-65"/>
      <point x="430" y="-27"/>
      <point x="500" y="0" type="curve"/>
      <point x="500" y="328" type="line" smooth="yes"/>
      <point x="500" y="460"/>
      <point x="419" y="531"/>
      <point x="272" y="531" type="curve" smooth="yes"/>
      <point x="205" y="531"/>
      <point x="127" y="516"/>
      <point x="56" y="487" type="curve"/>
      <point x="87" y="389" type="line"/>
      <point x="136" y="410"/>
      <point x="203" y="425"/>
      <point x="248" y="425" type="curve" smooth="yes"/>
      <point x="314" y="425"/>
      <point x="348" y="395"/>
      <point x="350" y="334" type="curve" smooth="yes"/>
      <point x="350" y="321" type="line"/>
      <point x="286" y="321" type="line" smooth="yes"/>
      <point x="121" y="321"/>
      <point x="25" y="256"/>
      <point x="25" y="145" type="curve" smooth="yes"/>
      <point x="25" y="50"/>
      <point x="93" y="-10"/>
      <point x="201" y="-10" type="curve" smooth="yes"/>
      <point x="261" y="-10"/>
      <point x="317" y="16"/>
      <point x="360" y="62" type="curve"/>
      <point x="369" y="52"/>
      <point x="373" y="40"/>
      <point x="373" y="29" type="curve" smooth="yes"/>
      <point x="373" y="5"/>
      <point x="348" y="-18"/>
      <point x="330" y="-32" type="curve" smooth="yes"/>
      <point x="297" y="-59"/>
      <point x="275" y="-95"/>
      <point x="275" y="-131" type="curve" smooth="yes"/>
    </contour>
    <contour>
      <point x="350" y="142" type="line"/>
      <point x="325" y="109"/>
      <point x="282" y="88"/>
      <point x="241" y="88" type="curve" smooth="yes"/>
      <point x="191" y="88"/>
      <point x="165" y="111"/>
      <point x="165" y="154" type="curve" smooth="yes"/>
      <point x="165" y="211"/>
      <point x="211" y="241"/>
      <point x="296" y="241" type="curve" smooth="yes"/>
      <point x="350" y="241" type="line"/>
    </contour>
  </outline>
</glyph>
<glyph name="Ccircumflex" format="1">
  <advance width="615"/>
  <unicode hex="0108"/>
  <outline>
    <contour>
      <point x="521" y="801" type="line"/>
      <point x="365" y="942" type="line"/>
      <point x="334" y="942" type="line"/>
      <point x="178" y="801" type="line"/>
      <point x="219" y="751" type="line"/>
      <point x="349" y="838" type="line"/>
      <point x="480" y="751" type="line"/>
    </contour>
    <contour>
      <point x="165" y="718"/>
      <point x="37" y="582"/>
      <point x="37" y="354" type="curve" smooth="yes"/>
      <point x="37" y="121"/>
      <point x="159" y="-8"/>
      <point x="380" y="-8" type="curve" smooth="yes"/>
      <point x="455" y="-8"/>
      <point x="526" y="8"/>
      <point x="600" y="41" type="curve"/>
      <point x="563" y="153" type="line"/>
      <point x="504" y="128"/>
      <point x="452" y="117"/>
      <point x="400" y="117" type="curve" smooth="yes"/>
      <point x="265" y="117"/>
      <point x="194" y="200"/>
      <point x="194" y="357" type="curve" smooth="yes"/>
      <point x="194" y="512"/>
      <point x="266" y="595"/>
      <point x="400" y="595" type="curve" smooth="yes"/>
      <point x="448" y="595"/>
      <point x="493" y="584"/>
      <point x="549" y="557" type="curve"/>
      <point x="594" y="663" type="line"/>
      <point x="535" y="698"/>
      <point x="457" y="718"/>
      <point x="382" y="718" type="curve" smooth="yes"/>
    </contour>
  </outline>
</glyph>
<glyph name="Dcaron" format="1">
  <advance width="724"/>
  <unicode hex="010E"/>
  <outline>
    <contour>
      <point x="522" y="899" type="line"/>
      <point x="481" y="949" type="line"/>
      <point x="350" y="862" type="line"/>
      <point x="220" y="949" type="line"/>
      <point x="179" y="899" type="line"/>
      <point x="335" y="758" type="line"/>
      <point x="366" y="758" type="line"/>
    </contour>
    <contour>
      <point x="81" y="709" type="line"/>
      <point x="81" y="0" type="line"/>
      <point x="319" y="0" type="line" smooth="yes"/>
      <point x="561" y="0"/>
      <point x="687" y="123"/>
      <point x="687" y="358" type="curve" smooth="yes"/>
      <point x="687" y="590"/>
      <point x="563" y="709"/>
      <point x="319" y="709" type="curve" smooth="yes"/>
    </contour>
    <contour>
      <point x="232" y="114" type="line"/>
      <point x="232" y="594" type="line"/>
      <point x="329" y="594" type="line" smooth="yes"/>
      <point x="462" y="594"/>
      <point x="530" y="514"/>
      <point x="530" y="356" type="curve" smooth="yes"/>
      <point x="530" y="196"/>
      <point x="461" y="114"/>
      <point x="329" y="114" type="curve" smooth="yes"/>
    </contour>
  </outline>
</glyph>
<glyph name="Ebreve" format="1">
  <advance width="587"/>
  <unicode hex="0114"/>
  <outline>
    <contour>
      <point x="392" y="902" type="line"/>
      <point x="392" y="863"/>
      <point x="363" y="836"/>
      <point x="319" y="836" type="curve" smooth="yes"/>
      <point x="274" y="836"/>
      <point x="247" y="861"/>
      <point x="247" y="902" type="curve"/>
      <point x="162" y="902" type="line"/>
      <point x="162" y="814"/>
      <point x="223" y="757"/>
      <point x="319" y="757" type="curve" smooth="yes"/>
      <point x="415" y="757"/>
      <point x="477" y="814"/>
      <point x="477" y="902" type="curve"/>
    </contour>
    <contour>
      <point x="543" y="709" type="line"/>
      <point x="81" y="709" type="line"/>
      <point x="81" y="0" type="line"/>
      <point x="553" y="0" type="line"/>
      <point x="553" y="113" type="line"/>
      <point x="234" y="113" type="line"/>
      <point x="234" y="310" type="line"/>
      <point x="513" y="310" type="line"/>
      <point x="513" y="421" type="line"/>
      <point x="234" y="421" type="line"/>
      <point x="234" y="596" type="line"/>
      <point x="543" y="596" type="line"/>
    </contour>
  </outline>
</glyph>
<glyph name="Edotaccent" format="1">
  <advance width="587"/>
  <unicode hex="0116"/>
  <outline>
    <contour>
      <point x="379" y="904" type="line"/>
      <point x="257" y="904" type="line"/>
      <point x="257" y="786" type="line"/>
      <point x="379" y="786" type="line"/>
    </contour>
    <contour>
      <point x="543" y="709" type="line"/>
      <point x="81" y="709" type="line"/>
      <point x="81" y="0" type="line"/>
      <point x="553" y="0" type="line"/>
      <point x="553" y="113" type="line"/>
      <point x="234" y="113" type="line"/>
      <point x="234" y="310" type="line"/>
      <point x="513" y="310" type="line"/>
      <point x="513" y="421" type="line"/>
      <point x="234" y="421" type="line"/>
      <point x="234" y="596" type="line"/>
      <point x="543" y="596" type="line"/>
    </contour>
  </outline>
</glyph>
<glyph name="Eogonek" format="1">
  <advance width="591"/>
  <unicode hex="0118"/>
  <outline>
    <contour>
      <point x="316" y="-195"/>
      <point x="363" y="-225"/>
      <point x="419" y="-225" type="curve" smooth="yes"/>
      <point x="464" y="-225"/>
      <point x="498" y="-214"/>
      <point x="539" y="-192" type="curve"/>
      <point x="521" y="-141" type="line"/>
      <point x="506" y="-148"/>
      <point x="489" y="-152"/>
      <point x="473" y="-152" type="curve" smooth="yes"/>
      <point x="450" y="-152"/>
      <point x="432" y="-139"/>
      <point x="432" y="-111" type="curve" smooth="yes"/>
      <point x="432" y="-66"/>
      <point x="471" y="-30"/>
      <point x="536" y="0" type="curve"/>
      <point x="554" y="0" type="line"/>
      <point x="554" y="113" type="line"/>
      <point x="235" y="113" type="line"/>
      <point x="235" y="310" type="line"/>
      <point x="515" y="310" type="line"/>
      <point x="515" y="421" type="line"/>
      <point x="235" y="421" type="line"/>
      <point x="235" y="596" type="line"/>
      <point x="545" y="596" type="line"/>
      <point x="545" y="709" type="line"/>
      <point x="82" y="709" type="line"/>
      <point x="82" y="0" type="line"/>
      <point x="414" y="0" type="line"/>
      <point x="360" y="-22"/>
      <point x="316" y="-77"/>
      <point x="316" y="-131" type="curve" smooth="yes"/>
    </contour>
  </outline>
</glyph>
<glyph name="Gcircumflex" format="1">
  <advance width="674"/>
  <unicode hex="011C"/>
  <outline>
    <contour>
      <point x="235" y="751" type="line"/>
      <point x="365" y="838" type="line"/>
      <point x="496" y="751" type="line"/>
      <point x="537" y="801" type="line"/>
      <point x="381" y="942" type="line"/>
      <point x="350" y="942" type="line"/>
      <point x="194" y="801" type="line"/>
    </contour>
    <contour>
      <point x="627" y="360" type="line"/>
      <point x="485" y="360" type="line"/>
      <point x="485" y="126" type="line"/>
      <point x="453" y="117"/>
      <point x="423" y="113"/>
      <point x="391" y="113" type="curve" smooth="yes"/>
      <point x="265" y="113"/>
      <point x="194" y="202"/>
      <point x="194" y="357" type="curve" smooth="yes"/>
      <point x="194" y="513"/>
      <point x="269" y="595"/>
      <point x="413" y="595" type="curve" smooth="yes"/>
      <point x="464" y="595"/>
      <point x="511" y="583"/>
      <point x="578" y="555" type="curve"/>
      <point x="623" y="663" type="line"/>
      <point x="559" y="698"/>
      <point x="475" y="718"/>
      <point x="395" y="718" type="curve" smooth="yes"/>
      <point x="167" y="718"/>
      <point x="37" y="586"/>
      <point x="37" y="354" type="curve" smooth="yes"/>
      <point x="37" y="123"/>
      <point x="163" y="-8"/>
      <point x="383" y="-8" type="curve" smooth="yes"/>
      <point x="464" y="-8"/>
      <point x="553" y="11"/>
      <point x="627" y="44" type="curve"/>
    </contour>
  </outline>
</glyph>
<glyph name="Hbar" format="1">
  <advance width="764"/>
  <unicode hex="0126"/>
  <outline>
    <contour>
      <point x="745" y="511" type="line"/>
      <point x="745" y="610" type="line"/>
      <point x="682" y="610" type="line"/>
      <point x="682" y="709" type="line"/>
      <point x="529" y="709" type="line"/>
      <point x="529" y="610" type="line"/>
      <point x="235" y="610" type="line"/>
      <point x="235" y="709" type="line"/>
      <point x="82" y="709" type="line"/>
      <point x="82" y="610" type="line"/>
      <point x="19" y="610" type="line"/>
      <point x="19" y="511" type="line"/>
      <point x="82" y="511" type="line"/>
      <point x="82" y="0" type="line"/>
      <point x="235" y="0" type="line"/>
      <point x="235" y="303" type="line"/>
      <point x="529" y="303" type="line"/>
      <point x="529" y="0" type="line"/>
      <point x="682" y="0" type="line"/>
      <point x="682" y="511" type="line"/>
    </contour>
    <contour>
      <point x="529" y="511" type="line"/>
      <point x="529" y="419" type="line"/>
      <point x="235" y="419" type="line"/>
      <point x="235" y="511" type="line"/>
    </contour>
  </outline>
</glyph>
<glyph name="Itilde" format="1">
  <advance width="314"/>
  <unicode hex="0128"/>
  <outline>
    <contour>
      <point x="36" y="925"/>
      <point x="-3" y="871"/>
      <point x="-3" y="785" type="curve"/>
      <point x="74" y="785" type="line"/>
      <point x="74" y="822"/>
      <point x="89" y="842"/>
      <point x="111" y="842" type="curve" smooth="yes"/>
      <point x="148" y="842"/>
      <point x="161" y="776"/>
      <point x="221" y="776" type="curve" smooth="yes"/>
      <point x="281" y="776"/>
      <point x="321" y="832"/>
      <point x="321" y="916" type="curve"/>
      <point x="244" y="916" type="line"/>
      <point x="244" y="881"/>
      <point x="232" y="860"/>
      <point x="212" y="860" type="curve" smooth="yes"/>
      <point x="167" y="860"/>
      <point x="163" y="925"/>
      <point x="101" y="925" type="curve" smooth="yes"/>
    </contour>
    <contour>
      <point x="234" y="709" type="line"/>
      <point x="81" y="709" type="line"/>
      <point x="81" y="0" type="line"/>
      <point x="234" y="0" type="line"/>
    </contour>
  </outline>
</glyph>
<glyph name="itilde" format="1">
  <advance width="295"/>
  <unicode hex="0129"/>
  <outline>
    <contour>
      <point x="26" y="741"/>
      <point x="-13" y="687"/>
      <point x="-13" y="601" type="curve"/>
      <point x="64" y="601" type="line"/>
      <point x="64" y="638"/>
      <point x="79" y="658"/>
      <point x="101" y="658" type="curve" smooth="yes"/>
      <point x="138" y="658"/>
      <point x="151" y="592"/>
      <point x="211" y="592" type="curve" smooth="yes"/>
      <point x="271" y="592"/>
      <point x="311" y="648"/>
      <point x="311" y="732" type="curve"/>
      <point x="234" y="732" type="line"/>
      <point x="234" y="697"/>
      <point x="222" y="676"/>
      <point x="202" y="676" type="curve" smooth="yes"/>
      <point x="157" y="676"/>
      <point x="153" y="741"/>
      <point x="91" y="741" type="curve" smooth="yes"/>
    </contour>
    <contour>
      <point x="222" y="517" type="line"/>
      <point x="73" y="517" type="line"/>
      <point x="73" y="0" type="line"/>
      <point x="222" y="0" type="line"/>
    </contour>
  </outline>
</glyph>
<glyph name="Ibreve" format="1">
  <advance width="314"/>
  <unicode hex="012C"/>
  <outline>
    <contour>
      <point x="232" y="902" type="line"/>
      <point x="232" y="863"/>
      <point x="203" y="836"/>
      <point x="159" y="836" type="curve" smooth="yes"/>
      <point x="114" y="836"/>
      <point x="87" y="861"/>
      <point x="87" y="902" type="curve"/>
      <point x="2" y="902" type="line"/>
      <point x="2" y="814"/>
      <point x="63" y="757"/>
      <point x="159" y="757" type="curve" smooth="yes"/>
      <point x="255" y="757"/>
      <point x="317" y="814"/>
      <point x="317" y="902" type="curve"/>
    </contour>
    <contour>
      <point x="234" y="709" type="line"/>
      <point x="81" y="709" type="line"/>
      <point x="81" y="0" type="line"/>
      <point x="234" y="0" type="line"/>
    </contour>
  </outline>
</glyph>
<glyph name="ibreve" format="1">
  <advance width="295"/>
  <unicode hex="012D"/>
  <outline>
    <contour>
      <point x="222" y="718" type="line"/>
      <point x="222" y="679"/>
      <point x="193" y="652"/>
      <point x="149" y="652" type="curve" smooth="yes"/>
      <point x="104" y="652"/>
      <point x="77" y="677"/>
      <point x="77" y="718" type="curve"/>
      <point x="-8" y="718" type="line"/>
      <point x="-8" y="630"/>
      <point x="53" y="573"/>
      <point x="149" y="573" type="curve" smooth="yes"/>
      <point x="245" y="573"/>
      <point x="307" y="630"/>
      <point x="307" y="718" type="curve"/>
    </contour>
    <contour>
      <point x="222" y="517" type="line"/>
      <point x="73" y="517" type="line"/>
      <point x="73" y="0" type="line"/>
      <point x="222" y="0" type="line"/>
    </contour>
  </outline>
</glyph>
<glyph name="IJ" format="1">
  <advance width="652"/>
  <unicode hex="0132"/>
  <outline>
    <contour>
      <point x="585" y="709" type="line"/>
      <point x="319" y="709" type="line"/>
      <point x="319" y="595" type="line"/>
      <point x="432" y="595" type="line"/>
      <point x="432" y="220" type="line" smooth="yes"/>
      <point x="432" y="146"/>
      <point x="397" y="111"/>
      <point x="323" y="111" type="curve" smooth="yes"/>
      <point x="248" y="111"/>
      <point x="214" y="146"/>
      <point x="214" y="220" type="curve" smooth="yes"/>
      <point x="214" y="502" type="line"/>
      <point x="61" y="502" type="line"/>
      <point x="61" y="222" type="line" smooth="yes"/>
      <point x="61" y="68"/>
      <point x="149" y="-10"/>
      <point x="323" y="-10" type="curve" smooth="yes"/>
      <point x="495" y="-10"/>
      <point x="585" y="70"/>
      <point x="585" y="222" type="curve" smooth="yes"/>
    </contour>
    <contour>
      <point x="214" y="588" type="line"/>
      <point x="214" y="709" type="line"/>
      <point x="61" y="709" type="line"/>
      <point x="61" y="588" type="line"/>
    </contour>
  </outline>
</glyph>
<glyph name="ij" format="1">
  <advance width="614"/>
  <unicode hex="0133"/>
  <outline>
    <contour>
      <point x="543" y="722" type="line"/>
      <point x="64" y="722" type="line"/>
      <point x="64" y="608" type="line"/>
      <point x="543" y="608" type="line"/>
    </contour>
    <contour>
      <point x="393" y="524" type="line"/>
      <point x="393" y="134" type="line"/>
      <point x="367" y="111"/>
      <point x="335" y="96"/>
      <point x="302" y="96" type="curve" smooth="yes"/>
      <point x="252" y="96"/>
      <point x="213" y="121"/>
      <point x="213" y="173" type="curve" smooth="yes"/>
      <point x="213" y="524" type="line"/>
      <point x="63" y="524" type="line"/>
      <point x="63" y="169" type="line" smooth="yes"/>
      <point x="63" y="50"/>
      <point x="134" y="-6"/>
      <point x="249" y="-6" type="curve" smooth="yes"/>
      <point x="299" y="-6"/>
      <point x="345" y="6"/>
      <point x="383" y="27" type="curve"/>
      <point x="369" y="-25"/>
      <point x="340" y="-80"/>
      <point x="291" y="-140" type="curve"/>
      <point x="367" y="-197" type="line"/>
      <point x="481" y="-108"/>
      <point x="543" y="-7"/>
      <point x="543" y="99" type="curve" smooth="yes"/>
      <point x="543" y="524" type="line"/>
    </contour>
  </outline>
</glyph>
<glyph name="uni013B" format="1">
  <advance width="532"/>
  <unicode hex="013B"/>
  <outline>
    <contour>
      <point x="227" y="709" type="line"/>
      <point x="81" y="709" type="line"/>
      <point x="81" y="0" type="line"/>
      <point x="525" y="0" type="line"/>
      <point x="525" y="116" type="line"/>
      <point x="227" y="116" type="line"/>
    </contour>
    <contour>
      <point x="269" y="-45" type="line"/>
      <point x="268" y="-107"/>
      <point x="259" y="-158"/>
      <point x="236" y="-220" type="curve"/>
      <point x="318" y="-220" type="line"/>
      <point x="362" y="-152"/>
      <point x="379" y="-109"/>
      <point x="387" y="-45" type="curve"/>
    </contour>
  </outline>
</glyph>
<glyph name="Lcaron" format="1">
  <advance width="531"/>
  <unicode hex="013D"/>
  <outline>
    <contour>
      <point x="538" y="1212" type="line"/>
      <point x="430" y="1228" type="line"/>
      <point x="428" y="1022" type="line"/>
      <point x="492" y="1015" type="line"/>
    </contour>
    <contour>
      <point x="227" y="709" type="line"/>
      <point x="81" y="709" type="line"/>
      <point x="81" y="0" type="line"/>
      <point x="525" y="0" type="line"/>
      <point x="525" y="116" type="line"/>
      <point x="227" y="116" type="line"/>
    </contour>
  </outline>
</glyph>
<glyph name="ldot" format="1">
  <advance width="399"/>
  <unicode hex="0140"/>
  <outline>
    <contour>
      <point x="224" y="752" type="line"/>
      <point x="74" y="752" type="line"/>
      <point x="74" y="0" type="line"/>
      <point x="224" y="0" type="line"/>
    </contour>
    <contour>
      <point x="407" y="448" type="line"/>
      <point x="286" y="448" type="line"/>
      <point x="286" y="329" type="line"/>
      <point x="407" y="329" type="line"/>
    </contour>
  </outline>
</glyph>
<glyph name="Nacute" format="1">
  <advance width="752"/>
  <unicode hex="0143"/>
  <outline>
    <contour>
      <point x="354" y="754" type="line"/>
      <point x="534" y="879" type="line"/>
      <point x="469" y="965" type="line"/>
      <point x="313" y="804" type="line"/>
    </contour>
    <contour>
      <point x="672" y="709" type="line"/>
      <point x="532" y="709" type="line"/>
      <point x="532" y="221" type="line"/>
      <point x="496" y="281"/>
      <point x="456" y="347"/>
      <point x="418" y="401" type="curve" smooth="yes"/>
      <point x="202" y="709" type="line"/>
      <point x="81" y="709" type="line"/>
      <point x="81" y="0" type="line"/>
      <point x="220" y="0" type="line"/>
      <point x="220" y="491" type="line"/>
      <point x="255" y="432"/>
      <point x="294" y="366"/>
      <point x="330" y="314" type="curve" smooth="yes"/>
      <point x="550" y="0" type="line"/>
      <point x="672" y="0" type="line"/>
    </contour>
  </outline>
</glyph>
<glyph name="uni0145" format="1">
  <advance width="752"/>
  <unicode hex="0145"/>
  <outline>
    <contour>
      <point x="672" y="709" type="line"/>
      <point x="532" y="709" type="line"/>
      <point x="532" y="221" type="line"/>
      <point x="496" y="281"/>
      <point x="456" y="347"/>
      <point x="418" y="401" type="curve" smooth="yes"/>
      <point x="202" y="709" type="line"/>
      <point x="81" y="709" type="line"/>
      <point x="81" y="0" type="line"/>
      <point x="220" y="0" type="line"/>
      <point x="220" y="491" type="line"/>
      <point x="255" y="432"/>
      <point x="294" y="366"/>
      <point x="330" y="314" type="curve" smooth="yes"/>
      <point x="550" y="0" type="line"/>
      <point x="672" y="0" type="line"/>
    </contour>
    <contour>
      <point x="380" y="-220" type="line"/>
      <point x="424" y="-152"/>
      <point x="441" y="-109"/>
      <point x="449" y="-45" type="curve"/>
      <point x="331" y="-45" type="line"/>
      <point x="330" y="-107"/>
      <point x="321" y="-158"/>
      <point x="298" y="-220" type="curve"/>
    </contour>
  </outline>
</glyph>
<glyph name="eng" format="1">
  <advance width="625"/>
  <unicode hex="014B"/>
  <outline>
    <contour>
      <point x="319" y="532"/>
      <point x="258" y="505"/>
      <point x="212" y="451" type="curve"/>
      <point x="196" y="524" type="line"/>
      <point x="71" y="524" type="line"/>
      <point x="71" y="0" type="line"/>
      <point x="221" y="0" type="line"/>
      <point x="221" y="366" type="line"/>
      <point x="246" y="404"/>
      <point x="291" y="427"/>
      <point x="339" y="427" type="curve" smooth="yes"/>
      <point x="392" y="427"/>
      <point x="415" y="401"/>
      <point x="415" y="340" type="curve" smooth="yes"/>
      <point x="415" y="99" type="line" smooth="yes"/>
      <point x="415" y="24"/>
      <point x="383" y="-52"/>
      <point x="312" y="-140" type="curve"/>
      <point x="388" y="-197" type="line"/>
      <point x="503" y="-108"/>
      <point x="565" y="-7"/>
      <point x="565" y="99" type="curve" smooth="yes"/>
      <point x="565" y="348" type="line" smooth="yes"/>
      <point x="565" y="466"/>
      <point x="503" y="532"/>
      <point x="394" y="532" type="curve" smooth="yes"/>
    </contour>
  </outline>
</glyph>
<glyph name="Omacron" format="1">
  <advance width="753"/>
  <unicode hex="014C"/>
  <outline>
    <contour>
      <point x="541" y="886" type="line"/>
      <point x="211" y="886" type="line"/>
      <point x="211" y="793" type="line"/>
      <point x="541" y="793" type="line"/>
    </contour>
    <contour>
      <point x="156" y="719"/>
      <point x="37" y="590"/>
      <point x="37" y="358" type="curve" smooth="yes"/>
      <point x="37" y="120"/>
      <point x="154" y="-9"/>
      <point x="377" y="-9" type="curve" smooth="yes"/>
      <point x="599" y="-9"/>
      <point x="717" y="121"/>
      <point x="717" y="358" type="curve" smooth="yes"/>
      <point x="717" y="589"/>
      <point x="597" y="719"/>
      <point x="377" y="719" type="curve" smooth="yes"/>
    </contour>
    <contour>
      <point x="498" y="599"/>
      <point x="559" y="514"/>
      <point x="559" y="358" type="curve" smooth="yes"/>
      <point x="559" y="198"/>
      <point x="498" y="111"/>
      <point x="377" y="111" type="curve" smooth="yes"/>
      <point x="256" y="111"/>
      <point x="195" y="197"/>
      <point x="195" y="358" type="curve" smooth="yes"/>
      <point x="195" y="515"/>
      <point x="255" y="599"/>
      <point x="377" y="599" type="curve" smooth="yes"/>
    </contour>
  </outline>
</glyph>
<glyph name="oe" format="1">
  <advance width="950"/>
  <unicode hex="0153"/>
  <outline>
    <contour>
      <point x="918" y="232" type="line"/>
      <point x="918" y="268" type="line" smooth="yes"/>
      <point x="918" y="445"/>
      <point x="838" y="534"/>
      <point x="681" y="534" type="curve" smooth="yes"/>
      <point x="596" y="534"/>
      <point x="530" y="505"/>
      <point x="487" y="453" type="curve"/>
      <point x="446" y="505"/>
      <point x="382" y="532"/>
      <point x="298" y="532" type="curve" smooth="yes"/>
      <point x="127" y="532"/>
      <point x="32" y="435"/>
      <point x="32" y="263" type="curve" smooth="yes"/>
      <point x="32" y="90"/>
      <point x="128" y="-9"/>
      <point x="298" y="-9" type="curve" smooth="yes"/>
      <point x="382" y="-9"/>
      <point x="446" y="19"/>
      <point x="488" y="73" type="curve"/>
      <point x="532" y="20"/>
      <point x="599" y="-9"/>
      <point x="683" y="-9" type="curve" smooth="yes"/>
      <point x="755" y="-9"/>
      <point x="824" y="10"/>
      <point x="892" y="45" type="curve"/>
      <point x="855" y="134" type="line"/>
      <point x="800" y="111"/>
      <point x="751" y="100"/>
      <point x="700" y="100" type="curve" smooth="yes"/>
      <point x="621" y="100"/>
      <point x="571" y="140"/>
      <point x="562" y="232" type="curve"/>
    </contour>
    <contour>
      <point x="566" y="320" type="line"/>
      <point x="579" y="391"/>
      <point x="617" y="427"/>
      <point x="681" y="427" type="curve" smooth="yes"/>
      <point x="739" y="427"/>
      <point x="769" y="394"/>
      <point x="776" y="320" type="curve"/>
    </contour>
    <contour>
      <point x="222" y="102"/>
      <point x="183" y="153"/>
      <point x="183" y="263" type="curve" smooth="yes"/>
      <point x="183" y="373"/>
      <point x="221" y="424"/>
      <point x="298" y="424" type="curve" smooth="yes"/>
      <point x="376" y="424"/>
      <point x="414" y="373"/>
      <point x="414" y="263" type="curve" smooth="yes"/>
      <point x="414" y="152"/>
      <point x="375" y="102"/>
      <point x="298" y="102" type="curve" smooth="yes"/>
    </contour>
  </outline>
</glyph>
<glyph name="uni0157" format="1">
  <advance width="415"/>
  <unicode hex="0157"/>
  <outline>
    <contour>
      <point x="190" y="524" type="line"/>
      <point x="71" y="524" type="line"/>
      <point x="71" y="0" type="line"/>
      <point x="221" y="0" type="line"/>
      <point x="221" y="354" type="line"/>
      <point x="244" y="390"/>
      <point x="275" y="406"/>
      <point x="322" y="406" type="curve" smooth="yes"/>
      <point x="342" y="406"/>
      <point x="368" y="401"/>
      <point x="396" y="391" type="curve"/>
      <point x="413" y="522" type="line"/>
      <point x="385" y="530"/>
      <point x="372" y="532"/>
      <point x="346" y="532" type="curve" smooth="yes"/>
      <point x="285" y="532"/>
      <point x="240" y="504"/>
      <point x="208" y="451" type="curve"/>
    </contour>
    <contour>
      <point x="148" y="-45" type="line"/>
      <point x="147" y="-107"/>
      <point x="138" y="-158"/>
      <point x="115" y="-220" type="curve"/>
      <point x="197" y="-220" type="line"/>
      <point x="241" y="-152"/>
      <point x="258" y="-109"/>
      <point x="266" y="-45" type="curve"/>
    </contour>
  </outline>
</glyph>
<glyph name="uni0162" format="1">
  <advance width="558"/>
  <unicode hex="0162"/>
  <outline>
    <contour>
      <point x="317" y="0" type="line"/>
      <point x="359" y="0" type="line"/>
      <point x="359" y="593" type="line"/>
      <point x="551" y="593" type="line"/>
      <point x="551" y="709" type="line"/>
      <point x="7" y="709" type="line"/>
      <point x="7" y="593" type="line"/>
      <point x="206" y="593" type="line"/>
      <point x="206" y="0" type="line"/>
      <point x="269" y="0" type="line"/>
      <point x="227" y="-56" type="line"/>
      <point x="237" y="-82" type="line"/>
      <point x="277" y="-91"/>
      <point x="294" y="-104"/>
      <point x="294" y="-124" type="curve" smooth="yes"/>
      <point x="294" y="-144"/>
      <point x="280" y="-154"/>
      <point x="259" y="-154" type="curve" smooth="yes"/>
      <point x="241" y="-154"/>
      <point x="221" y="-148"/>
      <point x="210" y="-142" type="curve"/>
      <point x="188" y="-189" type="line"/>
      <point x="212" y="-203"/>
      <point x="247" y="-216"/>
      <point x="283" y="-216" type="curve" smooth="yes"/>
      <point x="333" y="-216"/>
      <point x="376" y="-187"/>
      <point x="376" y="-128" type="curve" smooth="yes"/>
      <point x="376" y="-94"/>
      <point x="344" y="-58"/>
      <point x="302" y="-45" type="curve"/>
    </contour>
  </outline>
</glyph>
<glyph name="ubreve" format="1">
  <advance width="628"/>
  <unicode hex="016D"/>
  <outline>
    <contour>
      <point x="384" y="718" type="line"/>
      <point x="384" y="679"/>
      <point x="355" y="652"/>
      <point x="311" y="652" type="curve" smooth="yes"/>
      <point x="266" y="652"/>
      <point x="239" y="677"/>
      <point x="239" y="718" type="curve"/>
      <point x="154" y="718" type="line"/>
      <point x="154" y="630"/>
      <point x="215" y="573"/>
      <point x="311" y="573" type="curve" smooth="yes"/>
      <point x="407" y="573"/>
      <point x="469" y="630"/>
      <point x="469" y="718" type="curve"/>
    </contour>
    <contour>
      <point x="62" y="176" type="line" smooth="yes"/>
      <point x="62" y="58"/>
      <point x="124" y="-8"/>
      <point x="237" y="-8" type="curve" smooth="yes"/>
      <point x="309" y="-8"/>
      <point x="370" y="20"/>
      <point x="414" y="73" type="curve"/>
      <point x="431" y="0" type="line"/>
      <point x="555" y="0" type="line"/>
      <point x="555" y="524" type="line"/>
      <point x="405" y="524" type="line"/>
      <point x="405" y="158" type="line"/>
      <point x="379" y="120"/>
      <point x="334" y="98"/>
      <point x="288" y="98" type="curve" smooth="yes"/>
      <point x="235" y="98"/>
      <point x="212" y="124"/>
      <point x="212" y="184" type="curve" smooth="yes"/>
      <point x="212" y="524" type="line"/>
      <point x="62" y="524" type="line"/>
    </contour>
  </outline>
</glyph>
<glyph name="uogonek" format="1">
  <advance width="628"/>
  <unicode hex="0173"/>
  <outline>
    <contour>
      <point x="331" y="-195"/>
      <point x="378" y="-225"/>
      <point x="434" y="-225" type="curve" smooth="yes"/>
      <point x="479" y="-225"/>
      <point x="513" y="-214"/>
      <point x="554" y="-192" type="curve"/>
      <point x="536" y="-141" type="line"/>
      <point x="521" y="-148"/>
      <point x="504" y="-152"/>
      <point x="488" y="-152" type="curve" smooth="yes"/>
      <point x="465" y="-152"/>
      <point x="447" y="-138"/>
      <point x="447" y="-109" type="curve" smooth="yes"/>
      <point x="447" y="-65"/>
      <point x="486" y="-27"/>
      <point x="555" y="0" type="curve"/>
      <point x="555" y="524" type="line"/>
      <point x="405" y="524" type="line"/>
      <point x="405" y="158" type="line"/>
      <point x="379" y="120"/>
      <point x="334" y="98"/>
      <point x="288" y="98" type="curve" smooth="yes"/>
      <point x="235" y="98"/>
      <point x="212" y="124"/>
      <point x="212" y="184" type="curve" smooth="yes"/>
      <point x="212" y="524" type="line"/>
      <point x="62" y="524" type="line"/>
      <point x="62" y="176" type="line" smooth="yes"/>
      <point x="62" y="58"/>
      <point x="124" y="-8"/>
      <point x="237" y="-8" type="curve" smooth="yes"/>
      <point x="309" y="-8"/>
      <point x="370" y="19"/>
      <point x="414" y="72" type="curve"/>
      <point x="423" y="59"/>
      <point x="428" y="44"/>
      <point x="428" y="31" type="curve" smooth="yes"/>
      <point x="428" y="6"/>
      <point x="406" y="-15"/>
      <point x="385" y="-32" type="curve" smooth="yes"/>
      <point x="352" y="-60"/>
      <point x="331" y="-95"/>
      <point x="331" y="-131" type="curve" smooth="yes"/>
    </contour>
  </outline>
</glyph>
<glyph name="Wcircumflex" format="1">
  <advance width="1016"/>
  <unicode hex="0174"/>
  <outline>
    <contour>
      <point x="682" y="801" type="line"/>
      <point x="526" y="942" type="line"/>
      <point x="495" y="942" type="line"/>
      <point x="339" y="801" type="line"/>
      <point x="380" y="751" type="line"/>
      <point x="510" y="838" type="line"/>
      <point x="641" y="751" type="line"/>
    </contour>
    <contour>
      <point x="831" y="0" type="line"/>
      <point x="1003" y="709" type="line"/>
      <point x="851" y="709" type="line"/>
      <point x="775" y="376" type="line" smooth="yes"/>
      <point x="757" y="296"/>
      <point x="738" y="221"/>
      <point x="720" y="141" type="curve"/>
      <point x="702" y="221"/>
      <point x="684" y="297"/>
      <point x="666" y="376" type="curve" smooth="yes"/>
      <point x="589" y="709" type="line"/>
      <point x="427" y="709" type="line"/>
      <point x="350" y="376" type="line" smooth="yes"/>
      <point x="332" y="297"/>
      <point x="314" y="221"/>
      <point x="296" y="141" type="curve"/>
      <point x="278" y="221"/>
      <point x="259" y="296"/>
      <point x="241" y="376" type="curve" smooth="yes"/>
      <point x="165" y="709" type="line"/>
      <point x="13" y="709" type="line"/>
      <point x="185" y="0" type="line"/>
      <point x="387" y="0" type="line"/>
      <point x="473" y="371" type="line" smooth="yes"/>
      <point x="485" y="424"/>
      <point x="496" y="491"/>
      <point x="508" y="553" type="curve"/>
      <point x="520" y="491"/>
      <point x="531" y="424"/>
      <point x="543" y="371" type="curve" smooth="yes"/>
      <point x="629" y="0" type="line"/>
    </contour>
  </outline>
</glyph>
<glyph name="zacute" format="1">
  <advance width="473"/>
  <unicode hex="017A"/>
  <outline>
    <contour>
      <point x="334" y="781" type="line"/>
      <point x="178" y="620" type="line"/>
      <point x="219" y="570" type="line"/>
      <point x="399" y="695" type="line"/>
    </contour>
    <contour>
      <point x="271" y="413" type="line"/>
      <point x="28" y="93" type="line"/>
      <point x="28" y="0" type="line"/>
      <point x="447" y="0" type="line"/>
      <point x="447" y="111" type="line"/>
      <point x="195" y="111" type="line"/>
      <point x="438" y="434" type="line"/>
      <point x="438" y="524" type="line"/>
      <point x="39" y="524" type="line"/>
      <point x="39" y="413" type="line"/>
    </contour>
  </outline>
</glyph>
<glyph name="Schwa" format="1">
  <advance width="696"/>
  <unicode hex="018F"/>
  <outline>
    <contour>
      <point x="235" y="711"/>
      <point x="136" y="682"/>
      <point x="52" y="639" type="curve"/>
      <point x="95" y="535" type="line"/>
      <point x="164" y="562"/>
      <point x="248" y="588"/>
      <point x="320" y="588" type="curve" smooth="yes"/>
      <point x="424" y="588"/>
      <point x="500" y="532"/>
      <point x="511" y="393" type="curve"/>
      <point x="34" y="393" type="line"/>
      <point x="34" y="357" type="line" smooth="yes"/>
      <point x="34" y="121"/>
      <point x="144" y="-9"/>
      <point x="343" y="-9" type="curve" smooth="yes"/>
      <point x="544" y="-9"/>
      <point x="660" y="125"/>
      <point x="660" y="357" type="curve" smooth="yes"/>
      <point x="660" y="598"/>
      <point x="512" y="711"/>
      <point x="333" y="711" type="curve" smooth="yes"/>
    </contour>
    <contour>
      <point x="250" y="111"/>
      <point x="193" y="166"/>
      <point x="179" y="268" type="curve"/>
      <point x="505" y="268" type="line"/>
      <point x="487" y="163"/>
      <point x="432" y="111"/>
      <point x="341" y="111" type="curve" smooth="yes"/>
    </contour>
  </outline>
</glyph>
<glyph name="gcaron" format="1">
  <advance width="549"/>
  <unicode hex="01E7"/>
  <outline>
    <contour>
      <point x="263" y="574" type="line"/>
      <point x="294" y="574" type="line"/>
      <point x="450" y="715" type="line"/>
      <point x="409" y="765" type="line"/>
      <point x="278" y="678" type="line"/>
      <point x="148" y="765" type="line"/>
      <point x="107" y="715" type="line"/>
    </contour>
    <contour>
      <point x="244" y="109" type="line" smooth="yes"/>
      <point x="212" y="109"/>
      <point x="195" y="118"/>
      <point x="195" y="140" type="curve" smooth="yes"/>
      <point x="195" y="154"/>
      <point x="206" y="166"/>
      <point x="229" y="178" type="curve"/>
      <point x="241" y="177"/>
      <point x="254" y="176"/>
      <point x="268" y="176" type="curve" smooth="yes"/>
      <point x="416" y="176"/>
      <point x="500" y="238"/>
      <point x="500" y="355" type="curve" smooth="yes"/>
      <point x="500" y="399"/>
      <point x="487" y="435"/>
      <point x="463" y="464" type="curve"/>
      <point x="522" y="553" type="line"/>
      <point x="475" y="594" type="line"/>
      <point x="375" y="519" type="line"/>
      <point x="344" y="528"/>
      <point x="309" y="533"/>
      <point x="268" y="533" type="curve" smooth="yes"/>
      <point x="121" y="533"/>
      <point x="37" y="467"/>
      <point x="37" y="355" type="curve" smooth="yes"/>
      <point x="37" y="278"/>
      <point x="74" y="224"/>
      <point x="141" y="197" type="curve"/>
      <point x="98" y="171"/>
      <point x="73" y="135"/>
      <point x="73" y="95" type="curve" smooth="yes"/>
      <point x="73" y="34"/>
      <point x="118" y="2"/>
      <point x="206" y="2" type="curve" smooth="yes"/>
      <point x="297" y="2" type="line" smooth="yes"/>
      <point x="363" y="2"/>
      <point x="390" y="-17"/>
      <point x="390" y="-63" type="curve" smooth="yes"/>
      <point x="390" y="-112"/>
      <point x="352" y="-131"/>
      <point x="266" y="-131" type="curve" smooth="yes"/>
      <point x="187" y="-131"/>
      <point x="158" y="-109"/>
      <point x="158" y="-66" type="curve" smooth="yes"/>
      <point x="158" y="-54"/>
      <point x="161" y="-41"/>
      <point x="164" y="-30" type="curve"/>
      <point x="110" y="-24"/>
      <point x="67" y="-15"/>
      <point x="42" y="-4" type="curve"/>
      <point x="34" y="-28"/>
      <point x="29" y="-58"/>
      <point x="29" y="-81" type="curve" smooth="yes"/>
      <point x="29" y="-173"/>
      <point x="111" y="-231"/>
      <point x="268" y="-231" type="curve" smooth="yes"/>
      <point x="431" y="-231"/>
      <point x="529" y="-168"/>
      <point x="529" y="-56" type="curve" smooth="yes"/>
      <point x="529" y="49"/>
      <point x="458" y="109"/>
      <point x="332" y="109" type="curve" smooth="yes"/>
    </contour>
    <contour>
      <point x="325" y="435"/>
      <point x="358" y="405"/>
      <point x="358" y="355" type="curve" smooth="yes"/>
      <point x="358" y="301"/>
      <point x="325" y="273"/>
      <point x="268" y="273" type="curve" smooth="yes"/>
      <point x="212" y="273"/>
      <point x="178" y="300"/>
      <point x="178" y="355" type="curve" smooth="yes"/>
      <point x="178" y="405"/>
      <point x="212" y="435"/>
      <point x="268" y="435" type="curve" smooth="yes"/>
    </contour>
  </outline>
</glyph>
<glyph name="Oogonek" format="1">
  <advance width="750"/>
  <unicode hex="01EA"/>
  <outline>
    <contour>
      <point x="270" y="-192"/>
      <point x="317" y="-222"/>
      <point x="373" y="-222" type="curve" smooth="yes"/>
      <point x="418" y="-222"/>
      <point x="452" y="-210"/>
      <point x="493" y="-189" type="curve"/>
      <point x="475" y="-138" type="line"/>
      <point x="460" y="-144"/>
      <point x="443" y="-149"/>
      <point x="427" y="-149" type="curve" smooth="yes"/>
      <point x="404" y="-149"/>
      <point x="386" y="-134"/>
      <point x="386" y="-104" type="curve" smooth="yes"/>
      <point x="386" y="-74"/>
      <point x="404" y="-47"/>
      <point x="440" y="-24" type="curve" smooth="yes"/>
      <point x="483" y="4"/>
      <point x="529" y="12"/>
      <point x="575" y="41" type="curve" smooth="yes"/>
      <point x="666" y="99"/>
      <point x="715" y="207"/>
      <point x="715" y="357" type="curve" smooth="yes"/>
      <point x="715" y="588"/>
      <point x="596" y="718"/>
      <point x="376" y="718" type="curve" smooth="yes"/>
      <point x="155" y="718"/>
      <point x="36" y="588"/>
      <point x="36" y="357" type="curve" smooth="yes"/>
      <point x="36" y="132"/>
      <point x="143" y="4"/>
      <point x="343" y="-8" type="curve"/>
      <point x="350" y="-8" type="line"/>
      <point x="350" y="-10" type="line"/>
      <point x="303" y="-32"/>
      <point x="270" y="-79"/>
      <point x="270" y="-127" type="curve" smooth="yes"/>
    </contour>
    <contour>
      <point x="557" y="198"/>
      <point x="496" y="111"/>
      <point x="375" y="111" type="curve" smooth="yes"/>
      <point x="254" y="111"/>
      <point x="193" y="197"/>
      <point x="193" y="357" type="curve" smooth="yes"/>
      <point x="193" y="515"/>
      <point x="254" y="599"/>
      <point x="375" y="599" type="curve" smooth="yes"/>
      <point x="496" y="599"/>
      <point x="557" y="514"/>
      <point x="557" y="357" type="curve" smooth="yes"/>
    </contour>
  </outline>
</glyph>
<glyph name="oogonek" format="1">
  <advance width="602"/>
  <unicode hex="01EB"/>
  <outline>
    <contour>
      <point x="127" y="532"/>
      <point x="32" y="435"/>
      <point x="32" y="263" type="curve" smooth="yes"/>
      <point x="32" y="102"/>
      <point x="117" y="6"/>
      <point x="260" y="-5" type="curve"/>
      <point x="265" y="-6" type="line"/>
      <point x="266" y="-11" type="line"/>
      <point x="223" y="-31"/>
      <point x="185" y="-81"/>
      <point x="185" y="-131" type="curve" smooth="yes"/>
      <point x="185" y="-195"/>
      <point x="232" y="-225"/>
      <point x="288" y="-225" type="curve" smooth="yes"/>
      <point x="333" y="-225"/>
      <point x="367" y="-214"/>
      <point x="408" y="-192" type="curve"/>
      <point x="390" y="-141" type="line"/>
      <point x="375" y="-148"/>
      <point x="358" y="-152"/>
      <point x="342" y="-152" type="curve" smooth="yes"/>
      <point x="319" y="-152"/>
      <point x="301" y="-138"/>
      <point x="301" y="-109" type="curve" smooth="yes"/>
      <point x="301" y="-81"/>
      <point x="317" y="-56"/>
      <point x="349" y="-30" type="curve" smooth="yes"/>
      <point x="376" y="-7"/>
      <point x="413" y="6"/>
      <point x="450" y="28" type="curve" smooth="yes"/>
      <point x="525" y="72"/>
      <point x="565" y="151"/>
      <point x="565" y="263" type="curve" smooth="yes"/>
      <point x="565" y="435"/>
      <point x="470" y="532"/>
      <point x="298" y="532" type="curve" smooth="yes"/>
    </contour>
    <contour>
      <point x="376" y="424"/>
      <point x="414" y="373"/>
      <point x="414" y="263" type="curve" smooth="yes"/>
      <point x="414" y="152"/>
      <point x="375" y="102"/>
      <point x="298" y="102" type="curve" smooth="yes"/>
      <point x="222" y="102"/>
      <point x="183" y="153"/>
      <point x="183" y="263" type="curve" smooth="yes"/>
      <point x="183" y="373"/>
      <point x="221" y="424"/>
      <point x="298" y="424" type="curve" smooth="yes"/>
    </contour>
  </outline>
</glyph>
<glyph name="schwa" format="1">
  <advance width="564"/>
  <unicode hex="0259"/>
  <outline>
    <contour>
      <point x="195" y="533"/>
      <point x="123" y="515"/>
      <point x="45" y="477" type="curve"/>
      <point x="81" y="388" type="line"/>
      <point x="149" y="414"/>
      <point x="198" y="426"/>
      <point x="248" y="426" type="curve" smooth="yes"/>
      <point x="333" y="426"/>
      <point x="378" y="380"/>
      <point x="386" y="291" type="curve"/>
      <point x="32" y="291" type="line"/>
      <point x="32" y="257" type="line" smooth="yes"/>
      <point x="32" y="81"/>
      <point x="111" y="-8"/>
      <point x="267" y="-8" type="curve" smooth="yes"/>
      <point x="433" y="-8"/>
      <point x="532" y="93"/>
      <point x="532" y="262" type="curve" smooth="yes"/>
      <point x="532" y="431"/>
      <point x="431" y="533"/>
      <point x="265" y="533" type="curve" smooth="yes"/>
    </contour>
    <contour>
      <point x="207" y="96"/>
      <point x="175" y="131"/>
      <point x="170" y="205" type="curve"/>
      <point x="383" y="205" type="line"/>
      <point x="371" y="132"/>
      <point x="333" y="96"/>
      <point x="267" y="96" type="curve" smooth="yes"/>
    </contour>
  </outline>
</glyph>
<glyph name="commaaccent" format="1">
  <advance width="0"/>
  <unicode hex="0326"/>
  <outline>
    <contour>
      <point x="69" y="-45" type="line"/>
      <point x="68" y="-107"/>
      <point x="59" y="-158"/>
      <point x="36" y="-220" type="curve"/>
      <point x="118" y="-220" type="line"/>
      <point x="162" y="-152"/>
      <point x="179" y="-109"/>
      <point x="187" y="-45" type="curve"/>
    </contour>
    <contour>
      <point x="120" y="0" type="move" name="_class0"/>
    </contour>
    <contour>
      <point x="93" y="0" type="move" name="_class1"/>
    </contour>
  </outline>
</glyph>
<glyph name="Delta" format="1">
  <advance width="704"/>
  <unicode hex="0394"/>
  <outline>
    <contour>
      <point x="434" y="709" type="line"/>
      <point x="263" y="709" type="line"/>
      <point x="7" y="0" type="line"/>
      <point x="697" y="0" type="line"/>
    </contour>
    <contour>
      <point x="350" y="572" type="line"/>
      <point x="521" y="113" type="line"/>
      <point x="184" y="113" type="line"/>
    </contour>
  </outline>
</glyph>
<glyph name="pi" format="1">
  <advance width="673"/>
  <unicode hex="03C0"/>
  <outline>
    <contour>
      <point x="378" y="157" type="line" smooth="yes"/>
      <point x="378" y="47"/>
      <point x="434" y="-8"/>
      <point x="547" y="-8" type="curve" smooth="yes"/>
      <point x="582" y="-8"/>
      <point x="617" y="-2"/>
      <point x="652" y="11" type="curve"/>
      <point x="628" y="109" type="line"/>
      <point x="614" y="106"/>
      <point x="600" y="104"/>
      <point x="587" y="104" type="curve" smooth="yes"/>
      <point x="539" y="104"/>
      <point x="520" y="125"/>
      <point x="520" y="178" type="curve" smooth="yes"/>
      <point x="520" y="425" type="line"/>
      <point x="632" y="425" type="line"/>
      <point x="632" y="524" type="line"/>
      <point x="4" y="524" type="line"/>
      <point x="4" y="425" type="line"/>
      <point x="105" y="425" type="line"/>
      <point x="105" y="0" type="line"/>
      <point x="246" y="0" type="line"/>
      <point x="246" y="425" type="line"/>
      <point x="378" y="425" type="line"/>
    </contour>
  </outline>
</glyph>
<glyph name="candrabindudeva" format="1">
  <advance width="453"/>
  <unicode hex="0901"/>
  <outline>
    <component base="ecandravowelsigndeva" xOffset="17"/>
    <component base="nuktadeva" xOffset="105" yOffset="1074"/>
    <contour>
      <point x="227" y="685" type="move" name="_top"/>
    </contour>
  </outline>
</glyph>
<glyph name="anusvaradeva" format="1">
  <advance width="252"/>
  <unicode hex="0902"/>
  <outline>
    <component base="nuktadeva" yOffset="869"/>
    <contour>
      <point x="126" y="524" type="move" name="_top"/>
    </contour>
  </outline>
</glyph>
<glyph name="uni0904" format="1">
  <advance width="600"/>
  <unicode hex="0904"/>
  <outline>
    <contour>
      <point x="300" y="685" type="move" name="top"/>
    </contour>
    <contour>
      <point x="300" y="0" type="move" name="bottom"/>
    </contour>
  </outline>
</glyph>
<glyph name="adeva" format="1">
  <advance width="837"/>
  <unicode hex="0905"/>
  <outline>
    <component base="a_compo" xOffset="-1"/>
    <component base="uni093E" xOffset="492"/>
    <contour>
      <point x="654" y="685" type="move" name="top"/>
    </contour>
    <contour>
      <point x="654" y="0" type="move" name="bottom"/>
    </contour>
  </outline>
</glyph>
<glyph name="aadeva" format="1">
  <advance width="1110"/>
  <unicode hex="0906"/>
  <outline>
    <component base="adeva" xOffset="-1"/>
    <component base="uni093E" xOffset="776"/>
    <contour>
      <point x="299" y="685" type="move" name="top"/>
    </contour>
    <contour>
      <point x="299" y="0" type="move" name="bottom"/>
    </contour>
  </outline>
</glyph>
<glyph name="ideva" format="1">
  <advance width="580"/>
  <unicode hex="0907"/>
  <outline>
    <contour>
      <point x="208" y="518" type="line"/>
      <point x="117" y="518"/>
      <point x="61" y="474"/>
      <point x="61" y="404" type="curve"/>
      <point x="61" y="299"/>
      <point x="129" y="224"/>
      <point x="224" y="224" type="curve" smooth="yes"/>
      <point x="258" y="224"/>
      <point x="337" y="245"/>
      <point x="352" y="245" type="curve" smooth="yes"/>
      <point x="375" y="245"/>
      <point x="396" y="232"/>
      <point x="396" y="202" type="curve"/>
      <point x="396" y="120"/>
      <point x="313" y="118"/>
      <point x="246" y="118" type="curve"/>
      <point x="250" y="8" type="line"/>
      <point x="369" y="8"/>
      <point x="531" y="32"/>
      <point x="531" y="214" type="curve"/>
      <point x="531" y="303"/>
      <point x="479" y="355"/>
      <point x="392" y="355" type="curve" smooth="yes"/>
      <point x="367" y="355"/>
      <point x="256" y="334"/>
      <point x="239" y="334" type="curve" smooth="yes"/>
      <point x="215" y="334"/>
      <point x="196" y="347"/>
      <point x="196" y="386" type="curve"/>
      <point x="196" y="402"/>
      <point x="205" y="408"/>
      <point x="222" y="408" type="curve"/>
      <point x="470" y="407" type="line"/>
      <point x="368" y="518" type="line"/>
    </contour>
    <contour>
      <point x="79" y="204"/>
      <point x="60" y="155"/>
      <point x="60" y="122" type="curve" smooth="yes"/>
      <point x="60" y="33"/>
      <point x="123" y="9"/>
      <point x="269" y="9" type="curve"/>
      <point x="305" y="85" type="line"/>
      <point x="268" y="150"/>
      <point x="200" y="204"/>
      <point x="148" y="204" type="curve" smooth="yes"/>
    </contour>
    <contour>
      <point x="199" y="37" type="line"/>
      <point x="367" y="-163" type="line"/>
      <point x="452" y="-90" type="line"/>
      <point x="296" y="100" type="line"/>
    </contour>
    <contour>
      <point x="335" y="619" type="line"/>
      <point x="335" y="444" type="line"/>
      <point x="470" y="407" type="line"/>
      <point x="470" y="619" type="line"/>
    </contour>
    <contour>
      <point x="-20" y="685" type="line"/>
      <point x="-20" y="575" type="line"/>
      <point x="600" y="575" type="line"/>
      <point x="600" y="685" type="line"/>
    </contour>
    <contour>
      <point x="290" y="685" type="move" name="top"/>
    </contour>
    <contour>
      <point x="290" y="0" type="move" name="bottom"/>
    </contour>
  </outline>
</glyph>
<glyph name="iideva" format="1">
  <advance width="580"/>
  <unicode hex="0908"/>
  <outline>
    <component base="ideva"/>
    <component base="uni0930094D" xOffset="229"/>
    <contour>
      <point x="300" y="685" type="move" name="top"/>
    </contour>
    <contour>
      <point x="300" y="0" type="move" name="bottom"/>
    </contour>
  </outline>
</glyph>
<glyph name="uu-deva" format="1">
  <advance width="807"/>
  <unicode hex="090A"/>
  <outline>
    <contour>
      <point x="526" y="451"/>
      <point x="467" y="411"/>
      <point x="418" y="353" type="curve"/>
      <point x="482" y="263" type="line"/>
      <point x="519" y="326"/>
      <point x="569" y="348"/>
      <point x="603" y="348" type="curve" smooth="yes"/>
      <point x="632" y="348"/>
      <point x="657" y="328"/>
      <point x="657" y="297" type="curve" smooth="yes"/>
      <point x="657" y="256"/>
      <point x="628" y="241"/>
      <point x="599" y="241" type="curve" smooth="yes"/>
      <point x="585" y="241"/>
      <point x="572" y="243"/>
      <point x="563" y="245" type="curve"/>
      <point x="578" y="148" type="line"/>
      <point x="589" y="147"/>
      <point x="595" y="147"/>
      <point x="600" y="147" type="curve" smooth="yes"/>
      <point x="695" y="147"/>
      <point x="771" y="203"/>
      <point x="771" y="298" type="curve" smooth="yes"/>
      <point x="771" y="390"/>
      <point x="702" y="451"/>
      <point x="610" y="451" type="curve" smooth="yes"/>
    </contour>
    <contour>
      <point x="455" y="685" type="line"/>
      <point x="455" y="575" type="line"/>
      <point x="827" y="575" type="line"/>
      <point x="827" y="685" type="line"/>
    </contour>
    <component base="u-deva"/>
    <contour>
      <point x="316" y="685" type="move" name="top"/>
    </contour>
    <contour>
      <point x="300" y="0" type="move" name="bottom"/>
    </contour>
  </outline>
</glyph>
<glyph name="rvocalicdeva" format="1">
  <advance width="945"/>
  <unicode hex="090B"/>
  <outline>
    <contour>
      <point x="684" y="522"/>
      <point x="638" y="460"/>
      <point x="638" y="376" type="curve"/>
      <point x="658" y="308"/>
      <point x="683" y="242"/>
      <point x="709" y="195" type="curve"/>
      <point x="843" y="190" type="line"/>
      <point x="824" y="238"/>
      <point x="782" y="322"/>
      <point x="778" y="371" type="curve"/>
      <point x="687" y="429" type="line"/>
      <point x="603" y="386"/>
      <point x="569" y="377"/>
      <point x="483" y="377" type="curve"/>
      <point x="441" y="377"/>
      <point x="417" y="410"/>
      <point x="385" y="442" type="curve" smooth="yes"/>
      <point x="354" y="470"/>
      <point x="315" y="497"/>
      <point x="244" y="497" type="curve"/>
      <point x="174" y="497"/>
      <point x="92" y="451"/>
      <point x="45" y="430" type="curve"/>
      <point x="89" y="330" type="line"/>
      <point x="174" y="374"/>
      <point x="208" y="387"/>
      <point x="244" y="387" type="curve"/>
      <point x="277" y="387"/>
      <point x="300" y="360"/>
      <point x="333" y="333" type="curve" smooth="yes"/>
      <point x="367" y="300"/>
      <point x="410" y="267"/>
      <point x="483" y="267" type="curve"/>
      <point x="662" y="267"/>
      <point x="838" y="355"/>
      <point x="838" y="449" type="curve"/>
      <point x="838" y="492"/>
      <point x="802" y="522"/>
      <point x="749" y="522" type="curve"/>
    </contour>
    <contour>
      <point x="57" y="140" type="line"/>
      <point x="114" y="32" type="line"/>
      <point x="503" y="251" type="line"/>
      <point x="446" y="356" type="line"/>
    </contour>
    <contour>
      <point x="398" y="609" type="line"/>
      <point x="398" y="0" type="line"/>
      <point x="533" y="0" type="line"/>
      <point x="533" y="609" type="line"/>
    </contour>
    <contour>
      <point x="-10" y="685" type="line"/>
      <point x="-10" y="575" type="line"/>
      <point x="955" y="575" type="line"/>
      <point x="955" y="685" type="line"/>
    </contour>
    <component base="rvocalicvowelsigndeva" xOffset="571" yOffset="259"/>
  </outline>
</glyph>
<glyph name="ecandradeva" format="1">
  <advance width="606"/>
  <unicode hex="090D"/>
  <outline>
    <component base="edeva"/>
    <component base="ecandravowelsigndeva" xOffset="264"/>
    <contour>
      <point x="460" y="862" type="move" name="top"/>
    </contour>
    <contour>
      <point x="270" y="0" type="move" name="bottom"/>
    </contour>
  </outline>
</glyph>
<glyph name="eshortdeva" format="1">
  <advance width="588"/>
  <unicode hex="090E"/>
  <outline>
    <component base="edeva"/>
    <component base="eshortvowelsigndeva" xOffset="73"/>
    <contour>
      <point x="294" y="685" type="move" name="top"/>
    </contour>
    <contour>
      <point x="294" y="0" type="move" name="bottom"/>
    </contour>
  </outline>
</glyph>
<glyph name="edeva" format="1">
  <advance width="588"/>
  <unicode hex="090F"/>
  <outline>
    <contour>
      <point x="50" y="609" type="line"/>
      <point x="50" y="278" type="line" smooth="yes"/>
      <point x="50" y="219"/>
      <point x="79" y="168"/>
      <point x="122" y="144" type="curve" smooth="yes"/>
      <point x="308" y="40" type="line" smooth="yes"/>
      <point x="328" y="27"/>
      <point x="343" y="5"/>
      <point x="343" y="-18" type="curve" smooth="yes"/>
      <point x="343" y="-36"/>
      <point x="331" y="-57"/>
      <point x="308" y="-79" type="curve"/>
      <point x="399" y="-158" type="line"/>
      <point x="454" y="-112"/>
      <point x="483" y="-57"/>
      <point x="483" y="2" type="curve" smooth="yes"/>
      <point x="483" y="56"/>
      <point x="461" y="100"/>
      <point x="412" y="129" type="curve" smooth="yes"/>
      <point x="225" y="239" type="line" smooth="yes"/>
      <point x="198" y="255"/>
      <point x="185" y="280"/>
      <point x="185" y="318" type="curve" smooth="yes"/>
      <point x="185" y="609" type="line"/>
    </contour>
    <contour>
      <point x="393" y="609" type="line"/>
      <point x="393" y="391" type="line" smooth="yes"/>
      <point x="393" y="343"/>
      <point x="366" y="297"/>
      <point x="321" y="270" type="curve"/>
      <point x="406" y="186" type="line"/>
      <point x="489" y="228"/>
      <point x="528" y="287"/>
      <point x="528" y="372" type="curve" smooth="yes"/>
      <point x="528" y="609" type="line"/>
    </contour>
    <contour>
      <point x="-20" y="685" type="line"/>
      <point x="-20" y="575" type="line"/>
      <point x="608" y="575" type="line"/>
      <point x="608" y="685" type="line"/>
    </contour>
    <contour>
      <point x="458" y="685" type="move" name="top"/>
    </contour>
    <contour>
      <point x="313" y="0" type="move" name="bottom"/>
    </contour>
  </outline>
</glyph>
<glyph name="aideva" format="1">
  <advance width="588"/>
  <unicode hex="0910"/>
  <outline>
    <component base="edeva"/>
    <component base="evowelsigndeva" xOffset="221"/>
    <contour>
      <point x="456" y="685" type="move" name="top"/>
    </contour>
    <contour>
      <point x="300" y="0" type="move" name="bottom"/>
    </contour>
  </outline>
</glyph>
<glyph name="ocandradeva" format="1">
  <advance width="1122"/>
  <unicode hex="0911"/>
  <outline>
    <component base="aadeva"/>
    <component base="ecandravowelsigndeva" xOffset="728"/>
    <contour>
      <point x="560" y="685" type="move" name="top"/>
    </contour>
    <contour>
      <point x="560" y="0" type="move" name="bottom"/>
    </contour>
  </outline>
</glyph>
<glyph name="oShort-deva" format="1">
  <advance width="1182"/>
  <unicode hex="0912"/>
  <outline>
    <component base="aa-deva"/>
    <component base="eShortMatra-deva" xOffset="626"/>
    <contour>
      <point x="1016" y="836" type="move" name="top"/>
    </contour>
    <contour>
      <point x="1016" y="0" type="move" name="bottom"/>
    </contour>
  </outline>
</glyph>
<glyph name="o-deva" format="1">
  <advance width="1111"/>
  <unicode hex="0913"/>
  <outline>
    <component base="aa-deva"/>
    <component base="eMatra-deva" xOffset="705"/>
    <contour>
      <point x="300" y="685" type="move" name="top"/>
    </contour>
    <contour>
      <point x="300" y="0" type="move" name="bottom"/>
    </contour>
  </outline>
</glyph>
<glyph name="au-deva" format="1">
  <advance width="1182"/>
  <unicode hex="0914"/>
  <outline>
    <component base="aa-deva"/>
    <component base="aiMatra-deva" xOffset="614"/>
    <contour>
      <point x="1008" y="685" type="move" name="top"/>
    </contour>
    <contour>
      <point x="1008" y="0" type="move" name="bottom"/>
    </contour>
  </outline>
</glyph>
<glyph name="khadeva" format="1">
  <advance width="975"/>
  <unicode hex="0916"/>
  <outline>
    <component base="uni0916094D"/>
    <component base="uni093E" xOffset="630"/>
    <contour>
      <point x="202" y="-80" type="move" name="nukta"/>
    </contour>
    <contour>
      <point x="803" y="0" type="move" name="bottom"/>
    </contour>
    <contour>
      <point x="803" y="685" type="move" name="top"/>
    </contour>
  </outline>
</glyph>
<glyph name="gadeva" format="1">
  <advance width="659"/>
  <unicode hex="0917"/>
  <outline>
    <component base="uni0917094D"/>
    <component base="uni093E" xOffset="314"/>
    <contour>
      <point x="174" y="50" type="move" name="nukta"/>
    </contour>
    <contour>
      <point x="314" y="0" type="move" name="bottom"/>
    </contour>
    <contour>
      <point x="328" y="685" type="move" name="top"/>
    </contour>
  </outline>
</glyph>
<glyph name="ghadeva" format="1">
  <advance width="706"/>
  <unicode hex="0918"/>
  <outline>
    <component base="uni0918094D"/>
    <component base="uni093E" xOffset="361"/>
    <contour>
      <point x="353" y="685" type="move" name="top"/>
    </contour>
    <contour>
      <point x="353" y="0" type="move" name="bottom"/>
    </contour>
  </outline>
</glyph>
<glyph name="nga-deva" format="1">
  <advance width="717"/>
  <unicode hex="0919"/>
  <outline>
    <contour>
      <point x="595" y="575" type="line"/>
      <point x="737" y="575" type="line"/>
      <point x="737" y="685" type="line"/>
      <point x="595" y="685" type="line"/>
    </contour>
    <component base="dda-deva"/>
    <component base="nukta-deva" xOffset="489" yOffset="508"/>
    <contour>
      <point x="430" y="685" type="move" name="top"/>
    </contour>
    <contour>
      <point x="330" y="0" type="move" name="bottom"/>
    </contour>
  </outline>
</glyph>
<glyph name="cadeva" format="1">
  <advance width="714"/>
  <unicode hex="091A"/>
  <outline>
    <component base="uni091A094D"/>
    <component base="uni093E" xOffset="369"/>
    <contour>
      <point x="371" y="685" type="move" name="top"/>
    </contour>
    <contour>
      <point x="371" y="0" type="move" name="bottom"/>
    </contour>
  </outline>
</glyph>
<glyph name="chadeva" format="1">
  <advance width="749"/>
  <unicode hex="091B"/>
  <outline>
    <contour>
      <point x="472" y="611" type="line"/>
      <point x="472" y="493" type="line"/>
      <point x="607" y="493" type="line"/>
      <point x="607" y="611" type="line"/>
    </contour>
    <component base="uni091B094D" xOffset="2"/>
    <contour>
      <point x="375" y="685" type="move" name="top"/>
    </contour>
    <contour>
      <point x="375" y="0" type="move" name="bottom"/>
    </contour>
  </outline>
</glyph>
<glyph name="ja-deva" format="1">
  <advance width="840"/>
  <unicode hex="091C"/>
  <outline>
    <component base="j-deva"/>
    <component base="aaMatra-deva" xOffset="495"/>
    <contour>
      <point x="302" y="0" type="move" name="nukta"/>
    </contour>
    <contour>
      <point x="668" y="0" type="move" name="bottom"/>
    </contour>
    <contour>
      <point x="668" y="685" type="move" name="top"/>
    </contour>
  </outline>
</glyph>
<glyph name="jhadeva" format="1">
  <advance width="855"/>
  <unicode hex="091D"/>
  <outline>
    <component base="uni091D094D"/>
    <component base="uni093E" xOffset="510"/>
    <contour>
      <point x="428" y="685" type="move" name="top"/>
    </contour>
    <contour>
      <point x="428" y="0" type="move" name="bottom"/>
    </contour>
  </outline>
</glyph>
<glyph name="ttadeva" format="1">
  <advance width="560"/>
  <unicode hex="091F"/>
  <outline>
    <contour>
      <point x="337" y="594" type="line"/>
      <point x="337" y="493" type="line"/>
      <point x="306" y="493" type="line" smooth="yes"/>
      <point x="138" y="493"/>
      <point x="45" y="417"/>
      <point x="45" y="279" type="curve" smooth="yes"/>
      <point x="45" y="132"/>
      <point x="162" y="28"/>
      <point x="329" y="28" type="curve" smooth="yes"/>
      <point x="403" y="28"/>
      <point x="468" y="47"/>
      <point x="527" y="85" type="curve"/>
      <point x="477" y="184" type="line"/>
      <point x="413" y="151"/>
      <point x="379" y="140"/>
      <point x="339" y="140" type="curve" smooth="yes"/>
      <point x="249" y="140"/>
      <point x="199" y="186"/>
      <point x="199" y="269" type="curve" smooth="yes"/>
      <point x="199" y="342"/>
      <point x="243" y="383"/>
      <point x="321" y="383" type="curve" smooth="yes"/>
      <point x="471" y="383" type="line"/>
      <point x="471" y="594" type="line"/>
    </contour>
    <contour>
      <point x="-20" y="685" type="line"/>
      <point x="-20" y="575" type="line"/>
      <point x="580" y="575" type="line"/>
      <point x="580" y="685" type="line"/>
    </contour>
    <contour>
      <point x="280" y="685" type="move" name="top"/>
    </contour>
    <contour>
      <point x="280" y="0" type="move" name="bottom"/>
    </contour>
  </outline>
</glyph>
<glyph name="tthadeva" format="1">
  <advance width="631"/>
  <unicode hex="0920"/>
  <outline>
    <contour>
      <point x="340" y="594" type="line"/>
      <point x="340" y="493" type="line"/>
      <point x="278" y="493" type="line" smooth="yes"/>
      <point x="129" y="493"/>
      <point x="47" y="413"/>
      <point x="47" y="269" type="curve" smooth="yes"/>
      <point x="47" y="128"/>
      <point x="157" y="28"/>
      <point x="321" y="28" type="curve" smooth="yes"/>
      <point x="492" y="28"/>
      <point x="584" y="117"/>
      <point x="584" y="259" type="curve" smooth="yes"/>
      <point x="584" y="343"/>
      <point x="540" y="428"/>
      <point x="455" y="486" type="curve"/>
      <point x="389" y="390" type="line"/>
      <point x="434" y="354"/>
      <point x="449" y="310"/>
      <point x="449" y="259" type="curve" smooth="yes"/>
      <point x="449" y="191"/>
      <point x="395" y="138"/>
      <point x="321" y="138" type="curve" smooth="yes"/>
      <point x="228" y="138"/>
      <point x="182" y="187"/>
      <point x="182" y="269" type="curve" smooth="yes"/>
      <point x="182" y="343"/>
      <point x="214" y="383"/>
      <point x="273" y="383" type="curve" smooth="yes"/>
      <point x="475" y="383" type="line"/>
      <point x="475" y="594" type="line"/>
    </contour>
    <contour>
      <point x="-20" y="685" type="line"/>
      <point x="-20" y="575" type="line"/>
      <point x="651" y="575" type="line"/>
      <point x="651" y="685" type="line"/>
    </contour>
    <contour>
      <point x="407" y="685" type="move" name="top"/>
    </contour>
    <contour>
      <point x="321" y="0" type="move" name="bottom"/>
    </contour>
  </outline>
</glyph>
<glyph name="ddhadeva" format="1">
  <advance width="600"/>
  <unicode hex="0922"/>
  <outline>
    <contour>
      <point x="345" y="594" type="line"/>
      <point x="345" y="493" type="line"/>
      <point x="323" y="493" type="line" smooth="yes"/>
      <point x="147" y="493"/>
      <point x="46" y="408"/>
      <point x="46" y="259" type="curve" smooth="yes"/>
      <point x="46" y="116"/>
      <point x="155" y="19"/>
      <point x="318" y="19" type="curve" smooth="yes"/>
      <point x="476" y="19"/>
      <point x="561" y="81"/>
      <point x="561" y="189" type="curve" smooth="yes"/>
      <point x="561" y="276"/>
      <point x="496" y="333"/>
      <point x="404" y="333" type="curve" smooth="yes"/>
      <point x="302" y="333"/>
      <point x="245" y="287"/>
      <point x="245" y="204" type="curve" smooth="yes"/>
      <point x="245" y="154"/>
      <point x="267" y="110"/>
      <point x="313" y="70" type="curve"/>
      <point x="401" y="95" type="line"/>
      <point x="376" y="134"/>
      <point x="365" y="161"/>
      <point x="365" y="195" type="curve" smooth="yes"/>
      <point x="365" y="223"/>
      <point x="379" y="238"/>
      <point x="404" y="238" type="curve" smooth="yes"/>
      <point x="428" y="238"/>
      <point x="441" y="224"/>
      <point x="441" y="198" type="curve" smooth="yes"/>
      <point x="441" y="157"/>
      <point x="403" y="129"/>
      <point x="328" y="129" type="curve" smooth="yes"/>
      <point x="229" y="129"/>
      <point x="181" y="172"/>
      <point x="181" y="259" type="curve" smooth="yes"/>
      <point x="181" y="336"/>
      <point x="233" y="383"/>
      <point x="318" y="383" type="curve" smooth="yes"/>
      <point x="479" y="383" type="line"/>
      <point x="479" y="594" type="line"/>
    </contour>
    <contour>
      <point x="-20" y="685" type="line"/>
      <point x="-20" y="575" type="line"/>
      <point x="620" y="575" type="line"/>
      <point x="620" y="685" type="line"/>
    </contour>
    <contour>
      <point x="424" y="685" type="move" name="top"/>
    </contour>
    <contour>
      <point x="310" y="0" type="move" name="bottom"/>
    </contour>
  </outline>
</glyph>
<glyph name="nnadeva" format="1">
  <advance width="765"/>
  <unicode hex="0923"/>
  <outline>
    <component base="uni0923094D"/>
    <component base="uni093E" xOffset="420"/>
    <contour>
      <point x="593" y="685" type="move" name="top"/>
    </contour>
    <contour>
      <point x="593" y="0" type="move" name="bottom"/>
    </contour>
  </outline>
</glyph>
<glyph name="tadeva" format="1">
  <advance width="655"/>
  <unicode hex="0924"/>
  <outline>
    <component base="uni0924094D"/>
    <component base="uni093E" xOffset="310"/>
    <contour>
      <point x="328" y="685" type="move" name="top"/>
    </contour>
    <contour>
      <point x="328" y="0" type="move" name="bottom"/>
    </contour>
  </outline>
</glyph>
<glyph name="thadeva" format="1">
  <advance width="780"/>
  <unicode hex="0925"/>
  <outline>
    <component base="uni0925094D"/>
    <component base="uni093E" xOffset="435"/>
    <contour>
      <point x="390" y="685" type="move" name="top"/>
    </contour>
    <contour>
      <point x="390" y="0" type="move" name="bottom"/>
    </contour>
  </outline>
</glyph>
<glyph name="dadeva" format="1">
  <advance width="569"/>
  <unicode hex="0926"/>
  <outline>
    <contour>
      <point x="328" y="594" type="line"/>
      <point x="328" y="493" type="line"/>
      <point x="287" y="493" type="line" smooth="yes"/>
      <point x="131" y="493"/>
      <point x="45" y="442"/>
      <point x="45" y="286" type="curve" smooth="yes"/>
      <point x="45" y="148"/>
      <point x="161" y="58"/>
      <point x="299" y="58" type="curve" smooth="yes"/>
      <point x="418" y="58"/>
      <point x="512" y="91"/>
      <point x="512" y="159" type="curve" smooth="yes"/>
      <point x="512" y="213"/>
      <point x="447" y="269"/>
      <point x="372" y="269" type="curve" smooth="yes"/>
      <point x="317" y="269"/>
      <point x="296" y="232"/>
      <point x="296" y="197" type="curve" smooth="yes"/>
      <point x="296" y="158"/>
      <point x="313" y="120"/>
      <point x="326" y="93" type="curve" smooth="yes"/>
      <point x="355" y="32"/>
      <point x="394" y="-20"/>
      <point x="441" y="-65" type="curve"/>
      <point x="541" y="7" type="line"/>
      <point x="487" y="56"/>
      <point x="449" y="104"/>
      <point x="426" y="153" type="curve"/>
      <point x="446" y="205" type="line"/>
      <point x="399" y="179"/>
      <point x="347" y="164"/>
      <point x="302" y="164" type="curve" smooth="yes"/>
      <point x="227" y="164"/>
      <point x="180" y="211"/>
      <point x="180" y="286" type="curve" smooth="yes"/>
      <point x="180" y="348"/>
      <point x="222" y="383"/>
      <point x="284" y="383" type="curve" smooth="yes"/>
      <point x="462" y="383" type="line"/>
      <point x="462" y="594" type="line"/>
    </contour>
    <contour>
      <point x="-5" y="685" type="line"/>
      <point x="-5" y="575" type="line"/>
      <point x="574" y="575" type="line"/>
      <point x="574" y="685" type="line"/>
    </contour>
    <contour>
      <point x="405" y="685" type="move" name="top"/>
    </contour>
    <contour>
      <point x="289" y="38" type="move" name="bottom"/>
    </contour>
  </outline>
</glyph>
<glyph name="dhadeva" format="1">
  <advance width="706"/>
  <unicode hex="0927"/>
  <outline>
    <component base="uni0927094D"/>
    <component base="uni093E" xOffset="361"/>
    <contour>
      <point x="353" y="685" type="move" name="top"/>
    </contour>
    <contour>
      <point x="353" y="0" type="move" name="bottom"/>
    </contour>
  </outline>
</glyph>
<glyph name="nadeva" format="1">
  <advance width="651"/>
  <unicode hex="0928"/>
  <outline>
    <component base="uni0928094D"/>
    <component base="uni093E" xOffset="306"/>
    <contour>
      <point x="148" y="24" type="move" name="nukta"/>
    </contour>
    <contour>
      <point x="326" y="0" type="move" name="bottom"/>
    </contour>
    <contour>
      <point x="481" y="685" type="move" name="top"/>
    </contour>
  </outline>
</glyph>
<glyph name="nnnadeva" format="1">
  <advance width="651"/>
  <unicode hex="0929"/>
  <outline>
    <component base="nadeva"/>
    <component base="nuktadeva" xOffset="21" yOffset="142"/>
    <contour>
      <point x="326" y="685" type="move" name="top"/>
    </contour>
    <contour>
      <point x="326" y="0" type="move" name="bottom"/>
    </contour>
  </outline>
</glyph>
<glyph name="padeva" format="1">
  <advance width="625"/>
  <unicode hex="092A"/>
  <outline>
    <component base="uni092A094D"/>
    <component base="uni093E" xOffset="280"/>
    <contour>
      <point x="313" y="685" type="move" name="top"/>
    </contour>
    <contour>
      <point x="313" y="0" type="move" name="bottom"/>
    </contour>
  </outline>
</glyph>
<glyph name="uni092B" format="1">
  <advance width="898"/>
  <unicode hex="092B"/>
  <outline>
    <contour>
      <point x="555" y="493"/>
      <point x="494" y="448"/>
      <point x="435" y="337" type="curve"/>
      <point x="509" y="278" type="line"/>
      <point x="543" y="351"/>
      <point x="582" y="383"/>
      <point x="638" y="383" type="curve" smooth="yes"/>
      <point x="690" y="383"/>
      <point x="720" y="351"/>
      <point x="720" y="297" type="curve" smooth="yes"/>
      <point x="720" y="244"/>
      <point x="685" y="212"/>
      <point x="627" y="212" type="curve" smooth="yes"/>
      <point x="619" y="212"/>
      <point x="609" y="213"/>
      <point x="599" y="215" type="curve"/>
      <point x="609" y="103" type="line"/>
      <point x="618" y="103"/>
      <point x="626" y="102"/>
      <point x="635" y="102" type="curve" smooth="yes"/>
      <point x="773" y="102"/>
      <point x="855" y="174"/>
      <point x="855" y="297" type="curve" smooth="yes"/>
      <point x="855" y="420"/>
      <point x="778" y="493"/>
      <point x="648" y="493" type="curve" smooth="yes"/>
    </contour>
    <contour>
      <point x="404" y="685" type="line"/>
      <point x="404" y="575" type="line"/>
      <point x="918" y="575" type="line"/>
      <point x="918" y="685" type="line"/>
    </contour>
    <component base="padeva"/>
    <contour>
      <point x="233" y="43" type="move" name="nukta"/>
    </contour>
    <contour>
      <point x="450" y="0" type="move" name="bottom"/>
    </contour>
    <contour>
      <point x="467" y="685" type="move" name="top"/>
    </contour>
  </outline>
</glyph>
<glyph name="uni092C" format="1">
  <advance width="650"/>
  <unicode hex="092C"/>
  <outline>
    <component base="uni092C094D"/>
    <component base="uni093E" xOffset="305"/>
    <contour>
      <point x="478" y="685" type="move" name="top"/>
    </contour>
    <contour>
      <point x="478" y="0" type="move" name="bottom"/>
    </contour>
  </outline>
</glyph>
<glyph name="bhadeva" format="1">
  <advance width="682"/>
  <unicode hex="092D"/>
  <outline>
    <component base="uni092D094D"/>
    <component base="uni093E" xOffset="337"/>
    <contour>
      <point x="510" y="685" type="move" name="top"/>
    </contour>
    <contour>
      <point x="510" y="0" type="move" name="bottom"/>
    </contour>
  </outline>
</glyph>
<glyph name="madeva" format="1">
  <advance width="684"/>
  <unicode hex="092E"/>
  <outline>
    <component base="uni092E094D"/>
    <component base="uni093E" xOffset="339"/>
    <contour>
      <point x="342" y="685" type="move" name="top"/>
    </contour>
    <contour>
      <point x="342" y="0" type="move" name="bottom"/>
    </contour>
  </outline>
</glyph>
<glyph name="uni0932" format="1">
  <advance width="802"/>
  <unicode hex="0932"/>
  <outline>
    <component base="uni0932094D"/>
    <component base="uni093E" xOffset="457"/>
    <contour>
      <point x="401" y="685" type="move" name="top"/>
    </contour>
    <contour>
      <point x="401" y="0" type="move" name="bottom"/>
    </contour>
  </outline>
</glyph>
<glyph name="lladeva" format="1">
  <advance width="868"/>
  <unicode hex="0933"/>
  <outline>
    <contour>
      <point x="535" y="609" type="line"/>
      <point x="535" y="450" type="line"/>
      <point x="670" y="450" type="line"/>
      <point x="670" y="609" type="line"/>
    </contour>
    <component base="uni0933094D"/>
    <contour>
      <point x="602" y="685" type="move" name="top"/>
    </contour>
    <contour>
      <point x="433" y="0" type="move" name="bottom"/>
    </contour>
  </outline>
</glyph>
<glyph name="vadeva" format="1">
  <advance width="650"/>
  <unicode hex="0935"/>
  <outline>
    <component base="uni0935094D"/>
    <component base="uni093E" xOffset="305"/>
    <contour>
      <point x="478" y="685" type="move" name="top"/>
    </contour>
    <contour>
      <point x="478" y="0" type="move" name="bottom"/>
    </contour>
  </outline>
</glyph>
<glyph name="shadeva" format="1">
  <advance width="826"/>
  <unicode hex="0936"/>
  <outline>
    <component base="uni0936094D"/>
    <component base="uni093E" xOffset="481"/>
    <contour>
      <point x="413" y="685" type="move" name="top"/>
    </contour>
    <contour>
      <point x="413" y="0" type="move" name="bottom"/>
    </contour>
  </outline>
</glyph>
<glyph name="ssa-deva" format="1">
  <advance width="615"/>
  <unicode hex="0937"/>
  <outline>
    <component base="ss-deva"/>
    <component base="aaMatra-deva" xOffset="270"/>
    <contour>
      <point x="443" y="685" type="move" name="top"/>
    </contour>
    <contour>
      <point x="443" y="0" type="move" name="bottom"/>
    </contour>
  </outline>
</glyph>
<glyph name="sadeva" format="1">
  <advance width="776"/>
  <unicode hex="0938"/>
  <outline>
    <component base="uni0938094D"/>
    <component base="uni093E" xOffset="431"/>
    <contour>
      <point x="69" y="0" type="move" name="nukta"/>
    </contour>
    <contour>
      <point x="388" y="0" type="move" name="bottom"/>
    </contour>
    <contour>
      <point x="609" y="685" type="move" name="top"/>
    </contour>
  </outline>
</glyph>
<glyph name="hadeva" format="1">
  <advance width="582"/>
  <unicode hex="0939"/>
  <outline>
    <contour>
      <point x="176" y="310"/>
      <point x="87" y="235"/>
      <point x="87" y="122" type="curve" smooth="yes"/>
      <point x="87" y="-10"/>
      <point x="187" y="-90"/>
      <point x="384" y="-114" type="curve"/>
      <point x="397" y="-8" type="line"/>
      <point x="282" y="8"/>
      <point x="222" y="51"/>
      <point x="222" y="122" type="curve" smooth="yes"/>
      <point x="222" y="167"/>
      <point x="257" y="200"/>
      <point x="311" y="200" type="curve" smooth="yes"/>
      <point x="343" y="200"/>
      <point x="371" y="184"/>
      <point x="371" y="161" type="curve" smooth="yes"/>
      <point x="371" y="142"/>
      <point x="362" y="125"/>
      <point x="336" y="98" type="curve"/>
      <point x="405" y="22" type="line"/>
      <point x="477" y="61"/>
      <point x="506" y="109"/>
      <point x="506" y="169" type="curve" smooth="yes"/>
      <point x="506" y="254"/>
      <point x="429" y="310"/>
      <point x="311" y="310" type="curve" smooth="yes"/>
    </contour>
    <contour>
      <point x="198" y="493" type="line" smooth="yes"/>
      <point x="120" y="493"/>
      <point x="73" y="455"/>
      <point x="73" y="386" type="curve" smooth="yes"/>
      <point x="73" y="322"/>
      <point x="107" y="258"/>
      <point x="169" y="207" type="curve"/>
      <point x="283" y="258" type="line"/>
      <point x="253" y="281"/>
      <point x="217" y="315"/>
      <point x="217" y="349" type="curve" smooth="yes"/>
      <point x="217" y="370"/>
      <point x="229" y="383"/>
      <point x="253" y="383" type="curve" smooth="yes"/>
      <point x="500" y="383" type="line"/>
      <point x="396" y="493" type="line"/>
    </contour>
    <contour>
      <point x="-10" y="685" type="line"/>
      <point x="-10" y="575" type="line"/>
      <point x="592" y="575" type="line"/>
      <point x="592" y="685" type="line"/>
    </contour>
    <contour>
      <point x="365" y="599" type="line"/>
      <point x="365" y="415" type="line"/>
      <point x="500" y="383" type="line"/>
      <point x="500" y="599" type="line"/>
    </contour>
    <contour>
      <point x="291" y="685" type="move" name="top"/>
    </contour>
    <contour>
      <point x="291" y="0" type="move" name="bottom"/>
    </contour>
  </outline>
</glyph>
<glyph name="oeMatra-deva" format="1">
  <advance width="205"/>
  <unicode hex="093A"/>
  <outline>
    <contour>
      <point x="40" y="858" type="line"/>
      <point x="40" y="668" type="line"/>
      <point x="165" y="668" type="line"/>
      <point x="165" y="832" type="line"/>
    </contour>
    <contour>
      <point x="103" y="685" type="move" name="_top"/>
    </contour>
  </outline>
</glyph>
<glyph name="uni093B" format="1">
  <advance width="323"/>
  <unicode hex="093B"/>
  <outline>
    <contour>
      <point x="94" y="805" type="line"/>
      <point x="94" y="0" type="line"/>
      <point x="229" y="0" type="line"/>
      <point x="229" y="805" type="line"/>
    </contour>
    <contour>
      <point x="-31" y="685" type="line"/>
      <point x="-31" y="575" type="line"/>
      <point x="354" y="575" type="line"/>
      <point x="354" y="685" type="line"/>
    </contour>
  </outline>
</glyph>
<glyph name="avagrahadeva" format="1">
  <advance width="600"/>
  <unicode hex="093D"/>
  <outline>
    <contour>
      <point x="0" y="685" type="move" name="top"/>
    </contour>
    <contour>
      <point x="0" y="0" type="move" name="bottom"/>
    </contour>
  </outline>
</glyph>
<glyph name="uni093E" format="1">
  <advance width="345"/>
  <unicode hex="093E"/>
  <outline>
    <contour>
      <point x="105" y="608" type="line"/>
      <point x="105" y="0" type="line"/>
      <point x="240" y="0" type="line"/>
      <point x="240" y="608" type="line"/>
    </contour>
    <contour>
      <point x="-20" y="685" type="line"/>
      <point x="-20" y="575" type="line"/>
      <point x="365" y="575" type="line"/>
      <point x="365" y="685" type="line"/>
    </contour>
    <contour>
      <point x="173" y="685" type="move" name="top"/>
    </contour>
    <contour>
      <point x="173" y="0" type="move" name="bottom"/>
    </contour>
  </outline>
</glyph>
<glyph name="uni093F" format="1">
  <advance width="600"/>
  <unicode hex="093F"/>
  <outline>
    <contour>
      <point x="300" y="685" type="move" name="top"/>
    </contour>
    <contour>
      <point x="300" y="0" type="move" name="bottom"/>
    </contour>
  </outline>
</glyph>
<glyph name="uvowelsigndeva" format="1">
  <advance width="514"/>
  <unicode hex="0941"/>
  <outline>
    <contour>
      <point x="15" y="-126" type="line"/>
      <point x="83" y="-227"/>
      <point x="174" y="-277"/>
      <point x="289" y="-277" type="curve" smooth="yes"/>
      <point x="418" y="-277"/>
      <point x="494" y="-215"/>
      <point x="494" y="-110" type="curve" smooth="yes"/>
      <point x="494" y="-22"/>
      <point x="421" y="41"/>
      <point x="319" y="41" type="curve"/>
      <point x="278" y="41"/>
      <point x="224" y="21"/>
      <point x="177" y="-11" type="curve"/>
      <point x="227" y="-94" type="line"/>
      <point x="271" y="-67"/>
      <point x="287" y="-62"/>
      <point x="319" y="-62" type="curve" smooth="yes"/>
      <point x="351" y="-62"/>
      <point x="375" y="-85"/>
      <point x="375" y="-115" type="curve" smooth="yes"/>
      <point x="375" y="-151"/>
      <point x="342" y="-174"/>
      <point x="289" y="-174" type="curve" smooth="yes"/>
      <point x="209" y="-174"/>
      <point x="161" y="-147"/>
      <point x="97" y="-63" type="curve"/>
    </contour>
    <contour>
      <point x="318" y="0" type="move" name="_bottom"/>
    </contour>
  </outline>
</glyph>
<glyph name="uuvowelsigndeva" format="1">
  <advance width="574"/>
  <unicode hex="0942"/>
  <outline>
    <component base="uvowelsigndeva" xOffset="574" yOffset="-223" xScale="-1" yScale="-1"/>
    <contour>
      <point x="284" y="0" type="move" name="_bottom"/>
    </contour>
  </outline>
</glyph>
<glyph name="rvocalicvowelsigndeva" format="1">
  <advance width="384"/>
  <unicode hex="0943"/>
  <outline>
    <contour>
      <point x="186" y="-202"/>
      <point x="155" y="-181"/>
      <point x="155" y="-143" type="curve" smooth="yes"/>
      <point x="155" y="-105"/>
      <point x="186" y="-84"/>
      <point x="224" y="-84" type="curve" smooth="yes"/>
      <point x="246" y="-84"/>
      <point x="272" y="-90"/>
      <point x="303" y="-101" type="curve"/>
      <point x="329" y="-3" type="line"/>
      <point x="288" y="15"/>
      <point x="246" y="24"/>
      <point x="206" y="24" type="curve" smooth="yes"/>
      <point x="101" y="24"/>
      <point x="35" y="-40"/>
      <point x="35" y="-143" type="curve" smooth="yes"/>
      <point x="35" y="-246"/>
      <point x="101" y="-310"/>
      <point x="206" y="-310" type="curve" smooth="yes"/>
      <point x="246" y="-310"/>
      <point x="288" y="-301"/>
      <point x="329" y="-283" type="curve"/>
      <point x="303" y="-185" type="line"/>
      <point x="272" y="-196"/>
      <point x="246" y="-202"/>
      <point x="224" y="-202" type="curve" smooth="yes"/>
    </contour>
    <contour>
      <point x="192" y="0" type="move" name="_bottom"/>
    </contour>
  </outline>
</glyph>
<glyph name="rrvocalicvowelsigndeva" format="1">
  <advance width="364"/>
  <unicode hex="0944"/>
  <outline>
    <contour>
      <point x="107" y="26"/>
      <point x="40" y="-26"/>
      <point x="40" y="-95" type="curve" smooth="yes"/>
      <point x="40" y="-170"/>
      <point x="98" y="-212"/>
      <point x="201" y="-212" type="curve" smooth="yes"/>
      <point x="221" y="-212"/>
      <point x="243" y="-210"/>
      <point x="266" y="-207" type="curve"/>
      <point x="266" y="-123" type="line"/>
      <point x="244" y="-126"/>
      <point x="226" y="-127"/>
      <point x="211" y="-127" type="curve" smooth="yes"/>
      <point x="175" y="-127"/>
      <point x="158" y="-118"/>
      <point x="158" y="-97" type="curve" smooth="yes"/>
      <point x="158" y="-78"/>
      <point x="172" y="-70"/>
      <point x="203" y="-70" type="curve" smooth="yes"/>
      <point x="230" y="-70"/>
      <point x="260" y="-77"/>
      <point x="298" y="-92" type="curve"/>
      <point x="324" y="2" type="line"/>
      <point x="284" y="17"/>
      <point x="244" y="26"/>
      <point x="205" y="26" type="curve" smooth="yes"/>
    </contour>
    <contour>
      <point x="92" y="-143" type="line"/>
      <point x="58" y="-173"/>
      <point x="40" y="-208"/>
      <point x="40" y="-245" type="curve" smooth="yes"/>
      <point x="40" y="-315"/>
      <point x="107" y="-367"/>
      <point x="205" y="-367" type="curve" smooth="yes"/>
      <point x="244" y="-367"/>
      <point x="284" y="-357"/>
      <point x="324" y="-343" type="curve"/>
      <point x="298" y="-248" type="line"/>
      <point x="260" y="-263"/>
      <point x="230" y="-270"/>
      <point x="203" y="-270" type="curve" smooth="yes"/>
      <point x="174" y="-270"/>
      <point x="158" y="-258"/>
      <point x="158" y="-237" type="curve" smooth="yes"/>
      <point x="158" y="-216"/>
      <point x="174" y="-193"/>
      <point x="201" y="-177" type="curve"/>
    </contour>
    <contour>
      <point x="190" y="0" type="move" name="_bottom"/>
    </contour>
  </outline>
</glyph>
<glyph name="eCandraMatra-deva" format="1">
  <advance width="419"/>
  <unicode hex="0945"/>
  <outline>
    <contour>
      <point x="310" y="913" type="line"/>
      <point x="290" y="854"/>
      <point x="258" y="829"/>
      <point x="211" y="829" type="curve" smooth="yes"/>
      <point x="164" y="829"/>
      <point x="132" y="854"/>
      <point x="112" y="913" type="curve"/>
      <point x="23" y="886" type="line"/>
      <point x="52" y="778"/>
      <point x="109" y="731"/>
      <point x="211" y="731" type="curve" smooth="yes"/>
      <point x="311" y="731"/>
      <point x="366" y="778"/>
      <point x="396" y="888" type="curve"/>
    </contour>
    <contour>
      <point x="211" y="889" type="move" name="top"/>
    </contour>
    <contour>
      <point x="211" y="685" type="move" name="_top"/>
    </contour>
  </outline>
</glyph>
<glyph name="eshortvowelsigndeva" format="1">
  <advance width="492"/>
  <unicode hex="0946"/>
  <outline>
    <contour>
      <point x="-20" y="929" type="line"/>
      <point x="40" y="810"/>
      <point x="79" y="799"/>
      <point x="203" y="772" type="curve" smooth="yes"/>
      <point x="288" y="751"/>
      <point x="305" y="737"/>
      <point x="322" y="674" type="curve"/>
      <point x="449" y="674" type="line"/>
      <point x="433" y="785"/>
      <point x="380" y="837"/>
      <point x="250" y="868" type="curve" smooth="yes"/>
      <point x="149" y="891"/>
      <point x="143" y="882"/>
      <point x="87" y="974" type="curve"/>
    </contour>
    <contour>
      <point x="380" y="853" type="move" name="top"/>
    </contour>
    <contour>
      <point x="385" y="685" type="move" name="_top"/>
    </contour>
  </outline>
</glyph>
<glyph name="evowelsigndeva" format="1">
  <advance width="382"/>
  <unicode hex="0947"/>
  <outline>
    <contour>
      <point x="307" y="670" type="line"/>
      <point x="67" y="970" type="line"/>
      <point x="-37" y="907" type="line"/>
      <point x="167" y="670" type="line"/>
    </contour>
    <contour>
      <point x="237" y="685" type="move" name="_top"/>
    </contour>
  </outline>
</glyph>
<glyph name="aivowelsigndeva" format="1">
  <advance width="486"/>
  <unicode hex="0948"/>
  <outline>
    <contour>
      <point x="32" y="889" type="line"/>
      <point x="314" y="670" type="line"/>
      <point x="417" y="670" type="line"/>
      <point x="403" y="726" type="line"/>
      <point x="110" y="970" type="line"/>
    </contour>
    <contour>
      <point x="266" y="927" type="line"/>
      <point x="373" y="670" type="line"/>
      <point x="466" y="670" type="line"/>
      <point x="373" y="970" type="line"/>
    </contour>
    <contour>
      <point x="223" y="930" type="move" name="top"/>
    </contour>
    <contour>
      <point x="397" y="685" type="move" name="_top"/>
    </contour>
  </outline>
</glyph>
<glyph name="ocandravowelsigndeva" format="1">
  <advance width="345"/>
  <unicode hex="0949"/>
  <outline>
    <component base="uni093E"/>
    <component base="ecandravowelsigndeva" xOffset="-38"/>
    <contour>
      <point x="171" y="907" type="move" name="top"/>
    </contour>
  </outline>
</glyph>
<glyph name="uni094A" format="1">
  <advance width="345"/>
  <unicode hex="094A"/>
  <outline>
    <component base="uni093E"/>
    <component base="eshortvowelsigndeva" xOffset="-212"/>
    <contour>
      <point x="173" y="867" type="move" name="top"/>
    </contour>
  </outline>
</glyph>
<glyph name="oMatra-deva" format="1">
  <advance width="345"/>
  <unicode hex="094B"/>
  <outline>
    <component base="aaMatra-deva"/>
    <component base="eMatra-deva" xOffset="-64"/>
    <contour>
      <point x="169" y="685" type="move" name="imatra"/>
    </contour>
    <contour>
      <point x="257" y="755" type="move" name="top"/>
    </contour>
  </outline>
</glyph>
<glyph name="uni094C" format="1">
  <advance width="345"/>
  <unicode hex="094C"/>
  <outline>
    <component base="uni093E"/>
    <component base="aivowelsigndeva" xOffset="-224"/>
    <contour>
      <point x="176" y="943" type="move" name="top"/>
    </contour>
  </outline>
</glyph>
<glyph name="viramadeva" format="1">
  <advance width="317"/>
  <unicode hex="094D"/>
  <outline>
    <contour>
      <point x="121" y="3" type="line"/>
      <point x="20" y="-87" type="line"/>
      <point x="234" y="-279" type="line"/>
      <point x="297" y="-217" type="line"/>
    </contour>
    <contour>
      <point x="121" y="0" type="move" name="_bottom"/>
    </contour>
  </outline>
</glyph>
<glyph name="uni094E" format="1">
  <advance width="240"/>
  <unicode hex="094E"/>
  <outline>
    <contour>
      <point x="0" y="685" type="line"/>
      <point x="0" y="0" type="line"/>
      <point x="135" y="0" type="line"/>
      <point x="135" y="575" type="line"/>
      <point x="260" y="575" type="line"/>
      <point x="260" y="685" type="line"/>
    </contour>
  </outline>
</glyph>
<glyph name="uni0956" format="1">
  <advance width="460"/>
  <unicode hex="0956"/>
  <outline>
    <contour>
      <point x="341" y="-20" type="line"/>
      <point x="321" y="-74"/>
      <point x="282" y="-104"/>
      <point x="232" y="-104" type="curve" smooth="yes"/>
      <point x="182" y="-104"/>
      <point x="143" y="-74"/>
      <point x="123" y="-20" type="curve"/>
      <point x="25" y="-47" type="line"/>
      <point x="55" y="-147"/>
      <point x="128" y="-202"/>
      <point x="232" y="-202" type="curve" smooth="yes"/>
      <point x="332" y="-202"/>
      <point x="405" y="-146"/>
      <point x="435" y="-45" type="curve"/>
    </contour>
    <contour>
      <point x="230" y="0" type="move" name="_bottom"/>
    </contour>
  </outline>
</glyph>
<glyph name="uni0957" format="1">
  <advance width="460"/>
  <unicode hex="0957"/>
  <outline>
    <component base="uni0956" yOffset="-158"/>
    <component base="uni0956" yOffset="20"/>
    <contour>
      <point x="228" y="0" type="move" name="_bottom"/>
    </contour>
  </outline>
</glyph>
<glyph name="qadeva" format="1">
  <advance width="898"/>
  <unicode hex="0958"/>
  <outline>
    <component base="kadeva"/>
    <component base="nuktadeva" xOffset="113" yOffset="108"/>
    <contour>
      <point x="449" y="685" type="move" name="top"/>
    </contour>
    <contour>
      <point x="449" y="0" type="move" name="bottom"/>
    </contour>
  </outline>
</glyph>
<glyph name="ghhadeva" format="1">
  <advance width="659"/>
  <unicode hex="095A"/>
  <outline>
    <component base="gadeva"/>
    <component base="nuktadeva" xOffset="47" yOffset="168"/>
    <contour>
      <point x="330" y="685" type="move" name="top"/>
    </contour>
    <contour>
      <point x="330" y="0" type="move" name="bottom"/>
    </contour>
  </outline>
</glyph>
<glyph name="zadeva" format="1">
  <advance width="840"/>
  <unicode hex="095B"/>
  <outline>
    <component base="jadeva"/>
    <component base="nuktadeva" xOffset="175" yOffset="118"/>
    <contour>
      <point x="420" y="685" type="move" name="top"/>
    </contour>
    <contour>
      <point x="420" y="0" type="move" name="bottom"/>
    </contour>
  </outline>
</glyph>
<glyph name="dddhadeva" format="1">
  <advance width="620"/>
  <unicode hex="095C"/>
  <outline>
    <component base="ddadeva"/>
    <component base="nuktadeva" xOffset="489" yOffset="508"/>
    <contour>
      <point x="310" y="685" type="move" name="top"/>
    </contour>
    <contour>
      <point x="310" y="0" type="move" name="bottom"/>
    </contour>
  </outline>
</glyph>
<glyph name="rha-deva" format="1">
  <advance width="600"/>
  <unicode hex="095D"/>
  <outline>
    <component base="ddha-deva"/>
    <component base="nukta-deva" xOffset="190"/>
    <contour>
      <point x="412" y="685" type="move" name="top"/>
    </contour>
    <contour>
      <point x="300" y="0" type="move" name="bottom"/>
    </contour>
  </outline>
</glyph>
<glyph name="yyadeva" format="1">
  <advance width="695"/>
  <unicode hex="095F"/>
  <outline>
    <component base="uni092F"/>
    <component base="nuktadeva" xOffset="36" yOffset="111"/>
    <contour>
      <point x="525" y="685" type="move" name="top"/>
    </contour>
    <contour>
      <point x="525" y="0" type="move" name="bottom"/>
    </contour>
  </outline>
</glyph>
<glyph name="rrvocalicdeva" format="1">
  <advance width="940"/>
  <unicode hex="0960"/>
  <outline>
    <contour>
      <point x="684" y="522"/>
      <point x="638" y="460"/>
      <point x="638" y="371" type="curve"/>
      <point x="638" y="308"/>
      <point x="683" y="225"/>
      <point x="733" y="195" type="curve"/>
      <point x="829" y="260" type="line"/>
      <point x="796" y="289"/>
      <point x="778" y="329"/>
      <point x="778" y="371" type="curve"/>
      <point x="687" y="429" type="line"/>
      <point x="603" y="386"/>
      <point x="569" y="377"/>
      <point x="483" y="377" type="curve"/>
      <point x="441" y="377"/>
      <point x="417" y="410"/>
      <point x="385" y="442" type="curve" smooth="yes"/>
      <point x="354" y="470"/>
      <point x="315" y="497"/>
      <point x="244" y="497" type="curve"/>
      <point x="174" y="497"/>
      <point x="92" y="451"/>
      <point x="45" y="430" type="curve"/>
      <point x="89" y="330" type="line"/>
      <point x="174" y="374"/>
      <point x="208" y="387"/>
      <point x="244" y="387" type="curve"/>
      <point x="277" y="387"/>
      <point x="300" y="360"/>
      <point x="333" y="333" type="curve" smooth="yes"/>
      <point x="367" y="300"/>
      <point x="410" y="267"/>
      <point x="483" y="267" type="curve"/>
      <point x="662" y="267"/>
      <point x="838" y="355"/>
      <point x="838" y="449" type="curve"/>
      <point x="838" y="492"/>
      <point x="802" y="522"/>
      <point x="749" y="522" type="curve"/>
    </contour>
    <contour>
      <point x="57" y="140" type="line"/>
      <point x="114" y="32" type="line"/>
      <point x="503" y="251" type="line"/>
      <point x="446" y="356" type="line"/>
    </contour>
    <contour>
      <point x="398" y="609" type="line"/>
      <point x="398" y="0" type="line"/>
      <point x="533" y="0" type="line"/>
      <point x="533" y="609" type="line"/>
    </contour>
    <contour>
      <point x="-10" y="685" type="line"/>
      <point x="-10" y="575" type="line"/>
      <point x="955" y="575" type="line"/>
      <point x="955" y="685" type="line"/>
    </contour>
    <component base="rrvocalicvowelsigndeva" xOffset="563" yOffset="245"/>
    <contour>
      <point x="470" y="685" type="move" name="top"/>
    </contour>
    <contour>
      <point x="470" y="0" type="move" name="bottom"/>
    </contour>
  </outline>
</glyph>
<glyph name="lvocalicvowelsigndeva" format="1">
  <advance width="509"/>
  <unicode hex="0962"/>
  <outline>
    <contour>
      <point x="270" y="65"/>
      <point x="214" y="1"/>
      <point x="215" y="-101" type="curve"/>
      <point x="297" y="-101" type="line"/>
      <point x="297" y="-58"/>
      <point x="320" y="-25"/>
      <point x="353" y="-25" type="curve" smooth="yes"/>
      <point x="369" y="-25"/>
      <point x="379" y="-34"/>
      <point x="379" y="-49" type="curve" smooth="yes"/>
      <point x="379" y="-111"/>
      <point x="298" y="-99"/>
      <point x="298" y="-197" type="curve" smooth="yes"/>
      <point x="298" y="-256"/>
      <point x="345" y="-293"/>
      <point x="418" y="-293" type="curve" smooth="yes"/>
      <point x="444" y="-293"/>
      <point x="470" y="-286"/>
      <point x="496" y="-275" type="curve"/>
      <point x="480" y="-210" type="line"/>
      <point x="460" y="-218"/>
      <point x="444" y="-221"/>
      <point x="429" y="-221" type="curve" smooth="yes"/>
      <point x="405" y="-221"/>
      <point x="390" y="-210"/>
      <point x="390" y="-192" type="curve" smooth="yes"/>
      <point x="390" y="-143"/>
      <point x="485" y="-146"/>
      <point x="485" y="-44" type="curve" smooth="yes"/>
      <point x="485" y="20"/>
      <point x="436" y="65"/>
      <point x="359" y="65" type="curve" smooth="yes"/>
    </contour>
    <contour>
      <point x="63" y="65"/>
      <point x="12" y="20"/>
      <point x="12" y="-58" type="curve" smooth="yes"/>
      <point x="12" y="-112"/>
      <point x="32" y="-182"/>
      <point x="76" y="-266" type="curve"/>
      <point x="169" y="-220" type="line"/>
      <point x="136" y="-166"/>
      <point x="118" y="-111"/>
      <point x="118" y="-65" type="curve" smooth="yes"/>
      <point x="118" y="-40"/>
      <point x="132" y="-25"/>
      <point x="153" y="-25" type="curve" smooth="yes"/>
      <point x="180" y="-25"/>
      <point x="197" y="-59"/>
      <point x="197" y="-101" type="curve"/>
      <point x="274" y="-101" type="line"/>
      <point x="274" y="1"/>
      <point x="226" y="65"/>
      <point x="144" y="65" type="curve" smooth="yes"/>
    </contour>
    <contour>
      <point x="250" y="0" type="move" name="_bottom"/>
    </contour>
    <contour>
      <point x="189" y="537" type="move" name="top"/>
    </contour>
  </outline>
</glyph>
<glyph name="llvocalicvowelsigndeva" format="1">
  <advance width="471"/>
  <unicode hex="0963"/>
  <outline>
    <contour>
      <point x="53" y="65"/>
      <point x="2" y="20"/>
      <point x="2" y="-58" type="curve" smooth="yes"/>
      <point x="2" y="-112"/>
      <point x="22" y="-182"/>
      <point x="66" y="-266" type="curve"/>
      <point x="159" y="-220" type="line"/>
      <point x="126" y="-166"/>
      <point x="108" y="-111"/>
      <point x="108" y="-65" type="curve" smooth="yes"/>
      <point x="108" y="-40"/>
      <point x="122" y="-25"/>
      <point x="143" y="-25" type="curve" smooth="yes"/>
      <point x="170" y="-25"/>
      <point x="187" y="-59"/>
      <point x="187" y="-101" type="curve"/>
      <point x="264" y="-101" type="line"/>
      <point x="264" y="1"/>
      <point x="216" y="65"/>
      <point x="134" y="65" type="curve" smooth="yes"/>
    </contour>
    <contour>
      <point x="315" y="-219"/>
      <point x="301" y="-245"/>
      <point x="301" y="-273" type="curve" smooth="yes"/>
      <point x="301" y="-322"/>
      <point x="344" y="-353"/>
      <point x="413" y="-353" type="curve" smooth="yes"/>
      <point x="441" y="-353"/>
      <point x="472" y="-346"/>
      <point x="502" y="-334" type="curve"/>
      <point x="488" y="-267" type="line"/>
      <point x="465" y="-277"/>
      <point x="448" y="-281"/>
      <point x="432" y="-281" type="curve" smooth="yes"/>
      <point x="407" y="-281"/>
      <point x="395" y="-273"/>
      <point x="395" y="-258" type="curve" smooth="yes"/>
      <point x="395" y="-245"/>
      <point x="405" y="-230"/>
      <point x="423" y="-219" type="curve"/>
      <point x="346" y="-197" type="line"/>
    </contour>
    <contour>
      <point x="253" y="65"/>
      <point x="197" y="1"/>
      <point x="198" y="-101" type="curve"/>
      <point x="280" y="-101" type="line"/>
      <point x="280" y="-58"/>
      <point x="303" y="-25"/>
      <point x="336" y="-25" type="curve" smooth="yes"/>
      <point x="352" y="-25"/>
      <point x="362" y="-34"/>
      <point x="362" y="-47" type="curve" smooth="yes"/>
      <point x="362" y="-95"/>
      <point x="301" y="-80"/>
      <point x="301" y="-151" type="curve" smooth="yes"/>
      <point x="301" y="-200"/>
      <point x="348" y="-237"/>
      <point x="421" y="-237" type="curve" smooth="yes"/>
      <point x="438" y="-237"/>
      <point x="455" y="-235"/>
      <point x="472" y="-231" type="curve"/>
      <point x="462" y="-162" type="line"/>
      <point x="451" y="-164"/>
      <point x="438" y="-165"/>
      <point x="429" y="-165" type="curve" smooth="yes"/>
      <point x="403" y="-165"/>
      <point x="393" y="-154"/>
      <point x="393" y="-144" type="curve" smooth="yes"/>
      <point x="393" y="-115"/>
      <point x="468" y="-121"/>
      <point x="468" y="-44" type="curve" smooth="yes"/>
      <point x="468" y="20"/>
      <point x="419" y="65"/>
      <point x="342" y="65" type="curve" smooth="yes"/>
    </contour>
    <contour>
      <point x="236" y="0" type="move" name="_bottom"/>
    </contour>
    <contour>
      <point x="283" y="0" type="move" name="bottom"/>
    </contour>
    <contour>
      <point x="283" y="685" type="move" name="top"/>
    </contour>
  </outline>
</glyph>
<glyph name="danda-deva" format="1">
  <advance width="323"/>
  <unicode hex="0964"/>
  <outline>
    <contour>
      <point x="94" y="688" type="line"/>
      <point x="94" y="-48" type="line"/>
      <point x="229" y="-48" type="line"/>
      <point x="229" y="688" type="line"/>
    </contour>
  </outline>
</glyph>
<glyph name="twodeva" format="1">
  <advance width="570"/>
  <unicode hex="0968"/>
  <outline>
    <contour>
      <point x="367" y="378"/>
      <point x="317" y="339"/>
      <point x="216" y="339" type="curve"/>
      <point x="304" y="284" type="line"/>
      <point x="249" y="383"/>
      <point x="219" y="411"/>
      <point x="169" y="411" type="curve" smooth="yes"/>
      <point x="109" y="411"/>
      <point x="68" y="378"/>
      <point x="68" y="326" type="curve" smooth="yes"/>
      <point x="68" y="253"/>
      <point x="126" y="221"/>
      <point x="247" y="221" type="curve" smooth="yes"/>
      <point x="387" y="221"/>
      <point x="502" y="328"/>
      <point x="502" y="458" type="curve" smooth="yes"/>
      <point x="502" y="597"/>
      <point x="406" y="685"/>
      <point x="254" y="685" type="curve" smooth="yes"/>
      <point x="181" y="685"/>
      <point x="107" y="669"/>
      <point x="40" y="638" type="curve"/>
      <point x="62" y="532" type="line"/>
      <point x="134" y="560"/>
      <point x="199" y="575"/>
      <point x="250" y="575" type="curve" smooth="yes"/>
      <point x="325" y="575"/>
      <point x="367" y="533"/>
      <point x="367" y="458" type="curve" smooth="yes"/>
    </contour>
    <contour>
      <point x="175" y="274" type="line"/>
      <point x="363" y="-39" type="line"/>
      <point x="469" y="13" type="line"/>
      <point x="301" y="288" type="line"/>
    </contour>
  </outline>
</glyph>
<glyph name="threedeva" format="1">
  <advance width="600"/>
  <unicode hex="0969"/>
  <outline>
    <contour>
      <point x="352" y="352"/>
      <point x="431" y="408"/>
      <point x="431" y="517" type="curve"/>
      <point x="431" y="627"/>
      <point x="347" y="664"/>
      <point x="248" y="664" type="curve" smooth="yes"/>
      <point x="190" y="664"/>
      <point x="127" y="651"/>
      <point x="72" y="632" type="curve"/>
      <point x="97" y="561" type="line"/>
      <point x="143" y="577"/>
      <point x="199" y="591"/>
      <point x="246" y="591" type="curve" smooth="yes"/>
      <point x="301" y="591"/>
      <point x="343" y="572"/>
      <point x="343" y="515" type="curve"/>
      <point x="343" y="458"/>
      <point x="315" y="427"/>
      <point x="141" y="397" type="curve"/>
      <point x="162" y="326" type="line"/>
    </contour>
    <contour>
      <point x="223" y="68" type="line"/>
      <point x="377" y="68"/>
      <point x="453" y="124"/>
      <point x="453" y="239" type="curve" smooth="yes"/>
      <point x="453" y="321"/>
      <point x="393" y="387"/>
      <point x="294" y="426" type="curve"/>
      <point x="254" y="360" type="line"/>
      <point x="323" y="329"/>
      <point x="365" y="292"/>
      <point x="365" y="239" type="curve" smooth="yes"/>
      <point x="365" y="185"/>
      <point x="320" y="142"/>
      <point x="223" y="142" type="curve"/>
    </contour>
    <contour>
      <point x="256" y="132" type="line"/>
      <point x="207" y="194"/>
      <point x="166" y="217"/>
      <point x="107" y="217" type="curve" smooth="yes"/>
      <point x="64" y="217"/>
      <point x="41" y="196"/>
      <point x="41" y="157" type="curve" smooth="yes"/>
      <point x="41" y="102"/>
      <point x="100" y="70"/>
      <point x="201" y="70" type="curve" smooth="yes"/>
      <point x="234" y="70"/>
      <point x="210" y="70"/>
      <point x="242" y="70" type="curve"/>
    </contour>
    <contour>
      <point x="391" y="-19" type="line"/>
      <point x="256" y="132" type="line"/>
      <point x="183" y="94" type="line"/>
      <point x="329" y="-71" type="line"/>
    </contour>
  </outline>
</glyph>
<glyph name="five-deva" format="1">
  <advance width="570"/>
  <unicode hex="096B"/>
  <outline>
    <contour>
      <point x="182" y="695" type="line"/>
      <point x="83" y="628"/>
      <point x="21" y="531"/>
      <point x="21" y="442" type="curve" smooth="yes"/>
      <point x="21" y="304"/>
      <point x="114" y="218"/>
      <point x="261" y="218" type="curve" smooth="yes"/>
      <point x="381" y="218"/>
      <point x="490" y="291"/>
      <point x="490" y="372" type="curve" smooth="yes"/>
      <point x="490" y="429"/>
      <point x="427" y="482"/>
      <point x="360" y="482" type="curve" smooth="yes"/>
      <point x="314" y="482"/>
      <point x="284" y="454"/>
      <point x="284" y="410" type="curve" smooth="yes"/>
      <point x="284" y="384"/>
      <point x="289" y="368"/>
      <point x="317" y="304" type="curve" smooth="yes"/>
      <point x="456" y="-9" type="line"/>
      <point x="566" y="43" type="line"/>
      <point x="435" y="336" type="line"/>
      <point x="406" y="378" type="line"/>
      <point x="340" y="342"/>
      <point x="297" y="328"/>
      <point x="257" y="328" type="curve" smooth="yes"/>
      <point x="193" y="328"/>
      <point x="156" y="368"/>
      <point x="156" y="440" type="curve" smooth="yes"/>
      <point x="156" y="504"/>
      <point x="202" y="577"/>
      <point x="275" y="630" type="curve"/>
    </contour>
  </outline>
</glyph>
<glyph name="sevendeva" format="1">
  <advance width="570"/>
  <unicode hex="096D"/>
  <outline>
    <contour>
      <point x="341" y="405"/>
      <point x="315" y="432"/>
      <point x="315" y="463" type="curve" smooth="yes"/>
      <point x="315" y="489"/>
      <point x="329" y="503"/>
      <point x="351" y="503" type="curve" smooth="yes"/>
      <point x="393" y="503"/>
      <point x="421" y="444"/>
      <point x="421" y="353" type="curve" smooth="yes"/>
      <point x="421" y="263"/>
      <point x="380" y="207"/>
      <point x="315" y="207" type="curve" smooth="yes"/>
      <point x="214" y="207"/>
      <point x="142" y="328"/>
      <point x="142" y="498" type="curve" smooth="yes"/>
      <point x="142" y="554"/>
      <point x="148" y="605"/>
      <point x="158" y="642" type="curve"/>
      <point x="29" y="674" type="line"/>
      <point x="16" y="622"/>
      <point x="8" y="562"/>
      <point x="8" y="504" type="curve" smooth="yes"/>
      <point x="8" y="264"/>
      <point x="136" y="97"/>
      <point x="322" y="97" type="curve" smooth="yes"/>
      <point x="466" y="97"/>
      <point x="555" y="193"/>
      <point x="555" y="350" type="curve" smooth="yes"/>
      <point x="555" y="511"/>
      <point x="471" y="613"/>
      <point x="337" y="613" type="curve" smooth="yes"/>
      <point x="241" y="613"/>
      <point x="182" y="558"/>
      <point x="182" y="469" type="curve" smooth="yes"/>
      <point x="182" y="375"/>
      <point x="245" y="311"/>
      <point x="365" y="287" type="curve"/>
      <point x="380" y="398" type="line"/>
    </contour>
  </outline>
</glyph>
<glyph name="eightdeva" format="1">
  <advance width="570"/>
  <unicode hex="096E"/>
  <outline>
    <contour>
      <point x="230" y="548" type="line" smooth="yes"/>
      <point x="121" y="459"/>
      <point x="70" y="380"/>
      <point x="70" y="300" type="curve" smooth="yes"/>
      <point x="70" y="181"/>
      <point x="171" y="96"/>
      <point x="314" y="96" type="curve" smooth="yes"/>
      <point x="376" y="96"/>
      <point x="445" y="111"/>
      <point x="518" y="140" type="curve"/>
      <point x="480" y="243" type="line"/>
      <point x="421" y="219"/>
      <point x="364" y="207"/>
      <point x="315" y="207" type="curve" smooth="yes"/>
      <point x="247" y="207"/>
      <point x="204" y="243"/>
      <point x="204" y="300" type="curve" smooth="yes"/>
      <point x="204" y="348"/>
      <point x="240" y="401"/>
      <point x="315" y="463" type="curve" smooth="yes"/>
      <point x="476" y="595" type="line"/>
      <point x="392" y="681" type="line"/>
    </contour>
  </outline>
</glyph>
<glyph name="abbreviation-deva" format="1">
  <advance width="478"/>
  <unicode hex="0970"/>
  <outline>
    <contour>
      <point x="129" y="499"/>
      <point x="42" y="411"/>
      <point x="42" y="301" type="curve" smooth="yes"/>
      <point x="42" y="191"/>
      <point x="129" y="104"/>
      <point x="239" y="104" type="curve" smooth="yes"/>
      <point x="349" y="104"/>
      <point x="437" y="191"/>
      <point x="437" y="301" type="curve" smooth="yes"/>
      <point x="437" y="411"/>
      <point x="349" y="499"/>
      <point x="239" y="499" type="curve" smooth="yes"/>
    </contour>
    <contour>
      <point x="282" y="377"/>
      <point x="316" y="343"/>
      <point x="316" y="301" type="curve" smooth="yes"/>
      <point x="316" y="259"/>
      <point x="282" y="226"/>
      <point x="240" y="226" type="curve" smooth="yes"/>
      <point x="198" y="226"/>
      <point x="164" y="259"/>
      <point x="164" y="301" type="curve" smooth="yes"/>
      <point x="164" y="343"/>
      <point x="198" y="377"/>
      <point x="240" y="377" type="curve" smooth="yes"/>
    </contour>
  </outline>
</glyph>
<glyph name="aCandra-deva" format="1">
  <advance width="837"/>
  <unicode hex="0972"/>
  <outline>
    <component base="a-deva"/>
    <component base="eCandraMatra-deva" xOffset="454"/>
    <contour>
      <point x="666" y="868" type="move" name="top"/>
    </contour>
    <contour>
      <point x="666" y="0" type="move" name="bottom"/>
    </contour>
  </outline>
</glyph>
<glyph name="jjya-deva" format="1">
  <advance width="695"/>
  <unicode hex="097A"/>
  <outline>
    <contour>
      <point x="479" y="217" type="line"/>
      <point x="474" y="369" type="line"/>
      <point x="260" y="593" type="line"/>
      <point x="187" y="530" type="line"/>
    </contour>
    <component base="ya-deva"/>
    <contour>
      <point x="523" y="685" type="move" name="top"/>
    </contour>
    <contour>
      <point x="523" y="0" type="move" name="bottom"/>
    </contour>
  </outline>
</glyph>
<glyph name="gga-deva" format="1">
  <advance width="652"/>
  <unicode hex="097B"/>
  <outline>
    <contour>
      <point x="47" y="-110" type="line"/>
      <point x="558" y="-110" type="line"/>
      <point x="558" y="0" type="line"/>
      <point x="47" y="0" type="line"/>
    </contour>
    <component base="ga-deva" xOffset="4"/>
  </outline>
</glyph>
<glyph name="uni097C" format="1">
  <advance width="840"/>
  <unicode hex="097C"/>
  <outline>
    <contour>
      <point x="67" y="-110" type="line"/>
      <point x="735" y="-110" type="line"/>
      <point x="735" y="0" type="line"/>
      <point x="67" y="0" type="line"/>
    </contour>
    <component base="uni091C094D"/>
    <component base="uni093E" xOffset="495"/>
  </outline>
</glyph>
<glyph name="uni097E" format="1">
  <advance width="620"/>
  <unicode hex="097E"/>
  <outline>
    <contour>
      <point x="56" y="-110" type="line"/>
      <point x="564" y="-110" type="line"/>
      <point x="564" y="0" type="line"/>
      <point x="56" y="0" type="line"/>
    </contour>
    <component base="ddadeva"/>
  </outline>
</glyph>
<glyph name="uni097F" format="1">
  <advance width="642"/>
  <unicode hex="097F"/>
  <outline>
    <contour>
      <point x="60" y="-110" type="line"/>
      <point x="548" y="-110" type="line"/>
      <point x="548" y="0" type="line"/>
      <point x="60" y="0" type="line"/>
    </contour>
    <component base="uni092C" xOffset="3"/>
    <contour>
      <point x="486" y="685" type="move" name="top"/>
    </contour>
    <contour>
      <point x="486" y="-111" type="move" name="bottom"/>
    </contour>
  </outline>
</glyph>
<glyph name="Ddotbelow" format="1">
  <advance width="724"/>
  <unicode hex="1E0C"/>
  <outline>
    <contour>
      <point x="81" y="709" type="line"/>
      <point x="81" y="0" type="line"/>
      <point x="319" y="0" type="line" smooth="yes"/>
      <point x="561" y="0"/>
      <point x="687" y="123"/>
      <point x="687" y="358" type="curve" smooth="yes"/>
      <point x="687" y="590"/>
      <point x="563" y="709"/>
      <point x="319" y="709" type="curve" smooth="yes"/>
    </contour>
    <contour>
      <point x="232" y="114" type="line"/>
      <point x="232" y="594" type="line"/>
      <point x="329" y="594" type="line" smooth="yes"/>
      <point x="462" y="594"/>
      <point x="530" y="514"/>
      <point x="530" y="356" type="curve" smooth="yes"/>
      <point x="530" y="196"/>
      <point x="461" y="114"/>
      <point x="329" y="114" type="curve" smooth="yes"/>
    </contour>
    <contour>
      <point x="414" y="-72" type="line"/>
      <point x="299" y="-72" type="line"/>
      <point x="299" y="-179" type="line"/>
      <point x="414" y="-179" type="line"/>
    </contour>
  </outline>
</glyph>
<glyph name="ddotbelow" format="1">
  <advance width="615"/>
  <unicode hex="1E0D"/>
  <outline>
    <contour>
      <point x="553" y="752" type="line"/>
      <point x="403" y="752" type="line"/>
      <point x="403" y="522" type="line"/>
      <point x="368" y="529"/>
      <point x="344" y="532"/>
      <point x="315" y="532" type="curve" smooth="yes"/>
      <point x="140" y="532"/>
      <point x="32" y="428"/>
      <point x="32" y="252" type="curve" smooth="yes"/>
      <point x="32" y="87"/>
      <point x="117" y="-7"/>
      <point x="261" y="-7" type="curve" smooth="yes"/>
      <point x="323" y="-7"/>
      <point x="371" y="14"/>
      <point x="415" y="63" type="curve"/>
      <point x="438" y="1" type="line"/>
      <point x="553" y="1" type="line"/>
    </contour>
    <contour>
      <point x="223" y="99"/>
      <point x="183" y="147"/>
      <point x="183" y="257" type="curve" smooth="yes"/>
      <point x="183" y="373"/>
      <point x="234" y="431"/>
      <point x="323" y="431" type="curve" smooth="yes"/>
      <point x="350" y="431"/>
      <point x="364" y="429"/>
      <point x="403" y="419" type="curve"/>
      <point x="403" y="182" type="line"/>
      <point x="386" y="131"/>
      <point x="345" y="99"/>
      <point x="292" y="99" type="curve" smooth="yes"/>
    </contour>
    <contour>
      <point x="263" y="-72" type="line"/>
      <point x="263" y="-179" type="line"/>
      <point x="378" y="-179" type="line"/>
      <point x="378" y="-72" type="line"/>
    </contour>
  </outline>
</glyph>
<glyph name="Hdotbelow" format="1">
  <advance width="761"/>
  <unicode hex="1E24"/>
  <outline>
    <contour>
      <point x="234" y="709" type="line"/>
      <point x="81" y="709" type="line"/>
      <point x="81" y="0" type="line"/>
      <point x="234" y="0" type="line"/>
      <point x="234" y="303" type="line"/>
      <point x="527" y="303" type="line"/>
      <point x="527" y="0" type="line"/>
      <point x="680" y="0" type="line"/>
      <point x="680" y="709" type="line"/>
      <point x="527" y="709" type="line"/>
      <point x="527" y="419" type="line"/>
      <point x="234" y="419" type="line"/>
    </contour>
    <contour>
      <point x="437" y="-72" type="line"/>
      <point x="322" y="-72" type="line"/>
      <point x="322" y="-179" type="line"/>
      <point x="437" y="-179" type="line"/>
    </contour>
  </outline>
</glyph>
<glyph name="ldotbelow" format="1">
  <advance width="298"/>
  <unicode hex="1E37"/>
  <outline>
    <contour>
      <point x="224" y="752" type="line"/>
      <point x="74" y="752" type="line"/>
      <point x="74" y="0" type="line"/>
      <point x="224" y="0" type="line"/>
    </contour>
    <contour>
      <point x="208" y="-72" type="line"/>
      <point x="93" y="-72" type="line"/>
      <point x="93" y="-179" type="line"/>
      <point x="208" y="-179" type="line"/>
    </contour>
  </outline>
</glyph>
<glyph name="Ldotbelowmacron" format="1">
  <advance width="532"/>
  <unicode hex="1E38"/>
  <outline>
    <contour>
      <point x="322" y="874" type="line"/>
      <point x="-8" y="874" type="line"/>
      <point x="-8" y="781" type="line"/>
      <point x="322" y="781" type="line"/>
    </contour>
    <contour>
      <point x="227" y="709" type="line"/>
      <point x="81" y="709" type="line"/>
      <point x="81" y="0" type="line"/>
      <point x="525" y="0" type="line"/>
      <point x="525" y="116" type="line"/>
      <point x="227" y="116" type="line"/>
    </contour>
    <contour>
      <point x="378" y="-72" type="line"/>
      <point x="263" y="-72" type="line"/>
      <point x="263" y="-179" type="line"/>
      <point x="378" y="-179" type="line"/>
    </contour>
  </outline>
</glyph>
<glyph name="ldotbelowmacron" format="1">
  <advance width="298"/>
  <unicode hex="1E39"/>
  <outline>
    <contour>
      <point x="315" y="899" type="line"/>
      <point x="-15" y="899" type="line"/>
      <point x="-15" y="806" type="line"/>
      <point x="315" y="806" type="line"/>
    </contour>
    <contour>
      <point x="224" y="752" type="line"/>
      <point x="74" y="752" type="line"/>
      <point x="74" y="0" type="line"/>
      <point x="224" y="0" type="line"/>
    </contour>
    <contour>
      <point x="208" y="-72" type="line"/>
      <point x="93" y="-72" type="line"/>
      <point x="93" y="-179" type="line"/>
      <point x="208" y="-179" type="line"/>
    </contour>
  </outline>
</glyph>
<glyph name="ndotaccent" format="1">
  <advance width="625"/>
  <unicode hex="1E45"/>
  <outline>
    <contour>
      <point x="383" y="716" type="line"/>
      <point x="261" y="716" type="line"/>
      <point x="261" y="598" type="line"/>
      <point x="383" y="598" type="line"/>
    </contour>
    <contour>
      <point x="196" y="524" type="line"/>
      <point x="71" y="524" type="line"/>
      <point x="71" y="0" type="line"/>
      <point x="221" y="0" type="line"/>
      <point x="221" y="366" type="line"/>
      <point x="246" y="404"/>
      <point x="291" y="427"/>
      <point x="339" y="427" type="curve" smooth="yes"/>
      <point x="392" y="427"/>
      <point x="415" y="401"/>
      <point x="415" y="340" type="curve" smooth="yes"/>
      <point x="415" y="0" type="line"/>
      <point x="565" y="0" type="line"/>
      <point x="565" y="348" type="line" smooth="yes"/>
      <point x="565" y="466"/>
      <point x="503" y="532"/>
      <point x="394" y="532" type="curve" smooth="yes"/>
      <point x="319" y="532"/>
      <point x="258" y="505"/>
      <point x="212" y="451" type="curve"/>
    </contour>
  </outline>
</glyph>
<glyph name="Rdotbelowmacron" format="1">
  <advance width="645"/>
  <unicode hex="1E5C"/>
  <outline>
    <contour>
      <point x="490" y="793" type="line"/>
      <point x="490" y="886" type="line"/>
      <point x="160" y="886" type="line"/>
      <point x="160" y="793" type="line"/>
    </contour>
    <contour>
      <point x="623" y="0" type="line"/>
      <point x="468" y="297" type="line"/>
      <point x="552" y="331"/>
      <point x="599" y="398"/>
      <point x="599" y="488" type="curve" smooth="yes"/>
      <point x="599" y="632"/>
      <point x="500" y="709"/>
      <point x="324" y="709" type="curve" smooth="yes"/>
      <point x="81" y="709" type="line"/>
      <point x="81" y="0" type="line"/>
      <point x="232" y="0" type="line"/>
      <point x="232" y="270" type="line"/>
      <point x="312" y="270" type="line"/>
      <point x="330" y="270" type="line"/>
      <point x="460" y="0" type="line"/>
    </contour>
    <contour>
      <point x="232" y="380" type="line"/>
      <point x="232" y="596" type="line"/>
      <point x="318" y="596" type="line" smooth="yes"/>
      <point x="405" y="596"/>
      <point x="447" y="564"/>
      <point x="447" y="488" type="curve" smooth="yes"/>
      <point x="447" y="414"/>
      <point x="405" y="380"/>
      <point x="318" y="380" type="curve" smooth="yes"/>
    </contour>
    <contour>
      <point x="288" y="-72" type="line"/>
      <point x="288" y="-179" type="line"/>
      <point x="403" y="-179" type="line"/>
      <point x="403" y="-72" type="line"/>
    </contour>
  </outline>
</glyph>
<glyph name="rdotbelowmacron" format="1">
  <advance width="415"/>
  <unicode hex="1E5D"/>
  <outline>
    <contour>
      <point x="412" y="702" type="line"/>
      <point x="82" y="702" type="line"/>
      <point x="82" y="609" type="line"/>
      <point x="412" y="609" type="line"/>
    </contour>
    <contour>
      <point x="190" y="524" type="line"/>
      <point x="71" y="524" type="line"/>
      <point x="71" y="0" type="line"/>
      <point x="221" y="0" type="line"/>
      <point x="221" y="354" type="line"/>
      <point x="244" y="390"/>
      <point x="275" y="406"/>
      <point x="322" y="406" type="curve" smooth="yes"/>
      <point x="342" y="406"/>
      <point x="368" y="401"/>
      <point x="396" y="391" type="curve"/>
      <point x="413" y="522" type="line"/>
      <point x="385" y="530"/>
      <point x="372" y="532"/>
      <point x="346" y="532" type="curve" smooth="yes"/>
      <point x="285" y="532"/>
      <point x="240" y="504"/>
      <point x="208" y="451" type="curve"/>
    </contour>
    <contour>
      <point x="257" y="-72" type="line"/>
      <point x="142" y="-72" type="line"/>
      <point x="142" y="-179" type="line"/>
      <point x="257" y="-179" type="line"/>
    </contour>
  </outline>
</glyph>
<glyph name="sdotbelow" format="1">
  <advance width="469"/>
  <unicode hex="1E63"/>
  <outline>
    <contour>
      <point x="120" y="534"/>
      <point x="39" y="475"/>
      <point x="39" y="377" type="curve" smooth="yes"/>
      <point x="39" y="262"/>
      <point x="126" y="236"/>
      <point x="197" y="216" type="curve" smooth="yes"/>
      <point x="249" y="201"/>
      <point x="294" y="189"/>
      <point x="294" y="149" type="curve" smooth="yes"/>
      <point x="294" y="113"/>
      <point x="267" y="93"/>
      <point x="215" y="93" type="curve" smooth="yes"/>
      <point x="177" y="93"/>
      <point x="134" y="104"/>
      <point x="59" y="131" type="curve"/>
      <point x="23" y="32" type="line"/>
      <point x="87" y="4"/>
      <point x="153" y="-10"/>
      <point x="224" y="-10" type="curve" smooth="yes"/>
      <point x="358" y="-10"/>
      <point x="439" y="52"/>
      <point x="439" y="154" type="curve" smooth="yes"/>
      <point x="439" y="275"/>
      <point x="339" y="298"/>
      <point x="263" y="319" type="curve" smooth="yes"/>
      <point x="218" y="332"/>
      <point x="181" y="346"/>
      <point x="181" y="380" type="curve" smooth="yes"/>
      <point x="181" y="412"/>
      <point x="211" y="432"/>
      <point x="261" y="432" type="curve" smooth="yes"/>
      <point x="293" y="432"/>
      <point x="329" y="424"/>
      <point x="398" y="402" type="curve"/>
      <point x="429" y="500" type="line"/>
      <point x="359" y="524"/>
      <point x="306" y="534"/>
      <point x="256" y="534" type="curve" smooth="yes"/>
    </contour>
    <contour>
      <point x="290" y="-72" type="line"/>
      <point x="175" y="-72" type="line"/>
      <point x="175" y="-179" type="line"/>
      <point x="290" y="-179" type="line"/>
    </contour>
  </outline>
</glyph>
<glyph name="Tdotbelow" format="1">
  <advance width="558"/>
  <unicode hex="1E6C"/>
  <outline>
    <contour>
      <point x="7" y="593" type="line"/>
      <point x="206" y="593" type="line"/>
      <point x="206" y="0" type="line"/>
      <point x="359" y="0" type="line"/>
      <point x="359" y="593" type="line"/>
      <point x="551" y="593" type="line"/>
      <point x="551" y="709" type="line"/>
      <point x="7" y="709" type="line"/>
    </contour>
    <contour>
      <point x="340" y="-72" type="line"/>
      <point x="225" y="-72" type="line"/>
      <point x="225" y="-179" type="line"/>
      <point x="340" y="-179" type="line"/>
    </contour>
  </outline>
</glyph>
<glyph name="Ydotaccent" format="1">
  <advance width="622"/>
  <unicode hex="1E8E"/>
  <outline>
    <contour>
      <point x="372" y="904" type="line"/>
      <point x="250" y="904" type="line"/>
      <point x="250" y="786" type="line"/>
      <point x="372" y="786" type="line"/>
    </contour>
    <contour>
      <point x="0" y="709" type="line"/>
      <point x="234" y="275" type="line"/>
      <point x="234" y="0" type="line"/>
      <point x="387" y="0" type="line"/>
      <point x="387" y="275" type="line"/>
      <point x="622" y="709" type="line"/>
      <point x="458" y="709" type="line"/>
      <point x="371" y="534" type="line" smooth="yes"/>
      <point x="351" y="492"/>
      <point x="315" y="390"/>
      <point x="315" y="390" type="curve" smooth="yes"/>
      <point x="307" y="390" type="line" smooth="yes"/>
      <point x="307" y="390"/>
      <point x="270" y="492"/>
      <point x="251" y="534" type="curve" smooth="yes"/>
      <point x="165" y="709" type="line"/>
    </contour>
  </outline>
</glyph>
<glyph name="Zdotbelow" format="1">
  <advance width="567"/>
  <unicode hex="1E92"/>
  <outline>
    <contour>
      <point x="364" y="595" type="line"/>
      <point x="27" y="100" type="line"/>
      <point x="27" y="0" type="line"/>
      <point x="535" y="0" type="line"/>
      <point x="535" y="115" type="line"/>
      <point x="200" y="115" type="line"/>
      <point x="538" y="612" type="line"/>
      <point x="538" y="711" type="line"/>
      <point x="38" y="711" type="line"/>
      <point x="38" y="595" type="line"/>
    </contour>
    <contour>
      <point x="352" y="-72" type="line"/>
      <point x="237" y="-72" type="line"/>
      <point x="237" y="-179" type="line"/>
      <point x="352" y="-179" type="line"/>
    </contour>
  </outline>
</glyph>
<glyph name="zdotbelow" format="1">
  <advance width="473"/>
  <unicode hex="1E93"/>
  <outline>
    <contour>
      <point x="271" y="413" type="line"/>
      <point x="28" y="93" type="line"/>
      <point x="28" y="0" type="line"/>
      <point x="447" y="0" type="line"/>
      <point x="447" y="111" type="line"/>
      <point x="195" y="111" type="line"/>
      <point x="438" y="434" type="line"/>
      <point x="438" y="524" type="line"/>
      <point x="39" y="524" type="line"/>
      <point x="39" y="413" type="line"/>
    </contour>
    <contour>
      <point x="303" y="-72" type="line"/>
      <point x="188" y="-72" type="line"/>
      <point x="188" y="-179" type="line"/>
      <point x="303" y="-179" type="line"/>
    </contour>
  </outline>
</glyph>
<glyph name="tdieresis" format="1">
  <advance width="417"/>
  <unicode hex="1E97"/>
  <outline>
    <contour>
      <point x="152" y="733" type="line"/>
      <point x="152" y="851" type="line"/>
      <point x="30" y="851" type="line"/>
      <point x="30" y="733" type="line"/>
    </contour>
    <contour>
      <point x="358" y="733" type="line"/>
      <point x="358" y="851" type="line"/>
      <point x="237" y="851" type="line"/>
      <point x="237" y="733" type="line"/>
    </contour>
    <contour>
      <point x="376" y="116" type="line"/>
      <point x="353" y="108"/>
      <point x="331" y="104"/>
      <point x="310" y="104" type="curve" smooth="yes"/>
      <point x="262" y="104"/>
      <point x="244" y="125"/>
      <point x="244" y="178" type="curve" smooth="yes"/>
      <point x="244" y="419" type="line"/>
      <point x="387" y="419" type="line"/>
      <point x="387" y="524" type="line"/>
      <point x="244" y="524" type="line"/>
      <point x="244" y="674" type="line"/>
      <point x="134" y="674" type="line"/>
      <point x="105" y="524" type="line"/>
      <point x="9" y="524" type="line"/>
      <point x="9" y="419" type="line"/>
      <point x="95" y="419" type="line"/>
      <point x="95" y="157" type="line" smooth="yes"/>
      <point x="95" y="48"/>
      <point x="153" y="-8"/>
      <point x="268" y="-8" type="curve" smooth="yes"/>
      <point x="314" y="-8"/>
      <point x="354" y="2"/>
      <point x="398" y="20" type="curve"/>
    </contour>
  </outline>
</glyph>
<glyph name="uni200C" format="1">
  <advance width="125"/>
  <unicode hex="200C"/>
  <outline>
    <contour>
      <point x="0" y="785" type="line"/>
      <point x="0" y="-245" type="line"/>
      <point x="125" y="-245" type="line"/>
      <point x="125" y="785" type="line"/>
    </contour>
  </outline>
</glyph>
<glyph name="uni200D" format="1">
  <advance width="125"/>
  <unicode hex="200D"/>
  <outline>
    <contour>
      <point x="0" y="785" type="line"/>
      <point x="0" y="-245" type="line"/>
      <point x="125" y="-245" type="line"/>
      <point x="125" y="785" type="line"/>
    </contour>
    <contour>
      <point x="0" y="685" type="line"/>
      <point x="300" y="685" type="line"/>
      <point x="300" y="785" type="line"/>
      <point x="0" y="785" type="line"/>
    </contour>
  </outline>
</glyph>
<glyph name="endash" format="1">
  <advance width="630"/>
  <unicode hex="2013"/>
  <outline>
    <contour>
      <point x="565" y="374" type="line"/>
      <point x="65" y="374" type="line"/>
      <point x="65" y="268" type="line"/>
      <point x="565" y="268" type="line"/>
    </contour>
  </outline>
</glyph>
<glyph name="quoteright" format="1">
  <advance width="278"/>
  <unicode hex="2019"/>
  <outline>
    <contour>
      <point x="49" y="588" type="line"/>
      <point x="104" y="588" type="line"/>
      <point x="53" y="445" type="line"/>
      <point x="150" y="445" type="line"/>
      <point x="222" y="612" type="line"/>
      <point x="222" y="729" type="line"/>
      <point x="49" y="729" type="line"/>
    </contour>
  </outline>
</glyph>
<glyph name="quotedblleft" format="1">
  <advance width="497"/>
  <unicode hex="201C"/>
  <outline>
    <contour>
      <point x="118" y="729" type="line"/>
      <point x="47" y="562" type="line"/>
      <point x="47" y="445" type="line"/>
      <point x="219" y="445" type="line"/>
      <point x="219" y="586" type="line"/>
      <point x="165" y="586" type="line"/>
      <point x="215" y="729" type="line"/>
    </contour>
    <contour>
      <point x="336" y="729" type="line"/>
      <point x="266" y="562" type="line"/>
      <point x="266" y="445" type="line"/>
      <point x="438" y="445" type="line"/>
      <point x="438" y="586" type="line"/>
      <point x="383" y="586" type="line"/>
      <point x="434" y="729" type="line"/>
    </contour>
  </outline>
</glyph>
<glyph name="quotedblbase" format="1">
  <advance width="497"/>
  <unicode hex="201E"/>
  <outline>
    <contour>
      <point x="49" y="-6" type="line"/>
      <point x="104" y="-6" type="line"/>
      <point x="53" y="-149" type="line"/>
      <point x="151" y="-149" type="line"/>
      <point x="222" y="18" type="line"/>
      <point x="222" y="135" type="line"/>
      <point x="49" y="135" type="line"/>
    </contour>
    <contour>
      <point x="268" y="-6" type="line"/>
      <point x="323" y="-6" type="line"/>
      <point x="272" y="-149" type="line"/>
      <point x="369" y="-149" type="line"/>
      <point x="441" y="18" type="line"/>
      <point x="441" y="135" type="line"/>
      <point x="268" y="135" type="line"/>
    </contour>
  </outline>
</glyph>
<glyph name="bullet" format="1">
  <advance width="395"/>
  <unicode hex="2022"/>
  <outline>
    <contour>
      <point x="33" y="239"/>
      <point x="106" y="165"/>
      <point x="197" y="165" type="curve" smooth="yes"/>
      <point x="289" y="165"/>
      <point x="362" y="239"/>
      <point x="362" y="330" type="curve" smooth="yes"/>
      <point x="362" y="421"/>
      <point x="289" y="495"/>
      <point x="197" y="495" type="curve" smooth="yes"/>
      <point x="106" y="495"/>
      <point x="33" y="421"/>
      <point x="33" y="330" type="curve" smooth="yes"/>
    </contour>
  </outline>
</glyph>
<glyph name="onedotenleader" format="1">
  <advance width="287"/>
  <unicode hex="2024"/>
  <outline>
    <contour>
      <point x="221" y="149" type="line"/>
      <point x="67" y="149" type="line"/>
      <point x="67" y="0" type="line"/>
      <point x="221" y="0" type="line"/>
    </contour>
  </outline>
</glyph>
<glyph name="twodotenleader" format="1">
  <advance width="571"/>
  <unicode hex="2025"/>
  <outline>
    <contour>
      <point x="221" y="149" type="line"/>
      <point x="67" y="149" type="line"/>
      <point x="67" y="0" type="line"/>
      <point x="221" y="0" type="line"/>
    </contour>
    <contour>
      <point x="504" y="149" type="line"/>
      <point x="350" y="149" type="line"/>
      <point x="350" y="0" type="line"/>
      <point x="504" y="0" type="line"/>
    </contour>
  </outline>
</glyph>
<glyph name="minute" format="1">
  <advance width="270"/>
  <unicode hex="2032"/>
  <outline>
    <contour>
      <point x="248" y="709" type="line"/>
      <point x="101" y="709" type="line"/>
      <point x="40" y="436" type="line"/>
      <point x="138" y="436" type="line"/>
    </contour>
  </outline>
</glyph>
<glyph name="second" format="1">
  <advance width="466"/>
  <unicode hex="2033"/>
  <outline>
    <contour>
      <point x="248" y="709" type="line"/>
      <point x="101" y="709" type="line"/>
      <point x="40" y="436" type="line"/>
      <point x="138" y="436" type="line"/>
    </contour>
    <contour>
      <point x="444" y="709" type="line"/>
      <point x="297" y="709" type="line"/>
      <point x="236" y="436" type="line"/>
      <point x="334" y="436" type="line"/>
    </contour>
  </outline>
</glyph>
<glyph name="guilsinglleft" format="1">
  <advance width="368"/>
  <unicode hex="2039"/>
  <outline>
    <contour>
      <point x="221" y="510" type="line"/>
      <point x="45" y="265" type="line"/>
      <point x="220" y="20" type="line"/>
      <point x="306" y="89" type="line"/>
      <point x="180" y="265" type="line"/>
      <point x="308" y="442" type="line"/>
    </contour>
  </outline>
</glyph>
<glyph name="guilsinglright" format="1">
  <advance width="368"/>
  <unicode hex="203A"/>
  <outline>
    <contour>
      <point x="182" y="265" type="line"/>
      <point x="56" y="89" type="line"/>
      <point x="143" y="20" type="line"/>
      <point x="318" y="265" type="line"/>
      <point x="142" y="510" type="line"/>
      <point x="55" y="442" type="line"/>
    </contour>
  </outline>
</glyph>
<glyph name="fraction" format="1">
  <advance width="177"/>
  <unicode hex="2044"/>
  <outline>
    <contour>
      <point x="266" y="748" type="line"/>
      <point x="-167" y="-1" type="line"/>
      <point x="-89" y="-46" type="line"/>
      <point x="344" y="704" type="line"/>
    </contour>
  </outline>
</glyph>
<glyph name="Euro" format="1">
  <advance width="672"/>
  <unicode hex="20AC"/>
  <outline>
    <contour>
      <point x="605" y="129" type="line"/>
      <point x="565" y="114"/>
      <point x="525" y="106"/>
      <point x="487" y="106" type="curve" smooth="yes"/>
      <point x="373" y="106"/>
      <point x="304" y="157"/>
      <point x="274" y="242" type="curve"/>
      <point x="499" y="242" type="line"/>
      <point x="527" y="316" type="line"/>
      <point x="259" y="316" type="line"/>
      <point x="258" y="329"/>
      <point x="257" y="342"/>
      <point x="257" y="356" type="curve" smooth="yes"/>
      <point x="257" y="368"/>
      <point x="257" y="380"/>
      <point x="258" y="392" type="curve"/>
      <point x="552" y="392" type="line"/>
      <point x="579" y="467" type="line"/>
      <point x="273" y="467" type="line"/>
      <point x="302" y="554"/>
      <point x="370" y="605"/>
      <point x="477" y="605" type="curve" smooth="yes"/>
      <point x="523" y="605"/>
      <point x="579" y="592"/>
      <point x="614" y="574" type="curve"/>
      <point x="653" y="677" type="line"/>
      <point x="605" y="703"/>
      <point x="535" y="718"/>
      <point x="459" y="718" type="curve" smooth="yes"/>
      <point x="274" y="718"/>
      <point x="159" y="623"/>
      <point x="123" y="467" type="curve"/>
      <point x="44" y="467" type="line"/>
      <point x="20" y="392" type="line"/>
      <point x="112" y="392" type="line"/>
      <point x="111" y="380"/>
      <point x="111" y="367"/>
      <point x="111" y="354" type="curve" smooth="yes"/>
      <point x="111" y="341"/>
      <point x="111" y="328"/>
      <point x="112" y="316" type="curve"/>
      <point x="38" y="316" type="line"/>
      <point x="15" y="242" type="line"/>
      <point x="123" y="242" type="line"/>
      <point x="159" y="84"/>
      <point x="278" y="-8"/>
      <point x="461" y="-8" type="curve" smooth="yes"/>
      <point x="533" y="-8"/>
      <point x="592" y="4"/>
      <point x="655" y="31" type="curve"/>
    </contour>
  </outline>
</glyph>
<glyph name="uni20B9" format="1">
  <advance width="431"/>
  <unicode hex="20B9"/>
  <outline>
    <contour>
      <point x="-20" y="409" type="line"/>
      <point x="451" y="409" type="line"/>
      <point x="451" y="519" type="line"/>
      <point x="-20" y="519" type="line"/>
    </contour>
    <component base="radeva"/>
  </outline>
</glyph>
<glyph name="uni2120" format="1">
  <advance width="707"/>
  <unicode hex="2120"/>
  <outline>
    <contour>
      <point x="2" y="391" type="line"/>
      <point x="46" y="373"/>
      <point x="87" y="364"/>
      <point x="128" y="364" type="curve" smooth="yes"/>
      <point x="210" y="365"/>
      <point x="260" y="404"/>
      <point x="260" y="471" type="curve" smooth="yes"/>
      <point x="260" y="546"/>
      <point x="207" y="563"/>
      <point x="162" y="575" type="curve" smooth="yes"/>
      <point x="134" y="583"/>
      <point x="108" y="590"/>
      <point x="108" y="615" type="curve" smooth="yes"/>
      <point x="108" y="631"/>
      <point x="123" y="641"/>
      <point x="148" y="641" type="curve" smooth="yes"/>
      <point x="165" y="641"/>
      <point x="196" y="634"/>
      <point x="233" y="620" type="curve"/>
      <point x="252" y="691" type="line"/>
      <point x="211" y="706"/>
      <point x="177" y="713"/>
      <point x="147" y="713" type="curve" smooth="yes"/>
      <point x="61" y="713"/>
      <point x="10" y="675"/>
      <point x="10" y="609" type="curve" smooth="yes"/>
      <point x="10" y="537"/>
      <point x="61" y="520"/>
      <point x="105" y="508" type="curve" smooth="yes"/>
      <point x="135" y="500"/>
      <point x="161" y="494"/>
      <point x="161" y="467" type="curve" smooth="yes"/>
      <point x="161" y="448"/>
      <point x="146" y="436"/>
      <point x="122" y="436" type="curve" smooth="yes"/>
      <point x="99" y="436"/>
      <point x="74" y="442"/>
      <point x="25" y="460" type="curve"/>
    </contour>
    <contour>
      <point x="426" y="709" type="line"/>
      <point x="331" y="709" type="line"/>
      <point x="284" y="367" type="line"/>
      <point x="375" y="367" type="line"/>
      <point x="400" y="567" type="line"/>
      <point x="460" y="367" type="line"/>
      <point x="531" y="367" type="line"/>
      <point x="590" y="567" type="line"/>
      <point x="616" y="367" type="line"/>
      <point x="707" y="367" type="line"/>
      <point x="659" y="709" type="line"/>
      <point x="565" y="709" type="line"/>
      <point x="496" y="511" type="line"/>
    </contour>
  </outline>
</glyph>
<glyph name="estimated" format="1">
  <advance width="760"/>
  <unicode hex="212E"/>
  <outline>
    <contour>
      <point x="185" y="651"/>
      <point x="19" y="503"/>
      <point x="19" y="319" type="curve" smooth="yes"/>
      <point x="19" y="136"/>
      <point x="185" y="-12"/>
      <point x="388" y="-12" type="curve" smooth="yes"/>
      <point x="506" y="-12"/>
      <point x="613" y="39"/>
      <point x="680" y="117" type="curve"/>
      <point x="626" y="117" type="line"/>
      <point x="569" y="50"/>
      <point x="484" y="8"/>
      <point x="389" y="8" type="curve" smooth="yes"/>
      <point x="300" y="8"/>
      <point x="219" y="45"/>
      <point x="163" y="105" type="curve"/>
      <point x="158" y="111"/>
      <point x="154" y="118"/>
      <point x="154" y="126" type="curve" smooth="yes"/>
      <point x="154" y="307" type="line" smooth="yes"/>
      <point x="154" y="310"/>
      <point x="156" y="311"/>
      <point x="159" y="311" type="curve" smooth="yes"/>
      <point x="756" y="311" type="line"/>
      <point x="756" y="319" type="line" smooth="yes"/>
      <point x="756" y="503"/>
      <point x="591" y="651"/>
      <point x="388" y="651" type="curve" smooth="yes"/>
    </contour>
    <contour>
      <point x="476" y="631"/>
      <point x="555" y="595"/>
      <point x="612" y="538" type="curve" smooth="yes"/>
      <point x="618" y="532"/>
      <point x="622" y="525"/>
      <point x="622" y="516" type="curve" smooth="yes"/>
      <point x="622" y="334" type="line" smooth="yes"/>
      <point x="622" y="331"/>
      <point x="620" y="329"/>
      <point x="617" y="329" type="curve" smooth="yes"/>
      <point x="159" y="329" type="line" smooth="yes"/>
      <point x="156" y="329"/>
      <point x="154" y="331"/>
      <point x="154" y="334" type="curve" smooth="yes"/>
      <point x="154" y="512" type="line" smooth="yes"/>
      <point x="154" y="521"/>
      <point x="158" y="529"/>
      <point x="164" y="535" type="curve" smooth="yes"/>
      <point x="221" y="594"/>
      <point x="300" y="631"/>
      <point x="389" y="631" type="curve" smooth="yes"/>
    </contour>
  </outline>
</glyph>
<glyph name="twothirds" format="1">
  <advance width="860"/>
  <unicode hex="2154"/>
  <outline>
    <contour>
      <point x="606" y="748" type="line"/>
      <point x="173" y="-1" type="line"/>
      <point x="250" y="-46" type="line"/>
      <point x="683" y="704" type="line"/>
    </contour>
    <contour>
      <point x="107" y="708"/>
      <point x="59" y="698"/>
      <point x="14" y="681" type="curve"/>
      <point x="30" y="603" type="line"/>
      <point x="60" y="616"/>
      <point x="93" y="624"/>
      <point x="120" y="624" type="curve" smooth="yes"/>
      <point x="168" y="624"/>
      <point x="195" y="601"/>
      <point x="195" y="559" type="curve" smooth="yes"/>
      <point x="195" y="506"/>
      <point x="168" y="461"/>
      <point x="87" y="396" type="curve"/>
      <point x="15" y="332" type="line"/>
      <point x="21" y="261" type="line"/>
      <point x="319" y="261" type="line"/>
      <point x="319" y="353" type="line"/>
      <point x="271" y="346"/>
      <point x="204" y="339"/>
      <point x="148" y="338" type="curve"/>
      <point x="204" y="386" type="line" smooth="yes"/>
      <point x="285" y="456"/>
      <point x="310" y="503"/>
      <point x="310" y="567" type="curve" smooth="yes"/>
      <point x="310" y="653"/>
      <point x="247" y="708"/>
      <point x="151" y="708" type="curve" smooth="yes"/>
    </contour>
    <contour>
      <point x="531" y="13" type="line"/>
      <point x="566" y="0"/>
      <point x="612" y="-7"/>
      <point x="654" y="-7" type="curve" smooth="yes"/>
      <point x="773" y="-7"/>
      <point x="839" y="39"/>
      <point x="839" y="119" type="curve" smooth="yes"/>
      <point x="839" y="176"/>
      <point x="803" y="214"/>
      <point x="739" y="227" type="curve"/>
      <point x="797" y="240"/>
      <point x="829" y="275"/>
      <point x="829" y="328" type="curve" smooth="yes"/>
      <point x="829" y="401"/>
      <point x="763" y="445"/>
      <point x="667" y="445" type="curve" smooth="yes"/>
      <point x="622" y="445"/>
      <point x="575" y="437"/>
      <point x="531" y="422" type="curve"/>
      <point x="547" y="347" type="line"/>
      <point x="581" y="359"/>
      <point x="619" y="366"/>
      <point x="646" y="366" type="curve" smooth="yes"/>
      <point x="689" y="366"/>
      <point x="715" y="350"/>
      <point x="715" y="318" type="curve" smooth="yes"/>
      <point x="715" y="281"/>
      <point x="685" y="260"/>
      <point x="631" y="260" type="curve" smooth="yes"/>
      <point x="598" y="260" type="line"/>
      <point x="598" y="185" type="line"/>
      <point x="635" y="185" type="line" smooth="yes"/>
      <point x="695" y="185"/>
      <point x="726" y="166"/>
      <point x="726" y="126" type="curve" smooth="yes"/>
      <point x="726" y="91"/>
      <point x="696" y="71"/>
      <point x="641" y="71" type="curve" smooth="yes"/>
      <point x="615" y="71"/>
      <point x="577" y="77"/>
      <point x="544" y="87" type="curve"/>
    </contour>
  </outline>
</glyph>
